<svg xmlns="http://www.w3.org/2000/svg" viewBox="0 0 3840 2160"><defs><style>.cls-1{fill:#adadad;}.cls-2{fill:none;}</style></defs><title>t2hed</title><g id="Layer_2" data-name="Layer 2"><g id="Layer_1-2" data-name="Layer 1"><circle class="cls-1" cx="785.89" cy="715.51" r="3.62"/><circle class="cls-1" cx="999.73" cy="720.18" r="1.81"/><circle class="cls-1" cx="1109.16" cy="980.11" r="1.81"/><circle class="cls-1" cx="641.31" cy="1143.69" r="1.81"/><circle class="cls-1" cx="137.19" cy="1566.69" r="1.81"/><circle class="cls-1" cx="1383.41" cy="472.88" r="3.62"/><circle class="cls-1" cx="1184.23" cy="961.76" r="3.62"/><circle class="cls-1" cx="1144.4" cy="708.27" r="3.62"/><circle class="cls-1" cx="749.67" cy="809.66" r="3.62"/><circle class="cls-1" cx="136.31" cy="1172.95" r="3.62"/><circle class="cls-1" cx="381.4" cy="855.73" r="3.62"/><circle class="cls-1" cx="832.91" cy="1600.1" r="3.62"/><circle class="cls-1" cx="894.82" cy="1245.98" r="3.62"/><circle class="cls-1" cx="372.72" cy="1323.96" r="3.62"/><circle class="cls-1" cx="617.46" cy="346.64" r="3.62"/><circle class="cls-1" cx="1189.33" cy="1118.34" r="3.62"/><circle class="cls-1" cx="1041.46" cy="1016.66" r="1.81"/><circle class="cls-1" cx="1455.99" cy="796.77" r="1.81"/><circle class="cls-1" cx="1616.58" cy="1265.66" r="1.81"/><circle class="cls-1" cx="950.53" cy="519.29" r="3.62"/><circle class="cls-1" cx="1438.12" cy="721.58" r="3.62"/><circle class="cls-1" cx="1184.38" cy="759.79" r="3.62"/><circle class="cls-1" cx="1283.25" cy="1155.16" r="3.62"/><circle class="cls-1" cx="1326.96" cy="1523.72" r="3.62"/><circle class="cls-1" cx="2074.21" cy="1076.98" r="3.62"/><circle class="cls-1" cx="2933.4" cy="1391.87" r="3.62"/><circle class="cls-1" cx="1720.49" cy="1012.81" r="3.62"/><circle class="cls-1" cx="1795.13" cy="1535.4" r="3.62"/><circle class="cls-1" cx="2173.08" cy="1110.71" r="1.81"/><circle class="cls-1" cx="2625.38" cy="1468.36" r="3.62"/><circle class="cls-1" cx="3512.35" cy="145.19" r="3.62"/><circle class="cls-1" cx="2178.2" cy="1187.82" r="3.62"/><circle class="cls-1" cx="3515.29" cy="2045.97" r="3.62"/><circle class="cls-1" cx="2434.76" cy="1192.32" r="3.62"/><circle class="cls-1" cx="2023.08" cy="1165.83" r="3.62"/><circle class="cls-1" cx="2293.82" cy="1483.97" r="1.81"/><circle class="cls-1" cx="1123.73" cy="1348.02" r="1.81"/><circle class="cls-1" cx="2370.97" cy="1479.35" r="3.62"/><circle class="cls-1" cx="2377.11" cy="1222.82" r="3.62"/><circle class="cls-1" cx="1970.61" cy="1251.99" r="3.62"/><circle class="cls-1" cx="1600.04" cy="1231.45" r="3.62"/><circle class="cls-1" cx="1911.16" cy="2044.57" r="3.62"/><circle class="cls-1" cx="2035.39" cy="1707.23" r="3.62"/><circle class="cls-1" cx="1507.76" cy="1690.59" r="3.62"/><circle class="cls-1" cx="819.39" cy="1284.41" r="3.62"/><circle class="cls-1" cx="608.61" cy="324.78" r="1.81"/><circle class="cls-1" cx="511.19" cy="99.88" r="3.62"/><circle class="cls-1" cx="362.11" cy="814.89" r="3.62"/><circle class="cls-1" cx="283.99" cy="878.72" r="3.62"/><circle class="cls-1" cx="194.06" cy="645.15" r="1.81"/><circle class="cls-1" cx="398.67" cy="411.04" r="3.62"/><circle class="cls-1" cx="3764.57" cy="1294.64" r="3.62"/><circle class="cls-1" cx="2169.98" cy="148.88" r="3.62"/><circle class="cls-1" cx="2383.83" cy="153.56" r="1.81"/><circle class="cls-1" cx="2493.25" cy="413.48" r="1.81"/><circle class="cls-1" cx="2025.4" cy="577.06" r="1.81"/><circle class="cls-1" cx="3628.94" cy="1766.25" r="3.62"/><circle class="cls-1" cx="2568.33" cy="395.13" r="3.62"/><circle class="cls-1" cx="2528.49" cy="141.64" r="3.62"/><circle class="cls-1" cx="2133.77" cy="243.04" r="3.62"/><circle class="cls-1" cx="1765.49" cy="289.1" r="3.62"/><circle class="cls-1" cx="2217.01" cy="1033.48" r="3.62"/><circle class="cls-1" cx="1488.68" cy="1952.31" r="3.62"/><circle class="cls-1" cx="2278.91" cy="679.36" r="3.62"/><circle class="cls-1" cx="1756.81" cy="757.34" r="3.62"/><circle class="cls-1" cx="2628.77" cy="1980.71" r="1.81"/><circle class="cls-1" cx="2610.9" cy="1905.52" r="3.62"/><circle class="cls-1" cx="2929.59" cy="1941.27" r="3.62"/><circle class="cls-1" cx="2863" cy="1640.01" r="3.62"/><circle class="cls-1" cx="2573.43" cy="551.72" r="3.62"/><circle class="cls-1" cx="2425.56" cy="450.04" r="1.81"/><circle class="cls-1" cx="2840.08" cy="230.15" r="1.81"/><circle class="cls-1" cx="3000.67" cy="699.03" r="1.81"/><circle class="cls-1" cx="3628.55" cy="107.97" r="1.81"/><circle class="cls-1" cx="3047.41" cy="1072.03" r="1.81"/><circle class="cls-1" cx="3196.06" cy="1812.65" r="3.62"/><circle class="cls-1" cx="2822.22" cy="154.95" r="3.62"/><circle class="cls-1" cx="2568.48" cy="193.17" r="3.62"/><circle class="cls-1" cx="2667.35" cy="588.53" r="3.62"/><circle class="cls-1" cx="2711.06" cy="957.09" r="3.62"/><circle class="cls-1" cx="3458.3" cy="510.35" r="3.62"/><circle class="cls-1" cx="3104.58" cy="446.18" r="3.62"/><circle class="cls-1" cx="3179.23" cy="968.77" r="3.62"/><circle class="cls-1" cx="3557.17" cy="544.08" r="1.81"/><circle class="cls-1" cx="3249.81" cy="233.2" r="1.81"/><circle class="cls-1" cx="3562.29" cy="621.2" r="3.62"/><circle class="cls-1" cx="3713.51" cy="298.05" r="3.62"/><circle class="cls-1" cx="3818.86" cy="625.7" r="3.62"/><circle class="cls-1" cx="3407.18" cy="599.2" r="3.62"/><circle class="cls-1" cx="3677.92" cy="917.34" r="1.81"/><circle class="cls-1" cx="3212.3" cy="1181.64" r="1.81"/><circle class="cls-1" cx="3700.94" cy="1648.69" r="1.81"/><circle class="cls-1" cx="3757.4" cy="1172.63" r="1.81"/><circle class="cls-1" cx="2507.83" cy="781.39" r="1.81"/><circle class="cls-1" cx="3755.06" cy="912.72" r="3.62"/><circle class="cls-1" cx="3761.2" cy="656.19" r="3.62"/><circle class="cls-1" cx="255.26" cy="212.74" r="3.62"/><circle class="cls-1" cx="3354.71" cy="685.36" r="3.62"/><circle class="cls-1" cx="2984.13" cy="664.83" r="3.62"/><circle class="cls-1" cx="3295.25" cy="1477.95" r="3.62"/><circle class="cls-1" cx="2709.55" cy="1862.96" r="3.62"/><circle class="cls-1" cx="3419.49" cy="1140.6" r="3.62"/><circle class="cls-1" cx="2891.86" cy="1123.96" r="3.62"/><circle class="cls-1" cx="846.35" cy="2071.9" r="1.81"/><circle class="cls-1" cx="393.13" cy="1715.43" r="3.62"/><circle class="cls-1" cx="841.04" cy="1994.8" r="3.62"/><circle class="cls-1" cx="584.46" cy="1990.97" r="3.62"/><circle class="cls-1" cx="996.21" cy="2016.39" r="3.62"/><circle class="cls-1" cx="435.37" cy="1200.68" r="1.81"/><circle class="cls-1" cx="1643.63" cy="465.99" r="1.81"/><circle class="cls-1" cx="647.51" cy="1703.78" r="3.62"/><circle class="cls-1" cx="642.03" cy="1960.33" r="3.62"/><circle class="cls-1" cx="1048.45" cy="1930.1" r="3.62"/><circle class="cls-1" cx="127.55" cy="2060.51" r="3.62"/><circle class="cls-1" cx="2203.49" cy="717.78" r="3.62"/><circle class="cls-1" cx="2073.76" cy="1851.44" r="1.81"/><circle class="cls-1" cx="2148.83" cy="1833.09" r="3.62"/><circle class="cls-1" cx="997.98" cy="257.32" r="3.62"/><circle class="cls-1" cx="1292.49" cy="129.68" r="3.62"/><circle class="cls-1" cx="1144.62" cy="28" r="1.81"/><circle class="cls-1" cx="1386.41" cy="166.49" r="3.62"/><circle class="cls-1" cx="922.55" cy="295.75" r="3.62"/><rect class="cls-2" width="3840" height="2160"/></g></g></svg>