<svg xmlns="http://www.w3.org/2000/svg" viewBox="0 0 3840 2160"><defs><style>.cls-1{fill:#adadad;}.cls-2{fill:none;}</style></defs><title>t2hed_1</title><g id="Layer_2" data-name="Layer 2"><g id="Layer_1-2" data-name="Layer 1"><circle class="cls-1" cx="565.73" cy="817.62" r="2.09"/><circle class="cls-1" cx="719.66" cy="820.98" r="1.3"/><circle class="cls-1" cx="1014.03" cy="1224.88" r="1.3"/><circle class="cls-1" cx="461.65" cy="1125.85" r="1.3"/><circle class="cls-1" cx="98.76" cy="1430.35" r="1.3"/><circle class="cls-1" cx="995.86" cy="515.89" r="2.09"/><circle class="cls-1" cx="736.69" cy="1080" r="2.61"/><circle class="cls-1" cx="823.8" cy="812.4" r="2.61"/><circle class="cls-1" cx="539.66" cy="885.4" r="2.61"/><circle class="cls-1" cx="98.12" cy="1146.91" r="2.61"/><circle class="cls-1" cx="3385.35" cy="882.79" r="2.61"/><circle class="cls-1" cx="599.58" cy="1454.4" r="2.61"/><circle class="cls-1" cx="859.74" cy="1416.27" r="2.61"/><circle class="cls-1" cx="268.3" cy="1255.62" r="2.61"/><circle class="cls-1" cx="444.48" cy="375.01" r="2.61"/><circle class="cls-1" cx="1071.75" cy="1324.39" r="2.61"/><circle class="cls-1" cx="965.3" cy="1251.2" r="1.3"/><circle class="cls-1" cx="1048.11" cy="876.12" r="1.3"/><circle class="cls-1" cx="1163.71" cy="1213.65" r="1.3"/><circle class="cls-1" cx="684.25" cy="549.29" r="2.61"/><circle class="cls-1" cx="1035.24" cy="821.99" r="2.61"/><circle class="cls-1" cx="2882.28" cy="1327" r="2.61"/><circle class="cls-1" cx="3017.37" cy="1029.02" r="2.61"/><circle class="cls-1" cx="1496.32" cy="1526.43" r="2.61"/><circle class="cls-1" cx="858.59" cy="1705.21" r="2.61"/><circle class="cls-1" cx="2014.77" cy="837.07" r="2.09"/><circle class="cls-1" cx="2111.63" cy="1304.5" r="2.61"/><circle class="cls-1" cx="1238.51" cy="1031.63" r="2.61"/><circle class="cls-1" cx="1195.61" cy="1713.62" r="2.09"/><circle class="cls-1" cx="2085.94" cy="861.35" r="1.3"/><circle class="cls-1" cx="1889.9" cy="1359.56" r="2.61"/><circle class="cls-1" cx="2528.39" cy="407.07" r="2.09"/><circle class="cls-1" cx="2089.62" cy="916.87" r="2.09"/><circle class="cls-1" cx="2530.51" cy="1775.36" r="2.61"/><circle class="cls-1" cx="3183.85" cy="550.73" r="2.61"/><circle class="cls-1" cx="1977.96" cy="901.03" r="2.61"/><circle class="cls-1" cx="1651.23" cy="1370.8" r="1.3"/><circle class="cls-1" cx="1024.53" cy="1489.72" r="1.3"/><circle class="cls-1" cx="1706.76" cy="1367.47" r="2.61"/><circle class="cls-1" cx="3142.35" cy="572.68" r="2.61"/><circle class="cls-1" cx="1418.56" cy="1203.81" r="2.09"/><circle class="cls-1" cx="1151.8" cy="1189.03" r="2.61"/><circle class="cls-1" cx="1279.13" cy="2080.15" r="2.09"/><circle class="cls-1" cx="1368.56" cy="1837.31" r="2.61"/><circle class="cls-1" cx="988.74" cy="1825.33" r="2.61"/><circle class="cls-1" cx="805.44" cy="1443.93" r="2.61"/><circle class="cls-1" cx="438.11" cy="359.28" r="1.3"/><circle class="cls-1" cx="367.98" cy="177.38" r="2.61"/><circle class="cls-1" cx="330.67" cy="769.16" r="2.61"/><circle class="cls-1" cx="274.43" cy="815.1" r="2.61"/><circle class="cls-1" cx="209.7" cy="646.97" r="1.3"/><circle class="cls-1" cx="2879.68" cy="663.92" r="1.3"/><circle class="cls-1" cx="3795.17" cy="771.77" r="1.3"/><circle class="cls-1" cx="286.98" cy="401.37" r="2.61"/><circle class="cls-1" cx="2100.76" cy="877.43" r="2.61"/><circle class="cls-1" cx="1559.76" cy="148.1" r="2.61"/><circle class="cls-1" cx="1713.69" cy="151.47" r="1.3"/><circle class="cls-1" cx="1794.79" cy="600.2" r="1.3"/><circle class="cls-1" cx="1458" cy="717.96" r="1.3"/><circle class="cls-1" cx="2612.32" cy="1574" r="2.61"/><circle class="cls-1" cx="1848.83" cy="586.99" r="2.09"/><circle class="cls-1" cx="1817.83" cy="142.89" r="2.61"/><circle class="cls-1" cx="1533.69" cy="215.88" r="2.61"/><circle class="cls-1" cx="1270.9" cy="313.59" r="2.61"/><circle class="cls-1" cx="2117.56" cy="805.76" r="2.61"/><circle class="cls-1" cx="975.01" cy="2013.73" r="2.61"/><circle class="cls-1" cx="3071.66" cy="181.47" r="2.09"/><circle class="cls-1" cx="1264.65" cy="847.73" r="2.61"/><circle class="cls-1" cx="1854.37" cy="1915.77" r="1.3"/><circle class="cls-1" cx="2045.87" cy="1961.06" r="2.61"/><circle class="cls-1" cx="1876.81" cy="1900.15" r="2.61"/><circle class="cls-1" cx="2231.6" cy="1957.99" r="2.61"/><circle class="cls-1" cx="1892.34" cy="1728.38" r="1.3"/><circle class="cls-1" cx="1879.48" cy="1674.26" r="2.61"/><circle class="cls-1" cx="3606.87" cy="1523.82" r="2.61"/><circle class="cls-1" cx="2108.89" cy="1700" r="2.61"/><circle class="cls-1" cx="2060.95" cy="1483.13" r="2.61"/><circle class="cls-1" cx="1746.06" cy="626.52" r="1.3"/><circle class="cls-1" cx="3535.02" cy="852.1" r="1.3"/><circle class="cls-1" cx="2172.14" cy="206.6" r="1.3"/><circle class="cls-1" cx="3591.23" cy="195.63" r="1.3"/><circle class="cls-1" cx="2612.04" cy="380.27" r="1.3"/><circle class="cls-1" cx="3624.87" cy="464.14" r="1.3"/><circle class="cls-1" cx="2300.71" cy="1607.41" r="2.61"/><circle class="cls-1" cx="2159.27" cy="152.47" r="2.61"/><circle class="cls-1" cx="1846.62" cy="179.98" r="2.61"/><circle class="cls-1" cx="1649.92" cy="919.47" r="2.61"/><circle class="cls-1" cx="3382.74" cy="381.4" r="2.61"/><circle class="cls-1" cx="2489.49" cy="669.93" r="2.61"/><circle class="cls-1" cx="2234.86" cy="623.74" r="2.61"/><circle class="cls-1" cx="3429.93" cy="1003.35" r="2.61"/><circle class="cls-1" cx="3684.02" cy="1741.13" r="2.61"/><circle class="cls-1" cx="3177.01" cy="765.66" r="2.61"/><circle class="cls-1" cx="3214.94" cy="444.21" r="1.3"/><circle class="cls-1" cx="2339.4" cy="470.42" r="1.3"/><circle class="cls-1" cx="2564.34" cy="749.73" r="2.61"/><circle class="cls-1" cx="3244.71" cy="1370.08" r="2.61"/><circle class="cls-1" cx="1839.5" cy="1122.34" r="2.61"/><circle class="cls-1" cx="2452.68" cy="733.89" r="2.61"/><circle class="cls-1" cx="2647.58" cy="962.91" r="1.3"/><circle class="cls-1" cx="3575.41" cy="1191.63" r="1.3"/><circle class="cls-1" cx="2883.59" cy="1941.41" r="1.3"/><circle class="cls-1" cx="2664.15" cy="1489.38" r="1.3"/><circle class="cls-1" cx="3626.17" cy="1827.94" r="1.3"/><circle class="cls-1" cx="3387.96" cy="1689.34" r="1.3"/><circle class="cls-1" cx="2704.8" cy="1146.68" r="1.3"/><circle class="cls-1" cx="3359.33" cy="621.13" r="1.3"/><circle class="cls-1" cx="3236.45" cy="254.92" r="1.3"/><circle class="cls-1" cx="2703.11" cy="959.58" r="2.61"/><circle class="cls-1" cx="3532.41" cy="1930" r="2.61"/><circle class="cls-1" cx="1798" cy="1144.29" r="2.61"/><circle class="cls-1" cx="183.75" cy="258.63" r="2.61"/><circle class="cls-1" cx="2414.91" cy="795.92" r="2.61"/><circle class="cls-1" cx="3579.32" cy="171.01" r="2.61"/><circle class="cls-1" cx="2372.11" cy="1366.47" r="2.61"/><circle class="cls-1" cx="1950.49" cy="1643.62" r="2.61"/><circle class="cls-1" cx="3012.91" cy="1671.65" r="2.61"/><circle class="cls-1" cx="3512.89" cy="501.52" r="2.61"/><circle class="cls-1" cx="609.25" cy="1794.03" r="1.3"/><circle class="cls-1" cx="283" cy="1537.42" r="2.61"/><circle class="cls-1" cx="605.43" cy="1738.53" r="2.61"/><circle class="cls-1" cx="420.73" cy="1735.77" r="2.61"/><circle class="cls-1" cx="1235.9" cy="1480.52" r="2.61"/><circle class="cls-1" cx="1891.04" cy="523.29" r="2.61"/><circle class="cls-1" cx="2039.26" cy="409.16" r="2.09"/><circle class="cls-1" cx="1719.91" cy="321.69" r="2.61"/><circle class="cls-1" cx="313.41" cy="1166.87" r="1.3"/><circle class="cls-1" cx="1183.18" cy="510.93" r="1.3"/><circle class="cls-1" cx="466.11" cy="1529.03" r="2.61"/><circle class="cls-1" cx="462.17" cy="1713.71" r="2.61"/><circle class="cls-1" cx="754.74" cy="1691.95" r="2.61"/><circle class="cls-1" cx="91.81" cy="1785.83" r="2.61"/><circle class="cls-1" cx="3017.37" cy="209.13" r="2.61"/><circle class="cls-1" cx="2919.79" cy="312.95" r="1.5"/><circle class="cls-1" cx="2007.51" cy="665.42" r="1.5"/><circle class="cls-1" cx="1806.58" cy="736.5" r="1.5"/><circle class="cls-1" cx="1532.04" cy="601.5" r="1.5"/><circle class="cls-1" cx="1264.65" cy="592.19" r="1.5"/><circle class="cls-1" cx="1139.27" cy="1882.4" r="1.5"/><circle class="cls-1" cx="2525.78" cy="1304.5" r="1.5"/><circle class="cls-1" cx="1396.18" cy="1941.12" r="1.3"/><circle class="cls-1" cx="1450.22" cy="1927.91" r="2.09"/><circle class="cls-1" cx="718.4" cy="310.71" r="2.09"/><circle class="cls-1" cx="930.41" cy="198.83" r="2.61"/><circle class="cls-1" cx="823.96" cy="125.64" r="1.3"/><circle class="cls-1" cx="998.02" cy="225.33" r="2.61"/><circle class="cls-1" cx="664.11" cy="338.38" r="2.09"/><circle class="cls-1" cx="218.76" cy="2062.82" r="1.3"/><circle class="cls-1" cx="214.94" cy="2007.31" r="2.61"/><circle class="cls-1" cx="364.25" cy="1960.74" r="2.61"/><rect class="cls-2" width="3840" height="2160"/></g></g></svg>