<svg xmlns="http://www.w3.org/2000/svg" xmlns:xlink="http://www.w3.org/1999/xlink" viewBox="0 0 246.78 344.85"><defs><style>.cls-1{isolation:isolate;}.cls-2,.cls-4,.cls-8{fill:#757575;}.cls-3{fill:url(#radial-gradient);}.cls-4{opacity:0.32;}.cls-5{fill:#878787;opacity:0.11;mix-blend-mode:multiply;}.cls-6{fill:#231f20;}.cls-7{fill:url(#linear-gradient);}.cls-8{opacity:0.53;}.cls-9{fill:#dedede;}.cls-10{fill:#787878;}.cls-11{fill:#c2c2c2;}.cls-12{fill:#cfcf9c;}.cls-13{fill:url(#linear-gradient-2);}</style><radialGradient id="radial-gradient" cx="123.31" cy="158.61" r="116.75" gradientTransform="translate(0 -60.51) scale(1 1.38)" gradientUnits="userSpaceOnUse"><stop offset="0" stop-color="#b3b3b3"/><stop offset="0.36" stop-color="#b0b0b0"/><stop offset="0.6" stop-color="#a8a8a8"/><stop offset="0.8" stop-color="#999"/><stop offset="0.97" stop-color="#848484"/><stop offset="1" stop-color="gray"/></radialGradient><linearGradient id="linear-gradient" x1="183.43" y1="193.04" x2="183.43" y2="115.53" gradientUnits="userSpaceOnUse"><stop offset="0" stop-color="#fff" stop-opacity="0"/><stop offset="0.18" stop-color="#fff" stop-opacity="0.01"/><stop offset="0.33" stop-color="#fff" stop-opacity="0.05"/><stop offset="0.47" stop-color="#fff" stop-opacity="0.12"/><stop offset="0.6" stop-color="#fff" stop-opacity="0.22"/><stop offset="0.74" stop-color="#fff" stop-opacity="0.34"/><stop offset="0.86" stop-color="#fff" stop-opacity="0.5"/><stop offset="0.98" stop-color="#fff" stop-opacity="0.67"/><stop offset="1" stop-color="#fff" stop-opacity="0.7"/></linearGradient><linearGradient id="linear-gradient-2" x1="64.03" y1="193.04" x2="64.03" y2="115.53" xlink:href="#linear-gradient"/></defs><title>VV_pea_5</title><g class="cls-1"><g id="Layer_2" data-name="Layer 2"><g id="Layer_3" data-name="Layer 3"><path class="cls-2" d="M233.3,162.74s5.17-6.13,6.25-6.67,6.61,5.15,7.19,7.25-6.61,26.47-10.28,34.43,1.94,18.42-.68,23.73-10.8,4.93-10.8,4.93l-7.38-18.32Z"/><path class="cls-2" d="M13.51,163s-4.7-6.49-5.74-7.11-7,4.66-7.7,6.71,4.67,26.88,7.75,35.09-3.29,18.22-1.05,23.72,10.4,5.7,10.4,5.7l8.7-17.73Z"/><path class="cls-3" d="M232.12,113.86c0,126.44-38.09,203.36-108.76,203.36S14.13,257.06,14.49,120.89C14.67,53.35,64-.9,123.4,0S232.1,40.16,232.12,113.86Z"/><path class="cls-4" d="M136.46,149.52s-5.64-17.28-6.44-35.46S207,95.88,214.2,129.92s-26.58,42.16-39.07,39.84S151,169.12,136.46,149.52Z"/><path class="cls-4" d="M107.61,151.37A161.63,161.63,0,0,0,114,115.06c.79-18.62-75.66-18.62-82.79,16.24s26.15,43.17,38.42,40.8S93.35,171.44,107.61,151.37Z"/><path class="cls-5" d="M187.73,27.38s46.45,37.51,39.17,106.84-19.16,83.29-30.11,94.69-21.39,33.52-29.17,52.75-31.42,22.79-44.24,22.79-32.66-6.41-38.14-10-7-24.26-27.51-49.19S31.86,214.7,25,179.09s-8.52-94,17.11-128.21-2.79-10.15-16.7,25.79S17,169,27.34,211.47c5.5,22.56,14.5,46.66,21.72,64.28,18.06,28.18,42.88,41.47,74.32,41.47,29.56,0,51.6-13.79,68.25-39.94,2.7-9.13,6.26-20.6,8.88-26.87,4.8-11.48,21.4-49.08,27.17-93.94S233.47,63.46,187.73,27.38Z"/><path class="cls-2" d="M139.72,265.26c-.69.29-1.38.53-2.07.76s-1.38.42-2.07.61-1.39.35-2.09.5-1.39.3-2.09.42q-2.1.38-4.23.6c-1.42.14-2.83.24-4.32.25s-2.9-.11-4.32-.25-2.82-.35-4.22-.6q-1.05-.18-2.1-.42c-.7-.15-1.39-.32-2.09-.5s-1.38-.39-2.07-.61-1.38-.47-2.06-.76c.72-.19,1.43-.33,2.15-.45s1.42-.22,2.13-.31,1.42-.16,2.13-.22,1.41-.11,2.12-.15c1.41-.08,2.81-.11,4.21-.12s2.8,0,4.12,0,2.73,0,4.12,0,2.8,0,4.21.12c.71,0,1.41.08,2.12.15s1.42.13,2.13.22,1.42.18,2.14.31S139,265.07,139.72,265.26Z"/><path class="cls-6" d="M241.06,148.46a40.42,40.42,0,0,1-4.94-7.08l0,.44c0-.15,0-.29,0-.44-2.37-22.77-17-29.42-49.3-29.42s-45.57,6.33-63,6.33S93.05,112,60.71,112s-46.93,6.65-49.3,29.42a40.12,40.12,0,0,1-4.95,7.08c-2.52,2.65-2.8,8.26,0,9.15s6.16,7.6,6.16,7.61c2.42,11.34,7.14,19.72,11.44,22.64C40.31,198.93,78,198.93,90.15,191s23.24-41.89,26.41-45.85,5-5,7.17-5,4,1.05,7.17,5,14.23,38,26.41,45.85,49.84,7.91,66.09-3.16c4.35-3,9.13-11.5,11.53-23.05l0,.41s3.35-6.73,6.15-7.61S243.59,151.11,241.06,148.46ZM104.5,163C99.89,173,94,184.28,88.21,188c-4.76,3.09-14.84,5-26.32,5h0c-14.73,0-28.46-3.11-35.82-8.13-2.23-1.52-5.78-6.26-8.42-14.6A71.89,71.89,0,0,1,15,141.75c1.06-10.25,4.65-16.58,11.61-20.51s17.52-5.71,34.14-5.71a218.2,218.2,0,0,1,40.75,3.83l2.29.39c5.37,1,8.3,2.12,9.6,8.51,1.48,7.24-8.85,34.69-8.85,34.69Zm125.32,7.36c-2.64,8.34-6.19,13.08-8.43,14.6-7.36,5-21.08,8.13-35.82,8.13h0c-11.48,0-21.56-1.92-26.32-5-5.77-3.75-11.68-15-16.29-25.08h0s-10.33-27.45-8.85-34.69c1.3-6.39,4.22-7.54,9.6-8.51l2.29-.39a218.11,218.11,0,0,1,40.75-3.83c16.62,0,27.14,1.76,34.14,5.71s10.55,10.26,11.61,20.51A71.89,71.89,0,0,1,229.82,170.31Z"/><path class="cls-7" d="M229.82,170.31c-2.64,8.34-6.19,13.08-8.43,14.6-7.36,5-21.08,8.13-35.82,8.13h0c-11.48,0-21.56-1.92-26.32-5-5.77-3.75-11.68-15-16.29-25.08h0s-10.33-27.45-8.85-34.69c1.3-6.39,4.22-7.54,9.6-8.51l2.29-.39a218.11,218.11,0,0,1,40.75-3.83c16.62,0,27.14,1.76,34.14,5.71s10.55,10.26,11.61,20.51A71.89,71.89,0,0,1,229.82,170.31Z"/><path class="cls-8" d="M143.1,188.53s8.42,8.23,12,16.46,2.06,24.13,2.06,24.13-15.69-5-25.81-4.39-16.1-4.78-17.78-5.53-5.42.94-9,4.12-6.73-.19-8.79-3.55c0,0,4.49,4.86,4.11,0s-.37-6.93,2.81-7.49,9.92,4.87,11.6,4.87,4.11-3.56,6.55-3.56,4.3,5.43,7.11,2.25,7.84-6.9,13.09-6.74c6.94.22,7.82,10.1,10.48,7.11,1.16-1.31,4.11-6.17-.94-14S139.36,186.47,143.1,188.53Z"/><path class="cls-6" d="M131,217.38s5.32-3.8,9.5-2.85,2.86,5.13,0,5.13S135.78,216.43,131,217.38Z"/><path class="cls-6" d="M110.49,217s-3.42-3-6.27-2.47S103.46,220.42,110.49,217Z"/><path class="cls-2" d="M90.26,252.2c.37.38,1.07.18,1.66,0a11.13,11.13,0,0,0,1.85-.82,7.39,7.39,0,0,1,1-.47c.38-.17.74-.27,1.12-.41.74-.25,1.48-.47,2.21-.67,1.47-.33,2.93-.62,4.38-.88s2.9-.39,4.33-.57c2.87-.39,5.71-.54,8.5-.78s5.61-.41,8.46-.51a111.92,111.92,0,0,1,17.33.47,35.23,35.23,0,0,1,4.49.69c.39.08.77.16,1.22.29l.62.17.44.15c.61.18,1.21.37,1.83.51a11.75,11.75,0,0,0,7.8-.73l.18.22a11.5,11.5,0,0,1-8,2.67c-1.45,0-2.85-.38-4.26-.47s-2.85-.12-4.28-.12c-5.72,0-11.43.26-17.14.49-2.86.12-5.71.3-8.57.37s-5.71.09-8.57.12-5.72,0-8.56.26a23,23,0,0,0-4.22.62,11.76,11.76,0,0,1-2.14.32,4.64,4.64,0,0,1-1.11-.1,1.06,1.06,0,0,1-.86-.8Z"/><path class="cls-5" d="M103.45,187.33s-21.08,17.82-24.16,27-3.46,13.37-2.78,16.06c.5,2,13.47-6.73,18.19-26.27C96.11,198.32,103.38,193.29,103.45,187.33Z"/><path class="cls-9" d="M92.51,156.17c-4.44,1.33-10.31,5-17.85,4.56a67.11,67.11,0,0,1-16.85-3.57c-1-.39,1.15-2.85,4.95-5.35,3.56-2.34,6.55-4.36,13.09-4.36s15.47,6.54,16.46,7.13S94.49,155.58,92.51,156.17Z"/><path class="cls-9" d="M170.36,147.16c-6.24-.77-8.63.72-12.22,3.23s-4.67,4.32-3.59,5.39,7.36,5.76,18,5.22,13.66-2.88,15.46-3.78,1.41-2.49-2.38-4.56S177.53,148,170.36,147.16Z"/><path class="cls-10" d="M93.78,154.72a36.8,36.8,0,0,0-4.23-3.11A38.61,38.61,0,0,0,85,149a23.74,23.74,0,0,0-10-2.56,20,20,0,0,0-10,2.39,24.86,24.86,0,0,0-4.3,2.92,23.91,23.91,0,0,0-3.7,3.69.14.14,0,0,1-.2,0,.13.13,0,0,1,0-.16v0A19.29,19.29,0,0,1,64,147a20.63,20.63,0,0,1,5.23-2.43,21,21,0,0,1,5.8-.77,21.45,21.45,0,0,1,5.74,1,24.67,24.67,0,0,1,5.13,2.36,26,26,0,0,1,8,7.4v0a.15.15,0,0,1,0,.2A.15.15,0,0,1,93.78,154.72Z"/><path class="cls-10" d="M153.32,152.12a17.46,17.46,0,0,1,3.27-4,18.55,18.55,0,0,1,4.34-3.09,17.66,17.66,0,0,1,2.57-1,14.77,14.77,0,0,1,2.78-.51,22.11,22.11,0,0,1,5.35.22,32.56,32.56,0,0,1,9.88,3.17,27,27,0,0,1,4.38,2.77,21,21,0,0,1,3.63,3.67l0,0a.26.26,0,0,1-.06.37.25.25,0,0,1-.33,0,25.72,25.72,0,0,0-3.93-3,33.57,33.57,0,0,0-4.41-2.2,37.31,37.31,0,0,0-9.49-2.48,26.35,26.35,0,0,0-4.86-.12,13.8,13.8,0,0,0-4.62,1.21,25.48,25.48,0,0,0-7.78,5.69.49.49,0,0,1-.69,0,.52.52,0,0,1-.09-.6Z"/><path class="cls-11" d="M123.26,147c-1.72-6.63-11.92,37.44-15.79,45.62s-4.74,12.91-2.15,14.63,22.84-1.84,23.7-7.44S128.71,168.15,123.26,147Z"/><path class="cls-12" d="M19.63,204.23a19.65,19.65,0,0,1,1.74,5.68,27.21,27.21,0,0,1,.26,5.91,26.75,26.75,0,0,1-1,5.82,19.32,19.32,0,0,1-2.44,5.43c-.13-2-.06-3.93,0-5.83s.18-3.76.3-5.62.25-3.73.4-5.61S19.25,206.22,19.63,204.23Z"/><path class="cls-12" d="M23.43,212.69a32.71,32.71,0,0,1,1.72,8,45,45,0,0,1,0,8.21A44.35,44.35,0,0,1,23.7,237a33.09,33.09,0,0,1-3.13,7.6c.14-2.76.45-5.42.7-8.07l.77-7.89.65-7.9C22.91,218.1,23.08,215.43,23.43,212.69Z"/><path class="cls-12" d="M24.39,208.75a24.44,24.44,0,0,1,1,7.15,32.65,32.65,0,0,1-.82,7.17,32.46,32.46,0,0,1-2.38,6.82,24,24,0,0,1-4,6c.51-2.39,1.13-4.62,1.69-6.86s1.12-4.44,1.63-6.66,1-4.45,1.44-6.71S23.8,211.11,24.39,208.75Z"/><path class="cls-12" d="M26.14,219.18a74.62,74.62,0,0,1,1.38,10.25c.28,3.43.37,6.86.35,10.29s-.17,6.85-.49,10.27a76.26,76.26,0,0,1-1.54,10.24,97.31,97.31,0,0,1-.92-10.29c-.17-3.42-.21-6.83-.19-10.25s.13-6.82.35-10.24A96.88,96.88,0,0,1,26.14,219.18Z"/><path class="cls-12" d="M29.41,226.34c.11,3.39.31,6.64.57,9.93s.58,6.58.63,9.95a38.93,38.93,0,0,1-1,10.17,25.33,25.33,0,0,1-4.26,9.24A63.76,63.76,0,0,0,27.17,256a86.79,86.79,0,0,0,.3-9.7c0-3.26-.15-6.6.07-10A34.14,34.14,0,0,1,29.41,226.34Z"/><path class="cls-12" d="M34.18,240.72a35.79,35.79,0,0,1,.3,6.51,61.91,61.91,0,0,1-.58,6.39,56.7,56.7,0,0,1-1.25,6.28,34.9,34.9,0,0,1-2.14,6.16,35.79,35.79,0,0,1-.3-6.51,56.43,56.43,0,0,1,.58-6.38A61.36,61.36,0,0,1,32,246.88,36,36,0,0,1,34.18,240.72Z"/><path class="cls-12" d="M32.19,231.6a45.7,45.7,0,0,1,2,9.79,59.65,59.65,0,0,1,.24,10,59,59,0,0,1-1.38,9.9,45.37,45.37,0,0,1-3.15,9.49c.16-3.35.46-6.61.72-9.86s.49-6.48.68-9.71.32-6.47.45-9.73S32,235,32.19,231.6Z"/><path class="cls-12" d="M35.17,248.49A41.79,41.79,0,0,1,36.26,255c.21,2.17.31,4.33.33,6.5s-.05,4.32-.22,6.49a41.5,41.5,0,0,1-1,6.55,33,33,0,0,1-1.48-6.48A53.67,53.67,0,0,1,33.8,255,33.12,33.12,0,0,1,35.17,248.49Z"/><path class="cls-12" d="M36.76,247.86a66,66,0,0,1,2,8.85c.5,3,.85,6,1.12,8.93s.42,6,.43,9a64.38,64.38,0,0,1-.45,9.07,64.25,64.25,0,0,1-2-8.86c-.51-3-.86-5.94-1.12-8.93s-.42-6-.43-9A65.83,65.83,0,0,1,36.76,247.86Z"/><path class="cls-12" d="M41.63,260.24c.37,2.31.59,4.52.89,6.71s.6,4.34,1,6.49.77,4.28,1.23,6.44,1,4.32,1.38,6.63a21.27,21.27,0,0,1-3.73-5.87A29,29,0,0,1,40.06,267,21.62,21.62,0,0,1,41.63,260.24Z"/><path class="cls-12" d="M42.2,266.31a25.64,25.64,0,0,1,5.08,5.77,21.3,21.3,0,0,1,2.6,7.41,31.07,31.07,0,0,1,.2,7.7,35.39,35.39,0,0,1-1.55,7.45c-.5-2.53-.69-5-.93-7.47s-.45-4.84-.82-7.18a37.24,37.24,0,0,0-1.72-6.84C44.31,270.94,43,268.77,42.2,266.31Z"/><path class="cls-12" d="M44,265.43a17.62,17.62,0,0,1,1.23,4.39,29.06,29.06,0,0,1,0,8.8A18.09,18.09,0,0,1,44,283a18.09,18.09,0,0,1-1.24-4.39,29.06,29.06,0,0,1,0-8.8A17.62,17.62,0,0,1,44,265.43Z"/><path class="cls-12" d="M42.64,245.87a57.73,57.73,0,0,1,.39,8.28c-.05,2.75-.23,5.48-.5,8.19s-.67,5.43-1.17,8.13a57.63,57.63,0,0,1-2.07,8,56.19,56.19,0,0,1-.39-8.28q.08-4.11.5-8.19t1.18-8.12A56.35,56.35,0,0,1,42.64,245.87Z"/><path class="cls-12" d="M39.49,243.29A31.14,31.14,0,0,1,41,251.62a40.82,40.82,0,0,1-.48,8.48,40,40,0,0,1-2.23,8.2,30.4,30.4,0,0,1-4.08,7.43c.54-2.79,1.18-5.46,1.72-8.14s1.05-5.32,1.49-8,.8-5.34,1.11-8.05S39.12,246.1,39.49,243.29Z"/><path class="cls-12" d="M47.52,251.79a49.38,49.38,0,0,1,2,10.78,64,64,0,0,1,0,11,64,64,0,0,1-1.9,10.82,48.93,48.93,0,0,1-3.89,10.26c.46-3.64,1-7.19,1.48-10.74s.86-7.08,1.18-10.62.54-7.09.72-10.66S47.33,255.45,47.52,251.79Z"/><path class="cls-12" d="M47.41,256.34a57.09,57.09,0,0,1,.24,7.6c-.07,2.51-.24,5-.48,7.48s-.58,5-1,7.43a53.39,53.39,0,0,1-1.75,7.41,42.66,42.66,0,0,1-.71-7.6,67.9,67.9,0,0,1,.34-7.55,65.34,65.34,0,0,1,1.17-7.46A42.87,42.87,0,0,1,47.41,256.34Z"/><path class="cls-12" d="M52.29,264.12a42.77,42.77,0,0,1,1.27,8.76,57.85,57.85,0,0,1-.3,8.83,55.75,55.75,0,0,1-1.62,8.68,41.43,41.43,0,0,1-3.15,8.27c.11-3,.43-5.86.72-8.73l.93-8.57,1-8.56C51.44,269.93,51.76,267.05,52.29,264.12Z"/><path class="cls-12" d="M56.59,270a41.76,41.76,0,0,1,1.66,8.47,58.82,58.82,0,0,1,.2,8.6,58.26,58.26,0,0,1-1.05,8.54,41,41,0,0,1-2.5,8.27c-.13-2.91,0-5.74.05-8.55s.22-5.62.36-8.41.29-5.6.48-8.41S56.17,272.88,56.59,270Z"/><path class="cls-12" d="M56.62,264.77a43.41,43.41,0,0,1,.77,9.08,57.23,57.23,0,0,1-.79,9.06,57,57,0,0,1-2.15,8.84,41.51,41.51,0,0,1-3.64,8.35c.3-3.05.78-6,1.26-8.93l1.43-8.77L55,273.64C55.44,270.71,55.93,267.76,56.62,264.77Z"/><path class="cls-12" d="M125.36,228.17a11,11,0,0,1-.22,6.24,15,15,0,0,1-8.37,9.18,11.08,11.08,0,0,1-6.18.83,47.91,47.91,0,0,0,4.78-3.26,33.48,33.48,0,0,0,3.94-3.66,32,32,0,0,0,3.28-4.25A42.25,42.25,0,0,0,125.36,228.17Z"/><path class="cls-12" d="M123.81,227.43a24.59,24.59,0,0,1-5,3.91,36.52,36.52,0,0,1-5.57,2.76,35.26,35.26,0,0,1-6,1.79,23.9,23.9,0,0,1-6.3.53,37.53,37.53,0,0,1,5.39-3.19c1.83-.9,3.68-1.71,5.56-2.45s3.78-1.41,5.73-2A38.15,38.15,0,0,1,123.81,227.43Z"/><path class="cls-12" d="M125.82,228a21.45,21.45,0,0,1-4.17,5.45,30.05,30.05,0,0,1-11.62,7,21.51,21.51,0,0,1-6.77,1.13c1.87-1.39,3.74-2.54,5.6-3.69l5.53-3.35,5.56-3.32C121.83,230.1,123.72,229,125.82,228Z"/><path class="cls-12" d="M122.51,232a12.44,12.44,0,0,1-2.05,3.61,18,18,0,0,1-2.8,2.79,17.32,17.32,0,0,1-3.34,2.12,12.25,12.25,0,0,1-4,1.2,14.1,14.1,0,0,1,2.28-3.44,21.43,21.43,0,0,1,2.81-2.67,21.79,21.79,0,0,1,3.23-2.14A13.89,13.89,0,0,1,122.51,232Z"/><path class="cls-12" d="M121.54,225a63,63,0,0,1-9.2,5.15,58.79,58.79,0,0,1-10,3.55c-3.48.89-6.84,1.27-9.89,2.34a15.45,15.45,0,0,0-4.27,2.2A10.27,10.27,0,0,0,85,242,8.48,8.48,0,0,1,87,237a14.16,14.16,0,0,1,4.36-3.52c3.34-1.75,6.91-2.4,10.15-3.23s6.56-1.77,9.88-2.72S118,225.61,121.54,225Z"/><path class="cls-12" d="M116.32,227.9a22.06,22.06,0,0,1-7.2,5.55c-2.69,1.4-5.45,2.47-8.11,3.57a53.24,53.24,0,0,0-7.58,3.71,22,22,0,0,0-6.36,5.67,13.58,13.58,0,0,1,4.67-7.91,27.51,27.51,0,0,1,7.91-4.78c2.8-1.15,5.63-2,8.4-2.85A76.69,76.69,0,0,0,116.32,227.9Z"/><path class="cls-12" d="M115.69,233.16c-3.37,2.31-7.46,3.26-11.09,4.47a42.92,42.92,0,0,0-10.17,4.85A26,26,0,0,0,90.2,246a22.08,22.08,0,0,0-3.26,4.38,18.85,18.85,0,0,0-2.38,11,14.94,14.94,0,0,1-.14-12.15,19.12,19.12,0,0,1,3.26-5.47,23.44,23.44,0,0,1,4.75-4.21,30.71,30.71,0,0,1,11.48-4.58C107.93,234.17,111.77,234.08,115.69,233.16Z"/><path class="cls-12" d="M102.42,233.27c-2,1.55-4,2.92-5.89,4.36S92.81,240.51,91,242s-3.51,3.09-5.22,4.74l-5.22,5.12A20.47,20.47,0,0,1,83.65,245a27.51,27.51,0,0,1,5.06-5.66,27.92,27.92,0,0,1,6.4-4.08A21.09,21.09,0,0,1,102.42,233.27Z"/><path class="cls-12" d="M117.51,233.6a18,18,0,0,1-2.47,4.19,28.56,28.56,0,0,1-6.84,6.32,17.07,17.07,0,0,1-4.37,2.13,17.34,17.34,0,0,1,2.47-4.19,27.2,27.2,0,0,1,3.16-3.44,28,28,0,0,1,3.68-2.88A17.92,17.92,0,0,1,117.51,233.6Z"/><path class="cls-12" d="M114.22,234c-1.59.87-3,1.57-4.42,2.33s-2.71,1.49-4,2.29-2.57,1.63-3.86,2.53l-4.07,2.9a10.49,10.49,0,0,1,2.1-4.9,14.11,14.11,0,0,1,4-3.58,14.55,14.55,0,0,1,5-1.9A10.5,10.5,0,0,1,114.22,234Z"/><path class="cls-12" d="M118.4,230a55.66,55.66,0,0,1-6.33,6c-2.22,1.82-4.52,3.52-6.89,5.13a83.69,83.69,0,0,1-7.37,4.5,18,18,0,0,1-4.23,1.63,8.62,8.62,0,0,1-4.51-.05c2.89-.64,5-2.25,7.23-3.95s4.51-3.5,6.87-5.09,4.81-3.1,7.33-4.49A55.73,55.73,0,0,1,118.4,230Z"/><path class="cls-12" d="M82.29,260.76a14.45,14.45,0,0,1-.41,6.5,19.09,19.09,0,0,1-7.57,10.54,14,14,0,0,1-6,2.41c1.55-1.54,3-2.95,4.32-4.43a54.5,54.5,0,0,0,3.69-4.56,55.7,55.7,0,0,0,3.16-5C80.41,264.53,81.3,262.72,82.29,260.76Z"/><path class="cls-12" d="M82.63,263c-1.2,1.26-2.37,2.29-3.51,3.32l-3.37,3-3.37,3c-1.16,1-2.32,2.08-3.71,3.11a11.92,11.92,0,0,1,1.63-4.78,16.08,16.08,0,0,1,3.19-3.88,16.32,16.32,0,0,1,4.21-2.74A11.67,11.67,0,0,1,82.63,263Z"/><path class="cls-12" d="M77,261.45a10.11,10.11,0,0,1,.46,4.55,13.83,13.83,0,0,1-1.25,4.35,13.65,13.65,0,0,1-2.57,3.73,9.91,9.91,0,0,1-3.81,2.51,40.87,40.87,0,0,1,1.63-4l1.69-3.65,1.76-3.63A42.4,42.4,0,0,1,77,261.45Z"/><path class="cls-12" d="M70.88,262.15a34.72,34.72,0,0,1-.29,6.16c-.25,2-.6,4-1,5.92S68.64,278.12,68,280a33.79,33.79,0,0,1-2.3,5.73,25.52,25.52,0,0,1-.31-6.21,39.67,39.67,0,0,1,.84-6.05A40.14,40.14,0,0,1,68,267.66,25.8,25.8,0,0,1,70.88,262.15Z"/><path class="cls-12" d="M67.21,265.43c-.34,2.31-.78,4.47-1.14,6.62s-.71,4.25-1,6.38-.51,4.25-.71,6.42-.35,4.36-.64,6.68a19.56,19.56,0,0,1-2-6.62,26.73,26.73,0,0,1,1.82-13.62A19.94,19.94,0,0,1,67.21,265.43Z"/><path class="cls-12" d="M60.63,265.92a69.58,69.58,0,0,1,1.15,9.46c.2,3.15.25,6.3.2,9.45s-.23,6.29-.53,9.43a71.5,71.5,0,0,1-1.5,9.42,69.58,69.58,0,0,1-1.17-9.47q-.28-4.72-.19-9.44c.06-3.15.24-6.29.54-9.44A71.09,71.09,0,0,1,60.63,265.92Z"/><path class="cls-12" d="M54.41,266.56a40.46,40.46,0,0,1,1.33,7.2,69.44,69.44,0,0,1,.37,7.2q0,3.6-.36,7.2a41.41,41.41,0,0,1-1.34,7.2,41.38,41.38,0,0,1-1.33-7.2,71.2,71.2,0,0,1,0-14.4A41.35,41.35,0,0,1,54.41,266.56Z"/><path class="cls-12" d="M83.5,267.82a46.24,46.24,0,0,1,.26,9.55,65,65,0,0,1-1.35,9.42,64.73,64.73,0,0,1-2.7,9.14,46.06,46.06,0,0,1-4.22,8.57c.42-3.19,1.05-6.26,1.66-9.32l1.95-9.11,2-9.09C81.86,273.94,82.56,270.89,83.5,267.82Z"/><path class="cls-12" d="M83.15,278.08a53.79,53.79,0,0,1,1.33,8.26c.25,2.75.36,5.5.37,8.26s-.12,5.5-.37,8.26a52.48,52.48,0,0,1-1.33,8.25,53.66,53.66,0,0,1-1.33-8.25c-.25-2.76-.36-5.51-.36-8.26s.12-5.51.37-8.26A53.76,53.76,0,0,1,83.15,278.08Z"/><path class="cls-12" d="M80.48,274.41a38.37,38.37,0,0,1-1,6.91,64.8,64.8,0,0,1-1.92,6.6,61.3,61.3,0,0,1-2.6,6.35,36.76,36.76,0,0,1-3.51,6,36.43,36.43,0,0,1,1-6.91,65.49,65.49,0,0,1,4.52-13A37.83,37.83,0,0,1,80.48,274.41Z"/><path class="cls-12" d="M76.31,273.61a55.56,55.56,0,0,1-.58,8.1c-.36,2.66-.82,5.28-1.38,7.89s-1.21,5.2-2,7.77A56.93,56.93,0,0,1,69.57,305a46,46,0,0,1,.19-8.14,76.52,76.52,0,0,1,3.39-15.74A45.74,45.74,0,0,1,76.31,273.61Z"/><path class="cls-12" d="M70.31,283.88a32.29,32.29,0,0,1,.54,6.38,52.53,52.53,0,0,1-.41,6.27,52.23,52.23,0,0,1-1.13,6.17,32.47,32.47,0,0,1-2.09,6.06,31,31,0,0,1-.55-6.39,52.22,52.22,0,0,1,.41-6.26,52.81,52.81,0,0,1,1.14-6.18A31.44,31.44,0,0,1,70.31,283.88Z"/><path class="cls-12" d="M73.86,280.34c-5.43,2.8-8.68,7.66-10.7,12.88-.49,1.3-.87,2.66-1.26,4.08s-.77,2.77-1,4.14c-.56,2.72-.58,5.78-1.26,8.81a32,32,0,0,1-1.19-4.44,20,20,0,0,1-.43-4.68,24.46,24.46,0,0,1,.67-4.66A30.87,30.87,0,0,1,60.06,292a22.11,22.11,0,0,1,5.4-7.79A14.49,14.49,0,0,1,73.86,280.34Z"/><path class="cls-12" d="M74.81,277.57A38.9,38.9,0,0,1,73,286.09a53.5,53.5,0,0,1-3.34,8,52.46,52.46,0,0,1-4.58,7.38,39,39,0,0,1-6,6.36c1.08-2.77,2.46-5.2,3.7-7.76l3.83-7.53,3.9-7.49C71.91,282.57,73.24,280.06,74.81,277.57Z"/><path class="cls-12" d="M67.62,284.48a31.44,31.44,0,0,1,.87,7.51,43.57,43.57,0,0,1-.63,7.48A45.57,45.57,0,0,1,66,306.74a35.79,35.79,0,0,1-3.12,6.86,55.3,55.3,0,0,1,.53-7.47c.31-2.44.7-4.84,1.11-7.23s.84-4.77,1.32-7.17A71.4,71.4,0,0,1,67.62,284.48Z"/><path class="cls-12" d="M73,287.7a46.89,46.89,0,0,1,1.82,9,62.83,62.83,0,0,1,.28,9.2A62.43,62.43,0,0,1,74,315.08a48.91,48.91,0,0,1-2.56,8.86c-.22-3.11-.15-6.14-.09-9.16s.2-6,.34-9,.27-6,.44-9S72.49,290.77,73,287.7Z"/><path class="cls-12" d="M69.42,283.87c-1.18,1.78-1.34,3.59-2,5.61a10,10,0,0,1-1.6,3,19.46,19.46,0,0,1-2.33,2.2A6.37,6.37,0,0,0,62,296.54a10,10,0,0,0-.83,2.42c-.41,1.79-.52,3.81-.88,5.91a13.78,13.78,0,0,1-1.78-6.13,9.25,9.25,0,0,1,.54-3.47,7.84,7.84,0,0,1,2.1-3c.88-.77,1.67-1.29,2.21-1.82a12.19,12.19,0,0,0,1.6-2.07,24,24,0,0,1,1.8-2.55A5.75,5.75,0,0,1,69.42,283.87Z"/><path class="cls-12" d="M66.36,286.42a47.47,47.47,0,0,1,.13,6.05q-.09,2.94-.32,5.83c-.15,1.94-.34,3.87-.58,5.82a46.7,46.7,0,0,1-1.08,5.95,21,21,0,0,1-1.59-5.95,30.51,30.51,0,0,1,.95-12.07A21.09,21.09,0,0,1,66.36,286.42Z"/><path class="cls-12" d="M76.51,277a26.81,26.81,0,0,1-2.8,5.95,41.56,41.56,0,0,1-8.41,9.84,26.69,26.69,0,0,1-5.45,3.67,42.45,42.45,0,0,1,3.51-5.49c1.26-1.72,2.58-3.37,4-5s2.8-3.17,4.3-4.68A43.47,43.47,0,0,1,76.51,277Z"/><path class="cls-12" d="M76.91,285.76a39,39,0,0,1,1.32,7,65.14,65.14,0,0,1,.37,7,65.4,65.4,0,0,1-.36,7,38.91,38.91,0,0,1-1.33,7,38.08,38.08,0,0,1-1.34-7,68.13,68.13,0,0,1-.36-7,65.14,65.14,0,0,1,.37-7A38.15,38.15,0,0,1,76.91,285.76Z"/><path class="cls-12" d="M80.29,280c.42,3.77.57,7.48.74,11.19l.37,11.09c.1,3.69.2,7.38.26,11.09s.08,7.43-.15,11.22a71.13,71.13,0,0,1-2.51-11,95.61,95.61,0,0,1-1-11.22,93.92,93.92,0,0,1,.37-11.25A68.06,68.06,0,0,1,80.29,280Z"/><path class="cls-12" d="M83.8,296a51.23,51.23,0,0,1,1.3,8.06c.24,2.68.35,5.37.34,8.05,0,1.34,0,2.68-.1,4s-.19,2.65-.13,3.79a7.52,7.52,0,0,0,.09.83,3.38,3.38,0,0,0,.09.41l.12.52.45,1.94a16.25,16.25,0,0,0,.52,1.88,4.5,4.5,0,0,0,.38.87,1.28,1.28,0,0,0,.69.64,1.44,1.44,0,0,1-1-.28,4.81,4.81,0,0,1-.82-.74,12.92,12.92,0,0,1-1.26-1.73c-.36-.6-.69-1.22-1-1.81L83.2,322c-.08-.16-.17-.36-.25-.54a7.73,7.73,0,0,1-.37-1.12,21.2,21.2,0,0,1-.45-4.24c-.06-1.35-.08-2.69-.08-4q0-4,.4-8.05A51.06,51.06,0,0,1,83.8,296Z"/><path class="cls-12" d="M72.45,272.28a56,56,0,0,1-1,6c-.4,1.92-.84,3.81-1.28,5.69s-.92,3.76-1.42,5.66a56.82,56.82,0,0,1-1.81,5.77,19.76,19.76,0,0,1-.83-6.13,27.22,27.22,0,0,1,.76-6.09,27.62,27.62,0,0,1,2.08-5.77A19.61,19.61,0,0,1,72.45,272.28Z"/><path class="cls-12" d="M85,267.2a24.53,24.53,0,0,1-3.51,6.73,31.08,31.08,0,0,1-5.22,5.62,10.66,10.66,0,0,1-1.83,1.18,7.54,7.54,0,0,1-2.19.69,16.44,16.44,0,0,1-4,0,10.51,10.51,0,0,0-3.32.05,4.11,4.11,0,0,0-2.8,1.81,3.32,3.32,0,0,1,.6-1.91,5.57,5.57,0,0,1,1.55-1.43,9.23,9.23,0,0,1,3.92-1.19,24,24,0,0,0,3.4-.46,5,5,0,0,0,1.29-.51,8.77,8.77,0,0,0,1.25-.86c1.74-1.46,3.58-3.11,5.34-4.73S83.08,268.86,85,267.2Z"/><path class="cls-12" d="M112.25,266.49a7.47,7.47,0,0,1,1.17,2.3,8.58,8.58,0,0,1,.37,2.15,8,8,0,0,1-.2,2.16,7.51,7.51,0,0,1-1,2.39,5.15,5.15,0,0,1-1.67-2.09,6.36,6.36,0,0,1-.18-4.7A5.23,5.23,0,0,1,112.25,266.49Z"/><path class="cls-12" d="M115.32,268.4a9.47,9.47,0,0,1,1.33,3,13.21,13.21,0,0,1,.36,3,12.57,12.57,0,0,1-.36,3,9.08,9.08,0,0,1-1.33,3,8.88,8.88,0,0,1-1.33-3,12.09,12.09,0,0,1-.36-3,12.69,12.69,0,0,1,.36-3A9.26,9.26,0,0,1,115.32,268.4Z"/><path class="cls-12" d="M119.07,266.48a26,26,0,0,1,1.32,5.6,43.14,43.14,0,0,1,0,11.2,25.73,25.73,0,0,1-1.33,5.6,25.17,25.17,0,0,1-1.33-5.6,42,42,0,0,1-.37-5.6,44,44,0,0,1,.37-5.6A26,26,0,0,1,119.07,266.48Z"/><path class="cls-12" d="M122.19,270.32a8.46,8.46,0,0,1,1.33,2.88,11.37,11.37,0,0,1,.36,2.88,10.93,10.93,0,0,1-.36,2.88,8.27,8.27,0,0,1-1.33,2.88,8.46,8.46,0,0,1-1.33-2.88,10.93,10.93,0,0,1-.36-2.88,11.84,11.84,0,0,1,.36-2.88A8.65,8.65,0,0,1,122.19,270.32Z"/><path class="cls-12" d="M124.69,269a22.62,22.62,0,0,1,1.33,5.12,35.36,35.36,0,0,1,.36,5.12,33.82,33.82,0,0,1-.36,5.12,21.37,21.37,0,0,1-1.33,5.12,21.37,21.37,0,0,1-1.33-5.12,33.82,33.82,0,0,1-.36-5.12,35.36,35.36,0,0,1,.36-5.12A22.62,22.62,0,0,1,124.69,269Z"/><path class="cls-12" d="M129.06,268.4a7.87,7.87,0,0,1,1.33,2.72,10.67,10.67,0,0,1,.37,2.72,10.13,10.13,0,0,1-.37,2.72,7.54,7.54,0,0,1-1.33,2.72,7.71,7.71,0,0,1-1.33-2.72,10.12,10.12,0,0,1-.36-2.72,10.24,10.24,0,0,1,.37-2.72A7.84,7.84,0,0,1,129.06,268.4Z"/><path class="cls-12" d="M134.06,267.76a3.8,3.8,0,0,1,1.33,1.28,2.52,2.52,0,0,1,.36,1.28,2.37,2.37,0,0,1-.36,1.28,3.56,3.56,0,0,1-1.33,1.28,3.64,3.64,0,0,1-1.33-1.28,2.46,2.46,0,0,1-.36-1.28,2.62,2.62,0,0,1,.36-1.28A3.9,3.9,0,0,1,134.06,267.76Z"/><path class="cls-12" d="M131.56,266.48a9.26,9.26,0,0,1,1.33,3,13.23,13.23,0,0,1,.37,3,12.58,12.58,0,0,1-.37,3,8.88,8.88,0,0,1-1.33,3,9.08,9.08,0,0,1-1.33-3,12.57,12.57,0,0,1-.36-3,13.21,13.21,0,0,1,.36-3A9.47,9.47,0,0,1,131.56,266.48Z"/><path class="cls-12" d="M127.19,269.68a12.79,12.79,0,0,1,1.33,3.68,19.2,19.2,0,0,1,.36,3.68,18.29,18.29,0,0,1-.36,3.68,12.3,12.3,0,0,1-1.33,3.68,12,12,0,0,1-1.33-3.68,17.59,17.59,0,0,1-.36-3.68,18.43,18.43,0,0,1,.36-3.68A12.5,12.5,0,0,1,127.19,269.68Z"/><path class="cls-12" d="M117.12,269.69a13.08,13.08,0,0,1,1.54,4.33,18.62,18.62,0,0,1,.24,4.47,18.4,18.4,0,0,1-.84,4.4A12.71,12.71,0,0,1,116,287a22.33,22.33,0,0,1-.52-4.47c0-1.43,0-2.84.09-4.24s.25-2.8.48-4.22A23.43,23.43,0,0,1,117.12,269.69Z"/><path class="cls-12" d="M72.08,294.72a17.69,17.69,0,0,1,.83,5.93,22.37,22.37,0,0,1-.94,5.91A24.64,24.64,0,0,1,69.6,312,21.6,21.6,0,0,1,66,316.7a36.44,36.44,0,0,1,1.2-5.74c.51-1.83,1-3.6,1.58-5.37l1.55-5.33C70.82,298.46,71.33,296.62,72.08,294.72Z"/><path class="cls-12" d="M67.53,290.88a29.57,29.57,0,0,1,1.33,6,48.52,48.52,0,0,1,.37,6,50.77,50.77,0,0,1-.36,6,29.51,29.51,0,0,1-1.34,6,29.47,29.47,0,0,1-1.33-6,49.83,49.83,0,0,1,0-12A29.54,29.54,0,0,1,67.53,290.88Z"/><path class="cls-12" d="M73.3,296.6a18.59,18.59,0,0,1,2.58,5A22.38,22.38,0,0,1,77,307.15a21.24,21.24,0,0,1-.33,5.63,17.29,17.29,0,0,1-1.91,5.33,40.62,40.62,0,0,1-.75-5.48l-.39-5.24c-.12-1.73-.26-3.47-.35-5.25A36.64,36.64,0,0,1,73.3,296.6Z"/><path class="cls-12" d="M84.33,280a43,43,0,0,1,1.59,8.1,58.91,58.91,0,0,1,.29,8.19,60,60,0,0,1-.83,8.14,43.23,43.23,0,0,1-2.09,8,63.3,63.3,0,0,1-.56-8.18c0-2.7,0-5.38.09-8.06s.23-5.35.45-8A65.85,65.85,0,0,1,84.33,280Z"/><path class="cls-12" d="M79.56,274.89a17.83,17.83,0,0,1,.88,5.51,25.85,25.85,0,0,1-.54,5.48,25.16,25.16,0,0,1-1.67,5.24,17.7,17.7,0,0,1-3,4.71,36.83,36.83,0,0,1,.43-5.46c.25-1.75.56-3.47.92-5.18s.75-3.41,1.21-5.12A38.16,38.16,0,0,1,79.56,274.89Z"/><path class="cls-12" d="M79.43,264.64a37.78,37.78,0,0,1,1.28,10.15A48.07,48.07,0,0,1,79.55,285a47.51,47.51,0,0,1-3.28,9.74,37.06,37.06,0,0,1-5.49,8.65c1-3.28,2.08-6.42,3-9.59s1.75-6.34,2.47-9.53,1.31-6.42,1.81-9.68S79,268,79.43,264.64Z"/><path class="cls-12" d="M74.85,268.31a7,7,0,0,1-.23,3.71,11.84,11.84,0,0,1-1.78,3.35,26.55,26.55,0,0,1-5.26,5,36.52,36.52,0,0,0-4.91,4.3,10.34,10.34,0,0,0-2.88,5.79,6.32,6.32,0,0,1-.57-3.69,10,10,0,0,1,1.28-3.64,19,19,0,0,1,5-5.46c1.86-1.41,3.7-2.66,5.35-4.08A13.18,13.18,0,0,0,74.85,268.31Z"/><path class="cls-12" d="M83.82,277.44a70.37,70.37,0,0,1,1.29,9.39c.23,3.13.33,6.26.32,9.39s-.14,6.26-.4,9.38-.58,6,.5,9.06a9.51,9.51,0,0,1-2.38-4.26,25.11,25.11,0,0,1-.78-4.81c-.24-3.13-.34-6.26-.32-9.39s.14-6.25.4-9.38A68.88,68.88,0,0,1,83.82,277.44Z"/><path class="cls-12" d="M87.55,299.2a51,51,0,0,1,1.17,8.06q.28,4,.21,8t-.52,8a50,50,0,0,1-1.49,8,51,51,0,0,1-1.17-8.06c-.2-2.68-.26-5.36-.21-8s.22-5.36.52-8A51.14,51.14,0,0,1,87.55,299.2Z"/><path class="cls-12" d="M86.92,290.88a44.8,44.8,0,0,1,1.37,8.22,65.23,65.23,0,0,1,.13,8.27,68.28,68.28,0,0,1-.92,8.21,48.27,48.27,0,0,1-2.06,8.07,58.26,58.26,0,0,1-.59-8.28c0-2.74.05-5.46.19-8.17s.32-5.41.6-8.13A65.31,65.31,0,0,1,86.92,290.88Z"/><path class="cls-12" d="M91.9,297.28a33.91,33.91,0,0,1,1.33,6.4,54.92,54.92,0,0,1,.36,6.4,52.81,52.81,0,0,1-.36,6.4,33.14,33.14,0,0,1-1.33,6.4,32.41,32.41,0,0,1-1.33-6.4,52.81,52.81,0,0,1-.36-6.4,54.92,54.92,0,0,1,.36-6.4A33.14,33.14,0,0,1,91.9,297.28Z"/><path class="cls-12" d="M90,298.56a43.56,43.56,0,0,1,1.32,7.4,75.09,75.09,0,0,1,0,14.79,43.59,43.59,0,0,1-1.33,7.4,42.65,42.65,0,0,1-1.34-7.4q-.36-3.69-.36-7.4A73.14,73.14,0,0,1,88.7,306,42.62,42.62,0,0,1,90,298.56Z"/><path class="cls-12" d="M96.84,305A28.13,28.13,0,0,1,98,310.79a46.85,46.85,0,0,1,.2,5.8,43.57,43.57,0,0,1-.53,5.79,27.09,27.09,0,0,1-1.49,5.77A27.52,27.52,0,0,1,95,322.32a46.19,46.19,0,0,1,.33-11.59A27.73,27.73,0,0,1,96.84,305Z"/><path class="cls-12" d="M97.08,299.87a41.82,41.82,0,0,1,.36,6.36c0,2.09-.12,4.15-.29,6.2s-.4,4.1-.73,6.16A40.45,40.45,0,0,1,95,324.8a25.76,25.76,0,0,1-1.25-6.31,38.35,38.35,0,0,1,0-6.34,40.26,40.26,0,0,1,1-6.26A25.9,25.9,0,0,1,97.08,299.87Z"/><path class="cls-12" d="M103.2,301.76a50.84,50.84,0,0,1,1.21,7.73c.22,2.58.33,5.14.35,7.7s-.06,5.13-.26,7.7a48.29,48.29,0,0,1-1.13,7.75,45.12,45.12,0,0,1-1.53-7.69,69.88,69.88,0,0,1-.08-15.48A44.12,44.12,0,0,1,103.2,301.76Z"/><path class="cls-12" d="M107.52,308.8a28.24,28.24,0,0,1,1.33,5.8,46.88,46.88,0,0,1,.36,5.79,45,45,0,0,1-.36,5.8,27.6,27.6,0,0,1-1.33,5.8,27,27,0,0,1-1.33-5.8,43.32,43.32,0,0,1-.36-5.8,45,45,0,0,1,.36-5.79A27.6,27.6,0,0,1,107.52,308.8Z"/><path class="cls-12" d="M99.4,305a35.38,35.38,0,0,1,1.32,6.63,60.49,60.49,0,0,1,0,13.27,35.51,35.51,0,0,1-1.33,6.64,35.54,35.54,0,0,1-1.34-6.64,60.49,60.49,0,0,1,0-13.27A35.41,35.41,0,0,1,99.4,305Z"/><path class="cls-12" d="M30.86,234.56A54.52,54.52,0,0,1,32,242.91q.25,4.17.16,8.33t-.57,8.31A54.63,54.63,0,0,1,30,267.84a53.29,53.29,0,0,1-1.12-8.35q-.27-4.17-.16-8.33c.07-2.77.25-5.54.57-8.31A54.6,54.6,0,0,1,30.86,234.56Z"/><path class="cls-12" d="M20.75,210.24a46.75,46.75,0,0,1,1.18,7.7c.2,2.56.27,5.13.22,7.68s-.21,5.12-.51,7.68A46.89,46.89,0,0,1,20.17,241,45.7,45.7,0,0,1,19,233.24q-.3-3.84-.22-7.68t.52-7.67A46.69,46.69,0,0,1,20.75,210.24Z"/><path class="cls-12" d="M23.34,214.09c.51,3.29.74,6.54.95,9.79s.31,6.48.39,9.71.11,6.47.08,9.72-.13,6.51-.49,9.83a56.85,56.85,0,0,1-2.17-9.66,82.63,82.63,0,0,1-.8-9.81,85.07,85.07,0,0,1,.33-9.84A57.12,57.12,0,0,1,23.34,214.09Z"/><path class="cls-12" d="M107,306.88a29.44,29.44,0,0,1,1.17,6.2,47.28,47.28,0,0,1,.14,6.18,54.83,54.83,0,0,1-.58,6.12,31.73,31.73,0,0,1-1.49,6.12,29.44,29.44,0,0,1-1.17-6.2,45.59,45.59,0,0,1-.14-6.18,57.08,57.08,0,0,1,.59-6.12A32.44,32.44,0,0,1,107,306.88Z"/><path class="cls-12" d="M99.4,309.44a18.68,18.68,0,0,1,1.32,4.68,30.12,30.12,0,0,1,0,9.35,18.72,18.72,0,0,1-1.33,4.68,18.75,18.75,0,0,1-1.34-4.68,30.12,30.12,0,0,1,0-9.35A18.72,18.72,0,0,1,99.4,309.44Z"/><path class="cls-12" d="M94.78,308.84a14.61,14.61,0,0,1,1.8,5.18,15,15,0,0,1-.18,5.58,17.61,17.61,0,0,1-2.12,5.08,18.84,18.84,0,0,1-3.44,4.21,28.51,28.51,0,0,1,1-5.26c.45-1.65.9-3.23,1.26-4.79s.62-3.12.84-4.78S94.34,310.67,94.78,308.84Z"/><path class="cls-12" d="M77.68,303.7a26,26,0,0,1,1,5c.18,1.62.29,3.21.35,4.81s.08,3.19,0,4.83a25,25,0,0,1-.65,5,17.12,17.12,0,0,1-2-4.73,22.89,22.89,0,0,1-.75-5,22.5,22.5,0,0,1,.38-5.05A16.67,16.67,0,0,1,77.68,303.7Z"/><path class="cls-12" d="M111.27,310.08a23.53,23.53,0,0,1,1.32,5.32,38.88,38.88,0,0,1,0,10.63,23.56,23.56,0,0,1-1.33,5.32,23,23,0,0,1-1.33-5.32,38,38,0,0,1-.37-5.32,39.49,39.49,0,0,1,.37-5.31A23.56,23.56,0,0,1,111.27,310.08Z"/><path class="cls-12" d="M114.39,312.64a10.91,10.91,0,0,1,1.33,3.4,15.63,15.63,0,0,1,.36,3.39,15.06,15.06,0,0,1-.36,3.4,10.67,10.67,0,0,1-1.33,3.4,10.91,10.91,0,0,1-1.33-3.4,15.65,15.65,0,0,1-.36-3.4,16.28,16.28,0,0,1,.36-3.39A11.16,11.16,0,0,1,114.39,312.64Z"/><path class="cls-12" d="M116.9,312a14.35,14.35,0,0,1,1.32,4,22.55,22.55,0,0,1,.35,4,20.94,20.94,0,0,1-.38,4c-.13.65-.27,1.22-.36,1.8a2.62,2.62,0,0,0,.26,1.82,2.44,2.44,0,0,1-1.88-1.44,7.36,7.36,0,0,1-.68-2.19,21.73,21.73,0,0,1-.35-4,22.68,22.68,0,0,1,.38-4A14.68,14.68,0,0,1,116.9,312Z"/><path class="cls-12" d="M124.61,303.05a33.77,33.77,0,0,1,1.15,6.67,57,57,0,0,1,.13,6.66,63.47,63.47,0,0,1-.61,6.6,37.36,37.36,0,0,1-1.5,6.6,33.17,33.17,0,0,1-1.16-6.68,54.87,54.87,0,0,1-.12-6.66,63.73,63.73,0,0,1,.61-6.6A37.05,37.05,0,0,1,124.61,303.05Z"/><path class="cls-12" d="M121.39,306.88a39.62,39.62,0,0,1,1.21,7.67,48.68,48.68,0,0,1-.14,7.73,65.84,65.84,0,0,1-1.25,7.56,49.52,49.52,0,0,1-2.17,7.41,42,42,0,0,1-.47-7.73c.05-2.56.26-5.09.52-7.58s.52-5,.85-7.48A57.12,57.12,0,0,1,121.39,306.88Z"/><path class="cls-12" d="M119.81,306.3A34.92,34.92,0,0,1,120,314a49.89,49.89,0,0,1-1.28,7.54c-.59,2.44-1.26,4.82-2,7.22a64.91,64.91,0,0,1-2.46,7.23,34.34,34.34,0,0,1-.16-7.71,48.46,48.46,0,0,1,1.28-7.54c.6-2.45,1.26-4.82,2-7.23A67.53,67.53,0,0,1,119.81,306.3Z"/><path class="cls-12" d="M114.49,305.6a48,48,0,0,1,1,7.28c.18,2.42.23,4.84.2,7.25s-.1,4.8-.34,7.24a15.13,15.13,0,0,1-.34,1.93,4.4,4.4,0,0,1-.47,1.2,2.85,2.85,0,0,1-.93.94c-.54.34-1,.58-1.51.94s-1,.7-1.54,1.06a8.67,8.67,0,0,1,.62-1.84,9.79,9.79,0,0,1,1-1.66c.19-.25.2-.37.19-.47l0-.54-.09-1.67c-.1-2.39,0-4.83.09-7.24s.36-4.82.69-7.22A57.15,57.15,0,0,1,114.49,305.6Z"/><path class="cls-12" d="M110,315.84a19.68,19.68,0,0,1,1.19,4.93,28.05,28.05,0,0,1,.14,4.93,37.68,37.68,0,0,1-.59,4.83,20.76,20.76,0,0,1-1.46,4.84,19.18,19.18,0,0,1-1.2-4.93,28,28,0,0,1-.13-4.93,37.68,37.68,0,0,1,.59-4.83A21.25,21.25,0,0,1,110,315.84Z"/><path class="cls-12" d="M104.88,306.24a26.89,26.89,0,0,1,1.24,6.05,36.43,36.43,0,0,1,.08,6.09,46.05,46.05,0,0,1-.86,6,30.35,30.35,0,0,1-1.79,5.89,27.6,27.6,0,0,1-.86-6.11,52,52,0,0,1,.13-6c.14-2,.35-3.94.65-5.92A32.77,32.77,0,0,1,104.88,306.24Z"/><path class="cls-12" d="M61.56,253.78a44.92,44.92,0,0,1,1.32,7.52c.25,2.51.37,5,.37,7.52s-.11,5-.36,7.52a44.77,44.77,0,0,1-1.33,7.52,43.78,43.78,0,0,1-1.33-7.52q-.37-3.75-.37-7.52c0-2.51.12-5,.37-7.52A45,45,0,0,1,61.56,253.78Z"/><path class="cls-12" d="M57.77,257.05a26.94,26.94,0,0,1,1,5.8,46,46,0,0,1,0,5.75,45.83,45.83,0,0,1-.71,5.69,26.73,26.73,0,0,1-1.68,5.64,26.37,26.37,0,0,1-1-5.8,44,44,0,0,1,0-5.74,45.75,45.75,0,0,1,.71-5.7A26.91,26.91,0,0,1,57.77,257.05Z"/><path class="cls-12" d="M53.26,252.85a32,32,0,0,1,1.32,6.28,52.91,52.91,0,0,1,.37,6.28,52.77,52.77,0,0,1-.36,6.28A32.08,32.08,0,0,1,53.26,278a32.11,32.11,0,0,1-1.34-6.29,54.21,54.21,0,0,1,0-12.56A32,32,0,0,1,53.26,252.85Z"/><path class="cls-12" d="M49.53,253.78a19.7,19.7,0,0,1,.94,4.85,30.24,30.24,0,0,1,0,4.76,29.2,29.2,0,0,1-.74,4.71A19.11,19.11,0,0,1,48,272.73a19.09,19.09,0,0,1-.94-4.84,30.37,30.37,0,0,1,0-4.77,31.26,31.26,0,0,1,.74-4.7A19.33,19.33,0,0,1,49.53,253.78Z"/><path class="cls-12" d="M46.43,247.27a46.33,46.33,0,0,1,.44,6.48c0,2.12,0,4.22-.16,6.31s-.3,4.19-.55,6.3A43.39,43.39,0,0,1,45,272.74a26.12,26.12,0,0,1-1.49-6.39,36.92,36.92,0,0,1-.17-6.48,37.73,37.73,0,0,1,.9-6.42A25.79,25.79,0,0,1,46.43,247.27Z"/><path class="cls-12" d="M41.76,247.89a25,25,0,0,1,1.33,5.56,41.54,41.54,0,0,1,.37,5.56,43.25,43.25,0,0,1-.36,5.56,25.7,25.7,0,0,1-1.34,5.56,25.67,25.67,0,0,1-1.33-5.56,42.53,42.53,0,0,1,0-11.12A25.5,25.5,0,0,1,41.76,247.89Z"/><path class="cls-12" d="M49.5,259.67a37.85,37.85,0,0,1,1.12,5.75q.35,2.83.48,5.65c.1,1.88.13,3.76.09,5.66a37.14,37.14,0,0,1-.55,5.84,21.54,21.54,0,0,1-2.1-5.55,30.6,30.6,0,0,1-.82-5.79A31.62,31.62,0,0,1,48,265.4,21.36,21.36,0,0,1,49.5,259.67Z"/><path class="cls-12" d="M60.63,265.61a65,65,0,0,1,.14,8.12c-.09,2.68-.27,5.33-.52,8s-.57,5.29-1,7.94a67,67,0,0,1-1.68,8,41.6,41.6,0,0,1-1-8.12,62.44,62.44,0,0,1,.27-8.09,63.69,63.69,0,0,1,1.26-8A42.16,42.16,0,0,1,60.63,265.61Z"/><path class="cls-12" d="M56,258.37a15.86,15.86,0,0,1,1,4.35A25.51,25.51,0,0,1,57,267a24.3,24.3,0,0,1-.7,4.22,15.5,15.5,0,0,1-1.67,4.15,15.85,15.85,0,0,1-1-4.36,25.34,25.34,0,0,1,.68-8.5A16.23,16.23,0,0,1,56,258.37Z"/><path class="cls-12" d="M51.34,261.63a7.35,7.35,0,0,1,1.33,2.61,9.46,9.46,0,0,1,.36,2.62,9,9,0,0,1-.36,2.61,7.15,7.15,0,0,1-1.33,2.62A7.31,7.31,0,0,1,50,269.47a9.39,9.39,0,0,1-.36-2.61,9.85,9.85,0,0,1,.36-2.62A7.52,7.52,0,0,1,51.34,261.63Z"/><path class="cls-12" d="M126,310a31.33,31.33,0,0,1,1.33,6.21,53.89,53.89,0,0,1,.37,6.21,51.91,51.91,0,0,1-.37,6.22,30.63,30.63,0,0,1-1.33,6.21,31.33,31.33,0,0,1-1.33-6.21,51.89,51.89,0,0,1-.36-6.22,53.88,53.88,0,0,1,.36-6.21A32.05,32.05,0,0,1,126,310Z"/><path class="cls-12" d="M122.85,317.88a16.06,16.06,0,0,1,1.33,4.25,24.31,24.31,0,0,1,.36,4.25,23.45,23.45,0,0,1-.36,4.25,15.81,15.81,0,0,1-1.33,4.25,15.47,15.47,0,0,1-1.33-4.25,23.45,23.45,0,0,1-.36-4.25,24.31,24.31,0,0,1,.36-4.25A15.7,15.7,0,0,1,122.85,317.88Z"/><path class="cls-12" d="M101.15,310a38.56,38.56,0,0,1,1.32,6.94,64.34,64.34,0,0,1,.36,6.93,61.94,61.94,0,0,1-.38,6.94c-.13,1.15-.29,2.31-.5,3.47l-.17.82a2.44,2.44,0,0,0,0,.72,1.81,1.81,0,0,0,.17.71.51.51,0,0,0,.62.3.66.66,0,0,1-.43.22,1,1,0,0,1-.53-.14,2.37,2.37,0,0,1-.72-.76,3.13,3.13,0,0,1-.39-1l-.18-.92c-.22-1.15-.37-2.31-.5-3.47a66.07,66.07,0,0,1,0-13.87A38.49,38.49,0,0,1,101.15,310Z"/><path class="cls-12" d="M97.08,316.61a15.47,15.47,0,0,1,1.87,5.2,21.9,21.9,0,0,1,.26,5.48,21.4,21.4,0,0,1-1.12,5.37,15.37,15.37,0,0,1-2.68,4.84,47.59,47.59,0,0,1,.07-5.37c.09-1.73.21-3.42.35-5.11s.29-3.38.47-5.1A50.84,50.84,0,0,1,97.08,316.61Z"/><path class="cls-12" d="M94.6,316.6a11.11,11.11,0,0,1,1.74,4.31,15.11,15.11,0,0,1,.16,4.6A15.28,15.28,0,0,1,95.32,330a11,11,0,0,1-2.67,3.82,36.37,36.37,0,0,1,.09-4.48c.11-1.42.24-2.79.4-4.16s.33-2.75.55-4.15A34.27,34.27,0,0,1,94.6,316.6Z"/><path class="cls-12" d="M107.81,323.17a16.56,16.56,0,0,1,.52,4.27,26.31,26.31,0,0,1-.29,4.08,25.35,25.35,0,0,1-.89,4,16.59,16.59,0,0,1-1.74,3.94,13.6,13.6,0,0,1-.9-4.25,20,20,0,0,1,.18-4.17,20.48,20.48,0,0,1,1-4A13.48,13.48,0,0,1,107.81,323.17Z"/><path class="cls-12" d="M104.44,321.16a31.17,31.17,0,0,1,1,4.48c.23,1.44.4,2.86.55,4.28s.26,2.83.34,4.29a30.91,30.91,0,0,1-.07,4.59,12,12,0,0,1-2.53-4,16.88,16.88,0,0,1-1.11-4.53,17.33,17.33,0,0,1,.16-4.66A12.3,12.3,0,0,1,104.44,321.16Z"/><path class="cls-12" d="M125.94,228.44c.65,1.62,1.17,3.05,1.77,4.41s1.2,2.63,1.88,3.88a38.21,38.21,0,0,0,2.26,3.62,40.53,40.53,0,0,0,2.94,3.64,8,8,0,0,1-4.9-1.62,11.57,11.57,0,0,1-3.43-3.93,12.34,12.34,0,0,1-1.48-5A9.15,9.15,0,0,1,125.94,228.44Z"/><path class="cls-12" d="M127.72,225.23a24.78,24.78,0,0,1,9.44.08,68.58,68.58,0,0,1,9,2.4c1.43.47,2.92,1,4.28,1.4s2.84.78,4.32,1.17c2.94.78,6.11,1.66,8.71,3.5-3.12-.43-6.08-.49-9.18-.73a36.84,36.84,0,0,1-4.7-.65c-1.62-.37-3.05-.82-4.54-1.29-2.94-1-5.76-2.06-8.6-3.09S130.77,226.06,127.72,225.23Z"/><path class="cls-12" d="M127.62,228.08a16.44,16.44,0,0,0,1.89,4.33,20.6,20.6,0,0,0,2.64,3.41l3.24,3.35a19.68,19.68,0,0,1,3,4.12,19.81,19.81,0,0,1-4.76-1.9,16.13,16.13,0,0,1-4.14-3.14,10.72,10.72,0,0,1-2.63-4.84A7,7,0,0,1,127.62,228.08Z"/><path class="cls-12" d="M128,225.76a40.7,40.7,0,0,1,4.56,3.87q2.1,2,4,4.11c1.3,1.41,2.56,2.84,3.79,4.34a42.94,42.94,0,0,1,3.51,4.84,19.71,19.71,0,0,1-5.42-2.78,29.41,29.41,0,0,1-8.1-8.77A20.24,20.24,0,0,1,128,225.76Z"/><path class="cls-12" d="M131.88,227.47a26.14,26.14,0,0,1,5.83,2.42,40.4,40.4,0,0,1,5.18,3.38,41.76,41.76,0,0,1,4.62,4.11,26.16,26.16,0,0,1,3.85,5,32.31,32.31,0,0,1-5.61-2.81,60,60,0,0,1-9.69-7.42A33.11,33.11,0,0,1,131.88,227.47Z"/><path class="cls-12" d="M135.19,229.7a5.42,5.42,0,0,1,3.75-.73,10.66,10.66,0,0,1,3.67,1.31,20.65,20.65,0,0,1,3.07,2.13c.94.76,1.81,1.53,2.69,2.32a62.33,62.33,0,0,1,5,5.05,37.93,37.93,0,0,1,4.29,5.81,38.13,38.13,0,0,1-6.18-3.73,64.28,64.28,0,0,1-5.49-4.49c-.86-.8-1.73-1.63-2.54-2.45s-1.6-1.61-2.42-2.34a14.05,14.05,0,0,0-2.58-1.94A6.72,6.72,0,0,0,135.19,229.7Z"/><path class="cls-12" d="M147.58,234.69a4.76,4.76,0,0,1,3.44-1,9.26,9.26,0,0,1,3.49,1.09,22.79,22.79,0,0,1,5.39,4.26,18.93,18.93,0,0,1,3.95,5.7,9.3,9.3,0,0,1,.36,6.94,16.89,16.89,0,0,0-2.82-5.57,49.25,49.25,0,0,0-4.06-4.59c-1.49-1.51-2.91-3.09-4.38-4.42S149.92,234.63,147.58,234.69Z"/><path class="cls-12" d="M124.93,227.55a8.64,8.64,0,0,1-2.54,2.66,12,12,0,0,1-3.13,1.54,11.8,11.8,0,0,1-3.45.55,8.31,8.31,0,0,1-3.61-.73,13.24,13.24,0,0,1,3-2,19.42,19.42,0,0,1,3-1.23,20.32,20.32,0,0,1,3.17-.73A12.85,12.85,0,0,1,124.93,227.55Z"/><path class="cls-12" d="M114.87,227.86a31.67,31.67,0,0,1,6.46-1.41,51.75,51.75,0,0,1,6.46-.4c1.07,0,2.15,0,3.23.09a28.46,28.46,0,0,1,3.32.33,10,10,0,0,1,3.38,1.17,5,5,0,0,1,2.28,2.68c-1.93-1.25-3.83-1.17-5.83-1-1,.08-2.06.19-3.15.25s-2.15.1-3.23.1a56.09,56.09,0,0,1-6.46-.37A33.16,33.16,0,0,1,114.87,227.86Z"/><path class="cls-12" d="M125.35,226.3a22.15,22.15,0,0,1,4.17,2.84A38,38,0,0,1,133,232.5a36.87,36.87,0,0,1,3,3.78,20.86,20.86,0,0,1,2.41,4.43,16.9,16.9,0,0,1-4.43-2.48,25.53,25.53,0,0,1-3.63-3.33,26.45,26.45,0,0,1-3-3.94A17.48,17.48,0,0,1,125.35,226.3Z"/><path class="cls-12" d="M123.53,227.47a39.49,39.49,0,0,0-5.41,3.69c-1.68,1.31-3.36,2.7-5.19,4a23.89,23.89,0,0,1-6.13,3.24,9.51,9.51,0,0,1-7-.12,17.46,17.46,0,0,0,5.88-2.44c1.76-1.08,3.44-2.36,5.24-3.61a37.71,37.71,0,0,1,5.8-3.47A12.69,12.69,0,0,1,123.53,227.47Z"/><path class="cls-12" d="M121.77,230.46a20.8,20.8,0,0,1-4.7,2.29,33.89,33.89,0,0,1-4.89,1.29,32.25,32.25,0,0,1-5,.53,20.35,20.35,0,0,1-5.21-.47,20,20,0,0,1,4.7-2.29,32.64,32.64,0,0,1,4.89-1.29,33.5,33.5,0,0,1,5-.53A20.8,20.8,0,0,1,121.77,230.46Z"/><path class="cls-12" d="M132.19,229.91a16.43,16.43,0,0,1,5.25,2.1,23.17,23.17,0,0,1,4.39,3.43,23.58,23.58,0,0,1,3.47,4.36,16.69,16.69,0,0,1,2.16,5.21,38.17,38.17,0,0,1-4.33-3.42c-1.32-1.19-2.58-2.39-3.82-3.62s-2.44-2.48-3.64-3.79A42.61,42.61,0,0,1,132.19,229.91Z"/><path class="cls-12" d="M142.74,231.81a41.84,41.84,0,0,1,9.22,1c1.51.32,3,.71,4.48,1.16a21.88,21.88,0,0,1,4.51,1.87,14.47,14.47,0,0,1,2.11,1.5,13,13,0,0,1,1.77,2,13.64,13.64,0,0,1,2.16,4.58,12.78,12.78,0,0,1-1.06,9.44,18.57,18.57,0,0,0-1.6-8.52,14.06,14.06,0,0,0-2.16-3.4,10.93,10.93,0,0,0-3-2.46,29.66,29.66,0,0,0-3.84-1.77l-4.19-1.68C148.34,234.36,145.53,233.22,142.74,231.81Z"/><path class="cls-12" d="M149.08,233.1a13.29,13.29,0,0,1,7.86,2.34,17.58,17.58,0,0,1,5.68,6.22,19.26,19.26,0,0,1,2.3,8.05,16.28,16.28,0,0,1-1.45,8,46.63,46.63,0,0,0-1.33-7.6,30.86,30.86,0,0,0-2.65-6.76,25,25,0,0,0-4.31-5.75A25.89,25.89,0,0,0,149.08,233.1Z"/><path class="cls-12" d="M145.47,231.42a30.11,30.11,0,0,1,5.77,2.47,34.89,34.89,0,0,1,5.21,3.43,13.08,13.08,0,0,1,4.05,5.35,7.89,7.89,0,0,1-.16,6.56A13.32,13.32,0,0,0,158,244a22,22,0,0,0-3.83-3.9c-1.46-1.2-3.1-2.48-4.58-3.9A29,29,0,0,1,145.47,231.42Z"/><path class="cls-12" d="M144.83,228.6a19.58,19.58,0,0,1,6.66.34,28.14,28.14,0,0,1,11.85,5.73,20.82,20.82,0,0,1,4.43,5c-2.13-.78-4.05-1.7-6-2.6l-5.62-2.72-5.61-2.72C148.7,230.66,146.79,229.74,144.83,228.6Z"/><path class="cls-12" d="M107.22,319.46a60,60,0,0,1,1.32,5.93c.35,1.94.67,3.86,1,5.77s.6,3.84.87,5.79A60.21,60.21,0,0,1,111,343a19.11,19.11,0,0,1-3.16-5.35,27.48,27.48,0,0,1-1.93-12.12A19.73,19.73,0,0,1,107.22,319.46Z"/><path class="cls-12" d="M115.94,318.36a31.57,31.57,0,0,1,1.24,6.08,53.55,53.55,0,0,1,.36,6.06,56.12,56.12,0,0,1-.29,6.06,32.24,32.24,0,0,1-1.18,6.09,27.4,27.4,0,0,1-1.48-6,42.8,42.8,0,0,1-.43-6.09,46.09,46.09,0,0,1,.37-6.09A28.59,28.59,0,0,1,115.94,318.36Z"/><path class="cls-12" d="M112.13,325a12.35,12.35,0,0,1,1.33,3.72,19,19,0,0,1,.37,3.73,19.54,19.54,0,0,1-.36,3.72,12.34,12.34,0,0,1-1.34,3.73,12.58,12.58,0,0,1-1.33-3.73,19.19,19.19,0,0,1,0-7.45A12.59,12.59,0,0,1,112.13,325Z"/><path class="cls-12" d="M128.25,312.84a34.53,34.53,0,0,1,1.43,5.22c.35,1.72.63,3.42.86,5.13s.42,3.42.55,5.17a34.85,34.85,0,0,1,0,5.41,17.72,17.72,0,0,1-2.62-4.85,25.29,25.29,0,0,1-1.29-5.28,25.83,25.83,0,0,1-.16-5.42A17.56,17.56,0,0,1,128.25,312.84Z"/><path class="cls-12" d="M123.45,311.73a52.46,52.46,0,0,1,1.32,8.14q.38,4.08.37,8.14c0,2.72-.11,5.43-.36,8.14a52.11,52.11,0,0,1-1.33,8.14,51,51,0,0,1-1.33-8.14q-.37-4.06-.37-8.14c0-2.71.12-5.42.37-8.14A52.49,52.49,0,0,1,123.45,311.73Z"/><path class="cls-12" d="M122.3,322.78a13,13,0,0,1,1.61,4.43,17.9,17.9,0,0,1,.21,4.62,17.51,17.51,0,0,1-1,4.52,12.73,12.73,0,0,1-2.31,4.11,26.12,26.12,0,0,1-.31-4.58c0-1.47.08-2.9.2-4.33s.28-2.85.51-4.3A27.29,27.29,0,0,1,122.3,322.78Z"/><path class="cls-12" d="M222.3,210.71a13.45,13.45,0,0,1,1.32,3.87,20.59,20.59,0,0,1,0,7.72,13.48,13.48,0,0,1-1.33,3.87A13.52,13.52,0,0,1,221,222.3a20.93,20.93,0,0,1-.36-3.86,20.11,20.11,0,0,1,.37-3.86A13.19,13.19,0,0,1,222.3,210.71Z"/><path class="cls-12" d="M220,210.74a29.8,29.8,0,0,1,1,6.13,50.89,50.89,0,0,1-.65,12.16,29.58,29.58,0,0,1-1.65,6,29.53,29.53,0,0,1-1-6.15,50.51,50.51,0,0,1,.65-12.11A30.59,30.59,0,0,1,220,210.74Z"/><path class="cls-12" d="M218.8,219.57a45.36,45.36,0,0,1,1.33,7.45q.36,3.73.36,7.45a74.17,74.17,0,0,1-.36,7.45,44,44,0,0,1-1.33,7.45,43,43,0,0,1-1.33-7.45,71.32,71.32,0,0,1-.36-7.45,74.45,74.45,0,0,1,.36-7.45A44.33,44.33,0,0,1,218.8,219.57Z"/><path class="cls-12" d="M216.06,221.78a42.52,42.52,0,0,1,1.5,8.14,67.44,67.44,0,0,1-.48,16.39,43.14,43.14,0,0,1-2,8,66,66,0,0,1-.67-8.21c-.08-2.72-.07-5.41,0-8.11s.23-5.39.47-8.09A68.14,68.14,0,0,1,216.06,221.78Z"/><path class="cls-12" d="M213.92,231.71a38.64,38.64,0,0,1,1.32,7.93,58.74,58.74,0,0,1,0,8,57,57,0,0,1-1.06,7.9,39.51,39.51,0,0,1-2.35,7.68,67.07,67.07,0,0,1-.3-8c0-2.63.15-5.23.33-7.83s.41-5.2.71-7.8A71.13,71.13,0,0,1,213.92,231.71Z"/><path class="cls-12" d="M224.12,202.47a13.43,13.43,0,0,1,1.57,4.75,18.93,18.93,0,0,1,.09,4.93,19.26,19.26,0,0,1-1.16,4.79,13.54,13.54,0,0,1-2.58,4.29,33.06,33.06,0,0,1,0-4.87c.09-1.55.22-3.07.39-4.58s.37-3,.63-4.57A33.32,33.32,0,0,1,224.12,202.47Z"/><path class="cls-12" d="M210.43,238.89a23,23,0,0,1,1.65,8.67,52.2,52.2,0,0,1-.69,8.7c-.43,2.84-1,5.62-1.45,8.39s-.9,5.54-1.21,8.47a23.63,23.63,0,0,1-1.45-8.69,57.5,57.5,0,0,1,.76-8.67c.43-2.84,1-5.61,1.39-8.38S210.22,241.84,210.43,238.89Z"/><path class="cls-12" d="M208.56,247.72A37.47,37.47,0,0,1,210,254.9a59.86,59.86,0,0,1,.28,7.21,57.92,57.92,0,0,1-.59,7.19,36.75,36.75,0,0,1-1.7,7.11,45.27,45.27,0,0,1-1-7.22c-.15-2.4-.19-4.78-.14-7.16s.2-4.76.45-7.14A46.51,46.51,0,0,1,208.56,247.72Z"/><path class="cls-12" d="M202.64,253.79a47.22,47.22,0,0,1,1.32,7.72c.25,2.58.37,5.15.37,7.73s-.11,5.15-.36,7.73a47.25,47.25,0,0,1-1.33,7.72,46.21,46.21,0,0,1-1.33-7.72c-.25-2.58-.37-5.15-.37-7.73s.12-5.15.37-7.73A47.25,47.25,0,0,1,202.64,253.79Z"/><path class="cls-12" d="M206.48,247.17a75.06,75.06,0,0,1,1.16,9q.33,4.47.37,8.94t-.19,9a75,75,0,0,1-1,9,56.26,56.26,0,0,1-1.68-8.92c-.33-3-.5-6-.53-9a90,90,0,0,1,.36-9A56.44,56.44,0,0,1,206.48,247.17Z"/><path class="cls-12" d="M201.05,253.24a103.22,103.22,0,0,1,1.12,11.6c.2,3.87.23,7.74.17,11.61s-.24,7.73-.57,11.59a101.06,101.06,0,0,1-1.52,11.56A99.5,99.5,0,0,1,199.13,288c-.21-3.87-.24-7.73-.17-11.59s.24-7.72.57-11.58A101.82,101.82,0,0,1,201.05,253.24Z"/><path class="cls-12" d="M196.17,262.62a61,61,0,0,1,1.33,8.83c.25,2.94.36,5.88.37,8.83s-.12,5.88-.37,8.83a60,60,0,0,1-1.33,8.83,61.38,61.38,0,0,1-1.33-8.83c-.25-2.95-.36-5.89-.36-8.83s.12-5.89.37-8.83A62.34,62.34,0,0,1,196.17,262.62Z"/><path class="cls-12" d="M203.74,259.86a39.42,39.42,0,0,1,1.2,6.5q.34,3.22.4,6.44t-.16,6.46a38.57,38.57,0,0,1-1,6.54,29.69,29.69,0,0,1-1.69-6.42,46,46,0,0,1-.56-6.51,47.53,47.53,0,0,1,.32-6.53A30.44,30.44,0,0,1,203.74,259.86Z"/><path class="cls-12" d="M198.33,262.07a43.39,43.39,0,0,1,1.33,7.31c.24,2.44.36,4.87.36,7.31a71.41,71.41,0,0,1-.36,7.31,42.7,42.7,0,0,1-1.33,7.32A41.75,41.75,0,0,1,197,284a71.42,71.42,0,0,1-.37-7.31c0-2.44.12-4.87.37-7.31A42.41,42.41,0,0,1,198.33,262.07Z"/><path class="cls-12" d="M192.35,268.14a65.29,65.29,0,0,1,1.45,9.35q.4,4.68.37,9.38t-.48,9.37a64.08,64.08,0,0,1-1.55,9.34,73.69,73.69,0,0,1-1.11-9.39c-.19-3.12-.26-6.23-.24-9.34s.13-6.22.35-9.34A75.32,75.32,0,0,1,192.35,268.14Z"/><path class="cls-12" d="M192,269.28a48.15,48.15,0,0,1,2.09,7.13q.79,3.57,1.26,7.2a63.87,63.87,0,0,1,.54,7.33,38.17,38.17,0,0,1-.54,7.43,47.25,47.25,0,0,1-2.1-7.12q-.8-3.58-1.26-7.21a66,66,0,0,1-.53-7.32A37.45,37.45,0,0,1,192,269.28Z"/><path class="cls-12" d="M187,278.62a25.63,25.63,0,0,1,1.33,5.64,42.47,42.47,0,0,1,.37,5.63,44.34,44.34,0,0,1-.36,5.63,25.66,25.66,0,0,1-1.34,5.64,26.21,26.21,0,0,1-1.33-5.64,44.34,44.34,0,0,1-.36-5.63,42.47,42.47,0,0,1,.37-5.63A26.18,26.18,0,0,1,187,278.62Z"/><path class="cls-12" d="M189.71,272.55A64,64,0,0,1,191,281.5q.36,4.47.36,8.94c0,3-.11,6-.36,8.94a62.57,62.57,0,0,1-1.33,8.95,62.57,62.57,0,0,1-1.33-8.95q-.37-4.47-.36-8.94c0-3,.11-6,.36-8.94A62.57,62.57,0,0,1,189.71,272.55Z"/><path class="cls-12" d="M182.71,274.76A68.3,68.3,0,0,1,184,284c.25,3.08.37,6.17.37,9.25s-.11,6.16-.36,9.24a68.33,68.33,0,0,1-1.33,9.24,66.81,66.81,0,0,1-1.34-9.24q-.36-4.62-.36-9.24c0-3.08.12-6.17.37-9.25A66.78,66.78,0,0,1,182.71,274.76Z"/><path class="cls-12" d="M185.92,280.82a8.09,8.09,0,0,0,.89,2.07,20.58,20.58,0,0,1,1,2.13,19.48,19.48,0,0,1,1.08,4.63,33.59,33.59,0,0,1-.43,9.3c-.52,3.05-1.33,5.92-1.88,8.79a22,22,0,0,0-.23,8.75c-1.79-2.55-2.27-5.91-2.21-9a82.62,82.62,0,0,1,1-9.05c.41-2.92.76-5.81.92-8.7a36.81,36.81,0,0,0,0-4.33c-.05-.73-.11-1.46-.2-2.23A5.88,5.88,0,0,1,185.92,280.82Z"/><path class="cls-12" d="M178.93,282.49a96.62,96.62,0,0,1,1.33,11.17c.25,3.73.37,7.45.37,11.18s-.12,7.45-.36,11.17a96.82,96.82,0,0,1-1.34,11.18A96.79,96.79,0,0,1,177.6,316c-.25-3.72-.36-7.45-.36-11.17s.12-7.45.37-11.18A98.83,98.83,0,0,1,178.93,282.49Z"/><path class="cls-12" d="M184.76,292.51a66.07,66.07,0,0,1-.06,8c-.14,2.62-.35,5.21-.62,7.81s-.58,5.18-1,7.77a64.31,64.31,0,0,1-1.65,7.81,39.35,39.35,0,0,1-1-8,57.54,57.54,0,0,1,1.64-15.82A39.45,39.45,0,0,1,184.76,292.51Z"/><path class="cls-12" d="M181.4,289a27.82,27.82,0,0,1,.34,8c-.21,2.64-.62,5.22-1.05,7.75s-.89,5-1.22,7.52a67.87,67.87,0,0,0-.6,7.71,18.22,18.22,0,0,1-2.06-7.8,35.47,35.47,0,0,1,.54-8c.45-2.61,1.09-5.14,1.78-7.64S180.56,291.6,181.4,289Z"/><path class="cls-12" d="M187.08,286.9a22,22,0,0,1,1.12,7.15,29.66,29.66,0,0,1-.91,7.2,29.23,29.23,0,0,1-2.62,6.76,21.78,21.78,0,0,1-4.4,5.76c.61-2.37,1.3-4.58,1.94-6.78s1.24-4.38,1.8-6.57,1.06-4.4,1.55-6.64S186.49,289.27,187.08,286.9Z"/><path class="cls-12" d="M183.78,285.24a17,17,0,0,1,1.33,4.42,27.34,27.34,0,0,1,.37,4.41,26.28,26.28,0,0,1-.37,4.42,16.49,16.49,0,0,1-1.33,4.41,16.86,16.86,0,0,1-1.33-4.41,26.88,26.88,0,0,1,0-8.83A17,17,0,0,1,183.78,285.24Z"/><path class="cls-12" d="M177,288a67.32,67.32,0,0,1,1,9.3q.23,4.62.07,9.24t-.65,9.21a67.38,67.38,0,0,1-1.63,9.21,66.41,66.41,0,0,1-1-9.27c-.15-3.09-.16-6.18-.06-9.26s.31-6.17.66-9.24A68.07,68.07,0,0,1,177,288Z"/><path class="cls-12" d="M174,286.35a74.61,74.61,0,0,1,1.47,10.34q.39,5.19.35,10.37c0,3.46-.2,6.92-.53,10.37a74.47,74.47,0,0,1-1.65,10.31,93.79,93.79,0,0,1-1-10.37c-.16-3.45-.22-6.89-.19-10.34s.15-6.88.38-10.32A96.38,96.38,0,0,1,174,286.35Z"/><path class="cls-12" d="M170.41,293.53c.54,3.52.79,7,1,10.5s.38,7,.51,10.42.21,6.94.24,10.43,0,7-.33,10.55a67.68,67.68,0,0,1-2.33-10.34,95.2,95.2,0,0,1-1-10.52,93.25,93.25,0,0,1,.23-10.57A65.64,65.64,0,0,1,170.41,293.53Z"/><path class="cls-12" d="M170.32,295.73a42.73,42.73,0,0,1,1.32,7.31,73.48,73.48,0,0,1,0,14.63,42.76,42.76,0,0,1-1.33,7.31,41.84,41.84,0,0,1-1.34-7.31q-.36-3.66-.36-7.32A71.71,71.71,0,0,1,169,303,41.81,41.81,0,0,1,170.32,295.73Z"/><path class="cls-12" d="M163.85,298.49a55.61,55.61,0,0,1,1.33,8.42c.25,2.8.36,5.61.36,8.41s-.11,5.61-.36,8.42a54.45,54.45,0,0,1-1.33,8.41,55.68,55.68,0,0,1-1.33-8.41c-.25-2.81-.37-5.61-.36-8.42s.11-5.61.36-8.41A56.9,56.9,0,0,1,163.85,298.49Z"/><path class="cls-12" d="M163.85,297.94a64.84,64.84,0,0,1,1.33,9.1c.25,3,.36,6.07.36,9.11s-.11,6.07-.36,9.11a64.84,64.84,0,0,1-1.33,9.1,64.84,64.84,0,0,1-1.33-9.1q-.37-4.56-.36-9.11c0-3,.11-6.07.36-9.11A66.34,66.34,0,0,1,163.85,297.94Z"/><path class="cls-12" d="M168.73,297.39a73.61,73.61,0,0,1,1,9.76c.15,3.25.16,6.49.06,9.73s-.32,6.48-.67,9.71a73.27,73.27,0,0,1-1.63,9.68,73.63,73.63,0,0,1-1-9.76q-.21-4.87,0-9.73t.67-9.71A75.53,75.53,0,0,1,168.73,297.39Z"/><path class="cls-12" d="M162.23,300.7a33.17,33.17,0,0,1,1.33,6.48,56.35,56.35,0,0,1,.37,6.49,58.64,58.64,0,0,1-.36,6.48,34,34,0,0,1-1.34,6.48,33.92,33.92,0,0,1-1.33-6.48,57.79,57.79,0,0,1,0-13A33.89,33.89,0,0,1,162.23,300.7Z"/><path class="cls-12" d="M159,302.35a49,49,0,0,1,1.33,7.87c.25,2.62.36,5.24.37,7.86s-.12,5.24-.37,7.87a47.82,47.82,0,0,1-1.33,7.86,48.91,48.91,0,0,1-1.33-7.86c-.25-2.63-.36-5.25-.36-7.87s.12-5.24.37-7.86A49,49,0,0,1,159,302.35Z"/><path class="cls-12" d="M156.85,304.56a35.44,35.44,0,0,1,1.32,6.62,60.31,60.31,0,0,1,0,13.25,35.47,35.47,0,0,1-1.33,6.62,34.68,34.68,0,0,1-1.33-6.62,58.93,58.93,0,0,1-.37-6.63,61.34,61.34,0,0,1,.37-6.62A35.47,35.47,0,0,1,156.85,304.56Z"/><path class="cls-12" d="M152,306.77a48.35,48.35,0,0,1,1.33,7.72c.24,2.58.36,5.15.36,7.73a76.9,76.9,0,0,1-.36,7.73,47.25,47.25,0,0,1-1.33,7.72,46.21,46.21,0,0,1-1.33-7.72,76.9,76.9,0,0,1-.36-7.73c0-2.58.11-5.15.36-7.73A47.25,47.25,0,0,1,152,306.77Z"/><path class="cls-12" d="M132,344.85a66.12,66.12,0,0,1-1.23-8.87c-.22-3-.34-5.9-.38-8.84s0-5.91.1-8.79a24.88,24.88,0,0,0-.93-8.57,11.24,11.24,0,0,1,2.46,3.9,21.57,21.57,0,0,1,1.13,4.49,69.24,69.24,0,0,1,.63,8.93,87.84,87.84,0,0,1-.35,8.89A59,59,0,0,1,132,344.85Z"/><path class="cls-12" d="M129.91,339.33a48.47,48.47,0,0,1-1.33-7.73c-.24-2.57-.36-5.15-.36-7.72s.11-5.16.36-7.73a47.37,47.37,0,0,1,1.33-7.73,46.32,46.32,0,0,1,1.33,7.73q.38,3.86.37,7.73c0,2.57-.12,5.15-.37,7.72A47.37,47.37,0,0,1,129.91,339.33Z"/><path class="cls-12" d="M134.71,337.67a45.59,45.59,0,0,1-1.13-6.24c-.24-2.06-.41-4.1-.52-6.14s-.17-4.09-.15-6.16a43,43,0,0,1,.45-6.33,25,25,0,0,1,2.2,6,35.86,35.86,0,0,1,.88,6.27,37.34,37.34,0,0,1-.2,6.34A24.68,24.68,0,0,1,134.71,337.67Z"/><path class="cls-12" d="M127.17,339.88a28.78,28.78,0,0,1-1.19-5.4,52.94,52.94,0,0,1-.26-10.68,28,28,0,0,1,.94-5.44,20.84,20.84,0,0,1,1.72,5.29,32.08,32.08,0,0,1,.58,5.42,33.11,33.11,0,0,1-.32,5.44A21.17,21.17,0,0,1,127.17,339.88Z"/><path class="cls-12" d="M137.64,336.54a23.31,23.31,0,0,1-1.69-7.16,30.67,30.67,0,0,1,.26-7.35,42.3,42.3,0,0,1,1.83-7c.64-2.18,1.31-4.27.53-6.66a5.17,5.17,0,0,1,1.24,1.46,7.46,7.46,0,0,1,.68,1.85,12.52,12.52,0,0,1,.16,3.85c-.27,2.53-.77,4.71-1.09,7s-.67,4.56-1,6.88S138.05,334.09,137.64,336.54Z"/><path class="cls-12" d="M137.28,334.34c-.39-2.49-.64-4.87-1-7.23s-.65-4.67-1.06-7-.9-4.61-1.28-7a23.52,23.52,0,0,1-.16-7.45c1,2.32,1.88,4.51,2.74,6.78a38.77,38.77,0,0,1,2,7.13,30.32,30.32,0,0,1,.38,7.49A23.27,23.27,0,0,1,137.28,334.34Z"/><path class="cls-12" d="M141.6,335.45a80.08,80.08,0,0,1-.93-8.33c-.19-2.75-.31-5.49-.39-8.23s-.11-5.48-.08-8.24a79.49,79.49,0,0,1,.48-8.37,41.36,41.36,0,0,1,2.18,8.16,61.78,61.78,0,0,1,.46,16.74A40.82,40.82,0,0,1,141.6,335.45Z"/><path class="cls-12" d="M140.69,339.88a33.92,33.92,0,0,1-1.33-6.48,57.79,57.79,0,0,1,0-13,33.89,33.89,0,0,1,1.34-6.49,33.86,33.86,0,0,1,1.33,6.49,57.79,57.79,0,0,1,0,13A33.89,33.89,0,0,1,140.69,339.88Z"/><path class="cls-12" d="M145.84,338.75c-.45-2.73-.65-5.4-.83-8.06s-.28-5.3-.36-7.94-.12-5.29-.11-8,.07-5.34.36-8.09a36.43,36.43,0,0,1,2.29,7.86,53.62,53.62,0,0,1,.85,8.09,52.46,52.46,0,0,1-.38,8.12A36.31,36.31,0,0,1,145.84,338.75Z"/><path class="cls-12" d="M143.38,336.57a55.29,55.29,0,0,1-1.33-8.28c-.25-2.76-.36-5.52-.36-8.28s.11-5.52.36-8.28a52.91,52.91,0,0,1,1.33-8.27,52.91,52.91,0,0,1,1.33,8.27q.38,4.14.36,8.28c0,2.76-.11,5.52-.36,8.28A55.29,55.29,0,0,1,143.38,336.57Z"/><path class="cls-12" d="M149.82,336a50.57,50.57,0,0,1-1.3-8.1q-.36-4.07-.34-8.11t.38-8.1c.13-1.37.32-2.66.37-3.93a7.31,7.31,0,0,0-.69-3.8,6.06,6.06,0,0,1,2.34,3.58,23.13,23.13,0,0,1,.65,4.16c.24,2.7.34,5.4.33,8.1s-.13,5.4-.39,8.1A51.48,51.48,0,0,1,149.82,336Z"/><path class="cls-12" d="M155.72,331.6c-.51-2.51-.8-5-1.1-7.37l-.84-7.2-.79-7.22c-.24-2.42-.49-4.86-.55-7.42a28.18,28.18,0,0,1,3.16,6.88,39.52,39.52,0,0,1,1.67,14.92A28.37,28.37,0,0,1,155.72,331.6Z"/><path class="cls-12" d="M146.61,331.6a25.78,25.78,0,0,1-1.33-5.52,42.64,42.64,0,0,1-.36-5.52,40.79,40.79,0,0,1,.36-5.51,25.2,25.2,0,0,1,1.33-5.52,24.64,24.64,0,0,1,1.33,5.52,40.8,40.8,0,0,1,.37,5.51,42.65,42.65,0,0,1-.37,5.52A25.2,25.2,0,0,1,146.61,331.6Z"/><path class="cls-12" d="M79.35,266a9.76,9.76,0,0,1-.27,3.13,13.72,13.72,0,0,1-1,2.68,13.56,13.56,0,0,1-1.47,2.43,10.16,10.16,0,0,1-2.28,2.18,7.39,7.39,0,0,1-.18-3.21,10.21,10.21,0,0,1,2.54-5.33A7.43,7.43,0,0,1,79.35,266Z"/><path class="cls-12" d="M78.74,270.9a12.35,12.35,0,0,1,1.19,4.67A17.69,17.69,0,0,1,78,284.79a12.45,12.45,0,0,1-3,3.8,33.18,33.18,0,0,1,.45-4.65c.23-1.47.5-2.9.8-4.32s.63-2.84,1-4.28A33.19,33.19,0,0,1,78.74,270.9Z"/><path class="cls-12" d="M155.61,335.9a26.56,26.56,0,0,1-2.13-5.34,44.79,44.79,0,0,1-1.18-5.47,43.44,43.44,0,0,1-.46-5.59c0-.47,0-.94,0-1.41l0-.71a8.11,8.11,0,0,1,.08-.82,4.11,4.11,0,0,1,.58-1.56,2,2,0,0,1,.64-.61,1,1,0,0,1,.81-.06,1,1,0,0,0-.57,1,3.7,3.7,0,0,0,.2,1.18,5.92,5.92,0,0,0,.21.58l.23.67q.23.67.42,1.35a41.79,41.79,0,0,1,1.17,5.48,43.44,43.44,0,0,1,.46,5.59A26,26,0,0,1,155.61,335.9Z"/><path class="cls-12" d="M162.06,336.61a17.69,17.69,0,0,1-1.44-4.76,27.76,27.76,0,0,1,.08-9.62,17.76,17.76,0,0,1,1.53-4.73,21,21,0,0,1,1.13,4.82,37.06,37.06,0,0,1-.09,9.49A21.53,21.53,0,0,1,162.06,336.61Z"/><path class="cls-12" d="M149.66,339.79a19.47,19.47,0,0,1-1.62-4.36,34.94,34.94,0,0,1-.81-4.37,34.32,34.32,0,0,1-.23-4.43,19.79,19.79,0,0,1,.57-4.62,15.36,15.36,0,0,1,2.06,4.21,22.88,22.88,0,0,1,1,4.44,23.83,23.83,0,0,1,.09,4.55A15.84,15.84,0,0,1,149.66,339.79Z"/><path class="cls-12" d="M137.79,341.7a40.91,40.91,0,0,1-1.32-7.16,70.31,70.31,0,0,1,0-14.31,40.94,40.94,0,0,1,1.33-7.16,41,41,0,0,1,1.34,7.16,70.31,70.31,0,0,1,0,14.31A40.94,40.94,0,0,1,137.79,341.7Z"/><path class="cls-12" d="M165.74,323.89a42.76,42.76,0,0,1-1.33-7.31,74.5,74.5,0,0,1,0-14.63c.13-1.22.29-2.44.5-3.66l.17-.91a4.93,4.93,0,0,1,.27-1,1,1,0,0,1,1.09-.71.74.74,0,0,1,.45.41.34.34,0,0,1-.12.48c.15-.3-.26-.44-.4-.38s-.14.22-.11.43c0,.43.21,1.12.31,1.71.22,1.22.37,2.44.5,3.66a73.38,73.38,0,0,1,0,14.62A42.67,42.67,0,0,1,165.74,323.89Z"/><path class="cls-12" d="M221.15,206.87c.43,2.41.64,4.75.87,7.07l.58,6.9.51,6.91c.15,2.32.3,4.66.26,7.12a25.5,25.5,0,0,1-2.88-6.66,36.81,36.81,0,0,1-1.13-14.32A26.55,26.55,0,0,1,221.15,206.87Z"/><path class="cls-12" d="M167.18,264.13a47.87,47.87,0,0,1-.12,7.86q-.34,3.88-1.07,7.71t-1.78,7.57a47.2,47.2,0,0,1-2.73,7.38,48.19,48.19,0,0,1,.11-7.89q.36-3.88,1.07-7.68c.48-2.54,1.07-5.06,1.79-7.55A47.53,47.53,0,0,1,167.18,264.13Z"/><path class="cls-12" d="M163.87,266.64a121.87,121.87,0,0,1,1.32,12.72c.27,4.24.37,8.48.37,12.72s-.1,8.48-.37,12.72a116.88,116.88,0,0,1-1.32,12.73,122.06,122.06,0,0,1-1.32-12.73c-.27-4.24-.37-8.48-.37-12.72s.11-8.48.38-12.72A119.2,119.2,0,0,1,163.87,266.64Z"/><path class="cls-12" d="M163.87,284.45a26,26,0,0,1,1,7.51,17.54,17.54,0,0,1-1.81,7.67,32.91,32.91,0,0,1-4.56,6c-1.51,1.8-2.92,3.54-3.22,6.11a6.24,6.24,0,0,1-.41-3.9,12.88,12.88,0,0,1,1.43-3.71c1.24-2.25,2.76-4.17,3.75-6.1a26.38,26.38,0,0,0,2.18-6.42C162.78,289.34,163.16,286.91,163.87,284.45Z"/><path class="cls-12" d="M157.69,295.9a67.56,67.56,0,0,1,1.12,8c.23,2.64.38,5.27.48,7.9s.13,5.26.09,7.91a68.72,68.72,0,0,1-.55,8,39.54,39.54,0,0,1-2.11-7.82,61.5,61.5,0,0,1-.57-16A40.56,40.56,0,0,1,157.69,295.9Z"/><path class="cls-12" d="M160.72,295.26a45.68,45.68,0,0,1,1.49,8.11,73,73,0,0,1-.21,16.28,45.43,45.43,0,0,1-1.72,8.06,61.91,61.91,0,0,1-.95-8.15q-.22-4.05-.16-8.09c0-2.69.16-5.38.39-8.08A62.16,62.16,0,0,1,160.72,295.26Z"/><path class="cls-12" d="M108.61,306.71a48.26,48.26,0,0,1,1.33,7.79c.25,2.6.36,5.2.36,7.8s-.11,5.19-.36,7.79a47,47,0,0,1-1.33,7.79,48.08,48.08,0,0,1-1.33-7.79c-.25-2.6-.36-5.2-.36-7.79s.12-5.2.36-7.8A49.39,49.39,0,0,1,108.61,306.71Z"/><path class="cls-12" d="M137.79,306.71a27,27,0,0,1,1.33,5.73,45.08,45.08,0,0,1,0,11.45,27.07,27.07,0,0,1-1.34,5.72,27,27,0,0,1-1.33-5.72,45.08,45.08,0,0,1,0-11.45A27,27,0,0,1,137.79,306.71Z"/><path class="cls-12" d="M127.86,309.26a43.39,43.39,0,0,1,1.33,7.31q.36,3.66.36,7.32a68.94,68.94,0,0,1-.36,7.31,42.7,42.7,0,0,1-1.33,7.32,41.75,41.75,0,0,1-1.33-7.32,68.94,68.94,0,0,1-.36-7.31,71.75,71.75,0,0,1,.36-7.32A42.41,42.41,0,0,1,127.86,309.26Z"/><path class="cls-12" d="M146.49,304.8a24.39,24.39,0,0,1,1.32,5.41,40.2,40.2,0,0,1,0,10.81,24.16,24.16,0,0,1-1.33,5.41,24.19,24.19,0,0,1-1.34-5.41,40.2,40.2,0,0,1,0-10.81A24.42,24.42,0,0,1,146.49,304.8Z"/><path class="cls-12" d="M170.12,269.82a129.81,129.81,0,0,1,1.31,15.48q.23,7.76-.17,15.51c-.26,5.16-.76,10.32-1.45,15.44a126.33,126.33,0,0,1-2.92,15.26c-.08-5.2.09-10.35.29-15.49s.42-10.26.7-15.39.57-10.25.91-15.38S169.5,275,170.12,269.82Z"/><path class="cls-12" d="M167.6,279.36a70.55,70.55,0,0,1,1.32,9.38q.38,4.69.37,9.39c0,3.12-.11,6.25-.36,9.38a69,69,0,0,1-1.33,9.38,67.44,67.44,0,0,1-1.33-9.38q-.37-4.69-.37-9.38c0-3.13.12-6.26.37-9.39A69,69,0,0,1,167.6,279.36Z"/><path class="cls-12" d="M175.4,272.42c.14,4,0,7.94-.25,11.87s-.56,7.85-1,11.76-.89,7.81-1.5,11.7-1.25,7.79-2.22,11.67a89.49,89.49,0,0,1-.41-11.9c.07-3.95.35-7.9.76-11.83s1-7.84,1.72-11.72A89.75,89.75,0,0,1,175.4,272.42Z"/><path class="cls-12" d="M173.8,273a46.25,46.25,0,0,1,1.17,7.66c.2,2.55.26,5.1.21,7.64a75.19,75.19,0,0,1-.51,7.63,45.36,45.36,0,0,1-1.49,7.6,45.23,45.23,0,0,1-1.17-7.66,75,75,0,0,1-.21-7.64q.07-3.81.52-7.62A46.26,46.26,0,0,1,173.8,273Z"/><path class="cls-12" d="M176.91,277.45a62.24,62.24,0,0,1,1.33,8.91c.25,3,.36,5.93.36,8.9s-.11,5.94-.36,8.91a62.11,62.11,0,0,1-1.33,8.9,62.11,62.11,0,0,1-1.33-8.9q-.37-4.46-.36-8.91c0-3,.12-5.93.36-8.9A63.69,63.69,0,0,1,176.91,277.45Z"/><path class="cls-12" d="M181.26,276.82a11.3,11.3,0,0,1,1.32,3.5,16.92,16.92,0,0,1,0,7,11.43,11.43,0,0,1-1.33,3.5,11.18,11.18,0,0,1-1.33-3.5,16.58,16.58,0,0,1-.37-3.5,17.25,17.25,0,0,1,.37-3.49A11.33,11.33,0,0,1,181.26,276.82Z"/><path class="cls-12" d="M185.6,272.36a32.25,32.25,0,0,1,1.39,6.69,50.37,50.37,0,0,1,.29,6.72,52.1,52.1,0,0,1-.59,6.7,32.82,32.82,0,0,1-1.71,6.61,41.64,41.64,0,0,1-1-6.73q-.21-3.35-.13-6.66c.05-2.22.2-4.43.45-6.65A41,41,0,0,1,185.6,272.36Z"/><path class="cls-12" d="M179.39,281.91a23.67,23.67,0,0,1,1.33,5.4,39.34,39.34,0,0,1,.37,5.41,41.08,41.08,0,0,1-.36,5.41,24.24,24.24,0,0,1-1.34,5.4,24.21,24.21,0,0,1-1.33-5.4,40.28,40.28,0,0,1,0-10.82A24.18,24.18,0,0,1,179.39,281.91Z"/><path class="cls-12" d="M167.37,272.45c0,3.32-.17,6.56-.38,9.78s-.49,6.43-.79,9.64-.62,6.4-1,9.61-.78,6.43-1.45,9.69a53.37,53.37,0,0,1-1.21-9.79,76.86,76.86,0,0,1,1.83-19.53A52.44,52.44,0,0,1,167.37,272.45Z"/><path class="cls-12" d="M168.84,272.36a43.69,43.69,0,0,1,1.33,7.32q.36,3.66.36,7.31a71.75,71.75,0,0,1-.36,7.32,42.41,42.41,0,0,1-1.33,7.31,41.48,41.48,0,0,1-1.33-7.31,69,69,0,0,1-.36-7.32,71.69,71.69,0,0,1,.36-7.31A42.7,42.7,0,0,1,168.84,272.36Z"/><path class="cls-12" d="M190.65,271.1c.5,2.43.74,4.8,1,7.12s.53,4.61.86,6.89l1.06,6.89a54.06,54.06,0,0,1,.7,7.19,32.35,32.35,0,0,1-3.27-6.52,34.13,34.13,0,0,1-1.84-7.08,31.19,31.19,0,0,1-.17-7.35A27.12,27.12,0,0,1,190.65,271.1Z"/><path class="cls-12" d="M180.64,277.45a28.36,28.36,0,0,1,1.32,5.89,47.54,47.54,0,0,1,0,11.76,28.25,28.25,0,0,1-1.33,5.89,28.28,28.28,0,0,1-1.34-5.89,47.54,47.54,0,0,1,0-11.76A28.39,28.39,0,0,1,180.64,277.45Z"/><path class="cls-12" d="M212.3,228.47a39.4,39.4,0,0,1,1.33,7,68.39,68.39,0,0,1,.37,7,65.79,65.79,0,0,1-.37,7,38.26,38.26,0,0,1-1.33,7,39.12,39.12,0,0,1-1.33-7,67.31,67.31,0,0,1,0-14A39.36,39.36,0,0,1,212.3,228.47Z"/><path class="cls-12" d="M208.58,241.2A19.33,19.33,0,0,1,209.9,246a31.35,31.35,0,0,1,0,9.54,19.36,19.36,0,0,1-1.33,4.77,18.93,18.93,0,0,1-1.33-4.77,30.66,30.66,0,0,1-.37-4.77,31.93,31.93,0,0,1,.37-4.77A19.36,19.36,0,0,1,208.58,241.2Z"/><path class="cls-12" d="M204.23,245.65a46.21,46.21,0,0,1,1.33,7.63c.25,2.55.36,5.09.36,7.63a75.13,75.13,0,0,1-.36,7.64,45.18,45.18,0,0,1-1.33,7.63,46.21,46.21,0,0,1-1.33-7.63,75.13,75.13,0,0,1-.36-7.64q0-3.81.36-7.63A47.28,47.28,0,0,1,204.23,245.65Z"/><path class="cls-12" d="M196.78,255.19a41.89,41.89,0,0,1,1.33,7.16,68.47,68.47,0,0,1,.36,7.15,66,66,0,0,1-.36,7.16,39.93,39.93,0,0,1-1.33,7.15,39.93,39.93,0,0,1-1.33-7.15,66,66,0,0,1-.36-7.16,68.47,68.47,0,0,1,.36-7.15A41.89,41.89,0,0,1,196.78,255.19Z"/><path class="cls-12" d="M192.43,261.55a50,50,0,0,1,1.33,7.95c.25,2.65.36,5.3.37,7.95s-.12,5.3-.36,7.95a50,50,0,0,1-1.34,8,50,50,0,0,1-1.33-8c-.25-2.65-.36-5.3-.36-7.95s.12-5.3.37-7.95A50,50,0,0,1,192.43,261.55Z"/><path class="cls-12" d="M186.22,267.91a64.21,64.21,0,0,1,1.33,9.07q.38,4.53.37,9.06t-.36,9.06a64.24,64.24,0,0,1-1.34,9.07,64.21,64.21,0,0,1-1.33-9.07c-.25-3-.36-6-.36-9.06s.12-6,.37-9.06A65.66,65.66,0,0,1,186.22,267.91Z"/><path class="cls-12" d="M179.65,266.23a54,54,0,0,1,1.07,7.33c.21,2.43.32,4.85.36,7.27s0,4.84-.12,7.27a52.19,52.19,0,0,1-.84,7.36,36.31,36.31,0,0,1-1.82-7.23,53.3,53.3,0,0,1-.6-7.35,55,55,0,0,1,.37-7.36A35.19,35.19,0,0,1,179.65,266.23Z"/><path class="cls-12" d="M182.71,264.06a52.12,52.12,0,0,1,1.33,8.11q.38,4.06.37,8.11t-.36,8.11a52,52,0,0,1-1.34,8.11,51.93,51.93,0,0,1-1.33-8.11c-.25-2.7-.36-5.4-.36-8.11s.12-5.4.37-8.11A52.09,52.09,0,0,1,182.71,264.06Z"/><path class="cls-12" d="M190.1,260.82a15.85,15.85,0,0,1,1.34,5,23.49,23.49,0,0,1,0,5,22.56,22.56,0,0,1-1.09,4.92,15.35,15.35,0,0,1-2.37,4.55,28.93,28.93,0,0,1-.25-5c0-1.62.16-3.22.34-4.8s.4-3.17.71-4.77A29.09,29.09,0,0,1,190.1,260.82Z"/><path class="cls-12" d="M175.65,268.53a73.85,73.85,0,0,1-1.58,7.78q-1,3.79-2.06,7.51c-.73,2.49-1.51,5-2.36,7.43a74.4,74.4,0,0,1-2.91,7.39,36.25,36.25,0,0,1,.32-8,54.38,54.38,0,0,1,1.7-7.77,55.16,55.16,0,0,1,2.81-7.44A36.74,36.74,0,0,1,175.65,268.53Z"/><path class="cls-13" d="M104.5,163C99.89,173,94,184.28,88.21,188c-4.76,3.09-14.84,5-26.32,5h0c-14.73,0-28.46-3.11-35.82-8.13-2.23-1.52-5.78-6.26-8.42-14.6A71.89,71.89,0,0,1,15,141.75c1.06-10.25,4.65-16.58,11.61-20.51s17.52-5.71,34.14-5.71a218.2,218.2,0,0,1,40.75,3.83l2.29.39c5.37,1,8.3,2.12,9.6,8.51,1.48,7.24-8.85,34.69-8.85,34.69Z"/></g></g></g></svg>