<svg xmlns="http://www.w3.org/2000/svg" xmlns:xlink="http://www.w3.org/1999/xlink" viewBox="0 0 879.37 1228.86"><defs><style>.cls-1{fill:none;}.cls-2{isolation:isolate;}.cls-3{fill:#8a8a8a;}.cls-4{fill:#a8a8a8;}.cls-20,.cls-5,.cls-7,.cls-9{fill:#757575;}.cls-5{opacity:0.32;}.cls-10,.cls-6{opacity:0.11;}.cls-10,.cls-20,.cls-21,.cls-6{mix-blend-mode:multiply;}.cls-8{fill:#231f20;}.cls-9{opacity:0.53;}.cls-10{fill:#878787;}.cls-11{fill:#dedede;}.cls-12{clip-path:url(#clip-path);}.cls-13,.cls-21{fill:#696969;}.cls-14{fill:#919191;}.cls-15{fill:#d9d9d9;}.cls-16{fill:#bfbfbf;}.cls-17{fill:#787878;}.cls-18{fill:#b5b5b5;}.cls-19{clip-path:url(#clip-path-2);}.cls-20{opacity:0.57;}.cls-21{opacity:0.25;}.cls-22{fill:url(#linear-gradient);}.cls-23{fill:url(#linear-gradient-2);}.cls-24{fill:url(#linear-gradient-3);}.cls-25{fill:url(#linear-gradient-4);}.cls-26{fill:#cfcf9c;}</style><clipPath id="clip-path"><path class="cls-1" d="M329.65,556.51c-15.8,4.74-36.75,17.67-63.6,16.25S209.52,561.46,206,560s4.13-10.17,17.66-19.08c12.68-8.34,23.32-15.54,46.64-15.54s55.12,23.32,58.65,25.44S336.71,554.39,329.65,556.51Z"/></clipPath><clipPath id="clip-path-2"><path class="cls-1" d="M607.08,524.39c-22.26-2.72-30.74,2.56-43.55,11.53s-16.66,15.37-12.81,19.21,26.26,20.5,64,18.58,48.68-10.25,55.09-13.45,5-8.89-8.47-16.26S632.64,527.51,607.08,524.39Z"/></clipPath><linearGradient id="linear-gradient" x1="93.75" y1="660.46" x2="356.06" y2="398.16" gradientUnits="userSpaceOnUse"><stop offset="0" stop-color="#fff" stop-opacity="0"/><stop offset="0.15" stop-color="#fff" stop-opacity="0.01"/><stop offset="0.28" stop-color="#fff" stop-opacity="0.05"/><stop offset="0.4" stop-color="#fff" stop-opacity="0.12"/><stop offset="0.52" stop-color="#fff" stop-opacity="0.22"/><stop offset="0.63" stop-color="#fff" stop-opacity="0.34"/><stop offset="0.74" stop-color="#fff" stop-opacity="0.5"/><stop offset="0.85" stop-color="#fff" stop-opacity="0.68"/><stop offset="0.95" stop-color="#fff" stop-opacity="0.88"/><stop offset="1" stop-color="#fff"/></linearGradient><linearGradient id="linear-gradient-2" x1="231.73" y1="686.78" x2="231.73" y2="413.54" xlink:href="#linear-gradient"/><linearGradient id="linear-gradient-3" x1="183.61" y1="679.24" x2="183.61" y2="411.7" xlink:href="#linear-gradient"/><linearGradient id="linear-gradient-4" x1="541.04" y1="645.17" x2="772.76" y2="413.45" xlink:href="#linear-gradient"/></defs><title>VV_pea_1</title><g class="cls-2"><g id="Layer_2" data-name="Layer 2"><g id="Layer_1-2" data-name="Layer 1"><path class="cls-3" d="M831.37,579.92s18.41-21.84,22.25-23.78,23.57,18.38,25.64,25.85-23.58,94.31-36.66,122.7,6.94,65.61-2.42,84.55-38.46,17.56-38.46,17.56L775.4,741.52Z"/><path class="cls-3" d="M48.15,580.93s-16.77-23.12-20.46-25.34S2.85,572.2.24,579.5s16.64,95.77,27.62,125-11.71,64.93-3.75,84.51,37.08,20.31,37.08,20.31l31-63.18Z"/><path class="cls-4" d="M827.17,405.75c.16,450.54-135.77,724.65-387.58,724.65S50.34,916,51.64,430.8C52.29,190.1,227.9-3.21,439.73,0,651.86,3.3,827.07,143.12,827.17,405.75Z"/><path class="cls-5" d="M486.28,542.8s-20.09-61.58-23-126.36,274.15-64.78,300,56.51-94.73,150.24-139.23,142S538,612.64,486.28,542.8Z"/><path class="cls-5" d="M383.46,549.4S403.22,486.35,406,420s-269.58-66.34-295,57.87S204.21,631.72,248,623.26,332.65,620.92,383.46,549.4Z"/><path class="cls-6" d="M669,97.56S834.51,231.24,808.56,478.28,740.28,775.09,701.26,815.7s-76.24,119.45-104,188-111.95,81.22-157.63,81.22-116.41-22.85-135.92-35.54-24.88-86.45-98-175.28-92.18-109-116.57-235.9-30.34-335,61-456.86-9.94-36.2-59.51,91.89-30,329,6.84,480.35C117,834,149.08,919.82,174.84,982.64c64.35,100.41,152.78,147.76,264.83,147.76,105.31,0,183.86-49.12,243.18-142.33,9.62-32.53,22.34-73.41,31.67-95.75,17.09-40.92,76.23-174.9,96.8-334.74S832,226.12,669,97.56Z"/><path class="cls-7" d="M497.87,926.23c-2.43,1-4.89,1.91-7.35,2.71s-4.92,1.5-7.39,2.18-5,1.25-7.44,1.79-5,1.05-7.47,1.49q-7.49,1.35-15,2.12c-5.06.52-10.09.87-15.41.9s-10.34-.38-15.4-.9-10.06-1.22-15-2.12c-2.5-.44-5-.92-7.47-1.49s-5-1.15-7.44-1.79-4.94-1.38-7.4-2.18-4.91-1.66-7.34-2.71c2.56-.68,5.11-1.17,7.66-1.6s5.08-.79,7.61-1.12,5.06-.56,7.58-.77,5-.39,7.56-.53c5-.27,10-.39,15-.41s10,.05,14.67.08,9.72-.11,14.68-.08,10,.14,15,.41c2.52.14,5,.3,7.56.53s5.05.47,7.58.77,5.07.67,7.61,1.12S495.31,925.55,497.87,926.23Z"/><path class="cls-8" d="M859,529.05c-9-9.41-17.62-25.25-17.62-25.25l-.08,1.58-.15-1.58C832.71,422.67,780.74,399,665.49,399s-162.4,22.54-224.59,22.54S331.58,399,216.32,399,49.1,422.67,40.65,503.8c0,0-8.62,15.84-17.62,25.25s-10,29.42,0,32.58S45,588.74,45,588.74c8.63,40.43,25.46,70.27,40.76,80.7,57.92,39.44,192.15,39.44,235.53,11.26s82.83-149.27,94.09-163.38,17.77-17.83,25.56-17.83,14.29,3.73,25.56,17.83,50.71,135.21,94.1,163.38,177.61,28.18,235.52-11.26c15.49-10.55,32.54-41,41.08-82.14l-.07,1.44s11.95-24,21.92-27.11S868,538.46,859,529.05ZM372.38,580.67c-16.43,35.9-37.48,76-58.05,89.37-16.95,11-52.9,17.85-93.8,17.85h0c-52.5,0-101.41-11.1-127.64-29-8-5.43-20.61-22.32-30-52-9.78-30.91-13.17-67-9.56-101.77C57.1,468.59,69.86,446.05,94.68,432s62.44-20.35,121.64-20.35c65.37,0,107.79,7.25,145.22,13.65l8.18,1.4c19.14,3.44,29.57,7.54,34.2,30.29,5.26,25.81-31.54,123.64-31.54,123.64ZM819,606.88c-9.41,29.73-22.05,46.62-30,52-26.23,17.86-75.14,29-127.65,29h0c-40.91,0-76.85-6.84-93.8-17.85-20.57-13.36-41.62-53.47-58.05-89.37h0S472.63,482.84,477.88,457c4.64-22.75,15.07-26.85,34.21-30.29l8.18-1.4c37.43-6.4,79.85-13.65,145.22-13.65,59.2,0,96.71,6.28,121.63,20.35s37.59,36.55,41.4,73.07C832.13,539.83,828.74,576,819,606.88Z"/><path class="cls-9" d="M509.92,671.8s30,29.33,42.66,58.66,7.34,86,7.34,86S504,798.52,468,800.82s-57.37-17-63.37-19.69-19.33,3.33-32,14.66-24-.67-31.33-12.66c0,0,16,17.33,14.67,0s-1.34-24.67,10-26.67,35.34,17.33,41.33,17.33,14.67-12.66,23.34-12.66,15.33,19.33,25.33,8,28-24.58,46.66-24c24.75.76,27.85,36,37.33,25.33,4.16-4.67,14.66-22-3.33-50S496.59,664.47,509.92,671.8Z"/><path class="cls-8" d="M466.91,774.63s19-13.56,33.88-10.17,10.16,18.3,0,18.3S483.85,771.24,466.91,774.63Z"/><path class="cls-8" d="M393.73,773.27s-12.19-10.84-22.35-8.81S368.66,785.47,393.73,773.27Z"/><path class="cls-7" d="M322.24,887.54c0-.12,0,0,.05,0l.08.06a.91.91,0,0,0,.19.13,2.4,2.4,0,0,0,.48.19,5.19,5.19,0,0,0,1.32.16,14.44,14.44,0,0,0,3.2-.46,47.56,47.56,0,0,0,6.74-2.31l.83-.36c.27-.12.56-.24.91-.37.67-.26,1.34-.51,2-.72,1.33-.46,2.64-.85,4-1.22,2.63-.71,5.24-1.28,7.85-1.81a295.15,295.15,0,0,1,30.93-3.85c10.21-.81,20.34-1.33,30.34-1.9s20.09-1.26,30.27-1.67c20.38-.82,40.83-1.06,61.56.46,5.21.43,10.39.9,15.8,1.8,1.36.23,2.75.46,4.19.8.7.16,1.59.39,2.19.55l1.67.48c1.11.3,2.24.57,3.36.81l1.69.36,1.7.28a51,51,0,0,0,6.87.61c.58,0,1.15,0,1.72,0s1.16,0,1.74-.08l1.73-.13,1.73-.23a40.84,40.84,0,0,0,6.9-1.69,47.85,47.85,0,0,0,6.73-3l1.46,1.66a36.21,36.21,0,0,1-5.71,5.77,39.47,39.47,0,0,1-7.08,4.41,42.76,42.76,0,0,1-8,2.86,47.66,47.66,0,0,1-8.37,1.4,56.94,56.94,0,0,1-8.46.12l-2.1-.13c-.65,0-1,0-1.58,0-1.09,0-2.24,0-3.42.1-2.36.08-4.83.3-7.29.47s-5,.38-7.45.6c-10,.87-20.08,1.76-30.18,2.52s-20.24,1.42-30.4,1.91-20.31.91-30.8.82-20.6-.64-30.75-1.35-20.24-1.64-30.15-2.29c-2.48-.17-4.94-.28-7.36-.32-1.21,0-2.41-.05-3.58,0-.6,0-1.16,0-1.74.07l-1,.06-1,.08a40.42,40.42,0,0,1-8.36-.13,16.59,16.59,0,0,1-4.38-1.17,7.45,7.45,0,0,1-2.13-1.43,4.49,4.49,0,0,1-.84-1.18,4,4,0,0,1-.25-.71c0-.13-.05-.26-.07-.4a3.66,3.66,0,0,1,0-.5Z"/><path class="cls-10" d="M368.66,667.54s-75.13,63.51-86.1,96.41-12.33,47.62-9.93,57.23c1.79,7.15,48-24,64.82-93.63C342.48,706.7,368.4,688.79,368.66,667.54Z"/><path class="cls-11" d="M329.65,556.51c-15.8,4.74-36.75,17.67-63.6,16.25S209.52,561.46,206,560s4.13-10.17,17.66-19.08c12.68-8.34,23.32-15.54,46.64-15.54s55.12,23.32,58.65,25.44S336.71,554.39,329.65,556.51Z"/><g class="cls-12"><circle class="cls-13" cx="267.6" cy="542.01" r="39.54"/><circle class="cls-7" cx="267.6" cy="542.01" r="35.75"/><circle class="cls-14" cx="267.6" cy="542.01" r="22.09"/><circle class="cls-8" cx="267.6" cy="542.01" r="17.18"/><circle class="cls-15" cx="252.51" cy="536.52" r="6.64"/><path class="cls-16" d="M316.71,540.91s5.46,7.38,6.14,10.68-3.41,9.12-3.41,9.12l20.8-3.11S326.09,542.27,316.71,540.91Z"/><path class="cls-16" d="M217.77,543.84s-5.45,7.38-6.14,10.68,3.41,9.12,3.41,9.12l-20.79-3.1S208.4,545.2,217.77,543.84Z"/></g><path class="cls-11" d="M607.08,524.39c-22.26-2.72-30.74,2.56-43.55,11.53s-16.66,15.37-12.81,19.21,26.26,20.5,64,18.58,48.68-10.25,55.09-13.45,5-8.89-8.47-16.26S632.64,527.51,607.08,524.39Z"/><path class="cls-17" d="M334.2,551.33a131.65,131.65,0,0,0-15.1-11.06,136.15,136.15,0,0,0-16.27-9.14c-2.81-1.32-5.67-2.5-8.54-3.64s-5.83-2.06-8.79-2.9a84.62,84.62,0,0,0-9-1.92,65.12,65.12,0,0,0-9.14-.75,69.45,69.45,0,0,0-18.21,2,77,77,0,0,0-8.77,2.79c-2.85,1.15-5.66,2.42-8.4,3.82a88.47,88.47,0,0,0-15.41,10.3A85.49,85.49,0,0,0,203.35,554a.5.5,0,0,1-.7.08.51.51,0,0,1-.15-.58l0-.07c2.45-6.14,6.29-11.51,10.55-16.59a88.75,88.75,0,0,1,7.07-7.05c.61-.58,1.26-1.11,1.92-1.64s1.31-1.06,2-1.56c1.33-1,2.73-2,4.14-2.94A71.2,71.2,0,0,1,246.85,515c.83-.25,1.68-.45,2.52-.67s1.69-.42,2.54-.58l2.57-.52,2.59-.39c1.73-.26,3.47-.33,5.21-.49l2.62-.09c.87,0,1.74,0,2.62,0l2.64.1,2.62.23c.88.07,1.74.19,2.6.31s1.73.23,2.58.4c1.7.33,3.4.66,5.07,1.1s3.31.9,4.94,1.4a89.93,89.93,0,0,1,18.29,8.4A105,105,0,0,1,322,536a81.83,81.83,0,0,1,12.86,14.64l.05.07a.5.5,0,0,1-.15.69A.49.49,0,0,1,334.2,551.33Z"/><path class="cls-17" d="M547.48,543.07a50.89,50.89,0,0,1,4.91-7.8A66.54,66.54,0,0,1,573.59,517c.7-.4,1.44-.75,2.18-1.09s1.48-.69,2.24-1a22.9,22.9,0,0,1,2.31-.88l2.35-.83a20.27,20.27,0,0,1,2.43-.66l2.48-.58c1.64-.34,3.28-.52,4.94-.73a68.36,68.36,0,0,1,9.68-.23c.79,0,1.6,0,2.39.1l2.35.21c1.57.14,3.15.26,4.69.54A114.14,114.14,0,0,1,646.92,523,96.81,96.81,0,0,1,662.53,533a71.13,71.13,0,0,1,6.87,6.22,56.2,56.2,0,0,1,6,7.05l0,.06a.95.95,0,0,1-1.39,1.28,95.39,95.39,0,0,0-14.15-10.38,130.76,130.76,0,0,0-15.7-7.76,139.55,139.55,0,0,0-33.68-9,94.61,94.61,0,0,0-17.3-.65,49.18,49.18,0,0,0-16.6,4.09,81.41,81.41,0,0,0-15.15,8.46,108.81,108.81,0,0,0-13.55,11.12.27.27,0,0,1-.37,0,.26.26,0,0,1,0-.3Z"/><path class="cls-18" d="M439.23,524c-6.11-23.63-42.46,133.39-56.27,162.54s-16.87,46-7.67,52.16,81.39-6.57,84.45-26.51S458.67,599.21,439.23,524Z"/><g class="cls-19"><circle class="cls-13" cx="609.08" cy="540.53" r="39.54"/><path class="cls-7" d="M598.34,506.42a35.78,35.78,0,1,1-6,2.52,35.75,35.75,0,0,1,6-2.52"/><circle class="cls-14" cx="609.08" cy="540.53" r="22.09"/><circle class="cls-8" cx="609.08" cy="540.53" r="17.18"/><circle class="cls-15" cx="593.99" cy="535.04" r="6.64"/><path class="cls-11" d="M563.36,528.28s-8.33,19-7.41,23.6,18,21.28,18,21.28l-37-17.58Z"/><path class="cls-11" d="M660,565.88s10.29-10.17,9.89-13.18-15.42-16.25-15.42-16.25L689,553.79Z"/><path class="cls-20" d="M541.61,547.71s19.43,21.75,71.25,22.67,69.87-22.2,69.87-22.2l-22.21,23.13-65.7,11.1S546.7,579.17,541.61,547.71Z"/></g><path class="cls-21" d="M206,560c3.53,1.42,33.21,11.31,60.06,12.72s47.8-11.51,63.6-16.25C264.44,577.37,206,560,206,560Z"/><path class="cls-22" d="M372.38,580.67c-16.43,35.9-37.48,76-58.05,89.37-16.95,11-52.9,17.85-93.8,17.85h0c-52.5,0-101.41-11.1-127.64-29-8-5.43-20.61-22.32-30-52-9.78-30.91-13.17-67-9.56-101.77C57.1,468.59,69.86,446.05,94.68,432s62.44-20.35,121.64-20.35c65.37,0,107.79,7.25,145.22,13.65l8.18,1.4c19.14,3.44,29.57,7.54,34.2,30.29,5.26,25.81-31.54,123.64-31.54,123.64Z"/><path class="cls-23" d="M306.85,417c-11.07-1.35-22.91-2.54-35.78-3.45L156.6,682.13a331.09,331.09,0,0,0,35.28,4.65Z"/><path class="cls-24" d="M110.48,668.48a196.17,196.17,0,0,0,32.67,10.76l113.6-266.56c-11.44-.58-23.67-.92-36.84-1Z"/><path class="cls-25" d="M819,606.88c-9.41,29.73-22.05,46.62-30,52-26.23,17.86-75.14,29-127.65,29h0c-40.91,0-76.85-6.84-93.8-17.85-20.57-13.36-41.62-53.47-58.05-89.37h0S472.63,482.84,477.88,457c4.64-22.75,15.07-26.85,34.21-30.29l8.18-1.4c37.43-6.4,79.85-13.65,145.22-13.65,59.2,0,96.71,6.28,121.63,20.35s37.59,36.55,41.4,73.07C832.13,539.83,828.74,576,819,606.88Z"/></g><g id="Layer_3" data-name="Layer 3"><path class="cls-26" d="M69.94,727.75A69.2,69.2,0,0,1,76.14,748a97.4,97.4,0,0,1,1,21,96.26,96.26,0,0,1-3.54,20.76,68.66,68.66,0,0,1-8.69,19.34,205.5,205.5,0,0,1,0-20.77c.27-6.74.63-13.38,1-20s.89-13.28,1.46-20A205.76,205.76,0,0,1,69.94,727.75Z"/><path class="cls-26" d="M83.51,757.91a117.05,117.05,0,0,1,6.13,28.63,160.55,160.55,0,0,1,0,29.25,159.64,159.64,0,0,1-5.24,28.78A116.16,116.16,0,0,1,73.3,871.65c.49-9.84,1.58-19.3,2.5-28.73s1.88-18.77,2.73-28.13,1.6-18.72,2.33-28.16S82.24,767.68,83.51,757.91Z"/><path class="cls-26" d="M86.9,743.87a86.44,86.44,0,0,1,3.52,25.48,116.38,116.38,0,0,1-3,25.55A114.86,114.86,0,0,1,79,819.19a85,85,0,0,1-14.29,21.38c1.79-8.49,4-16.45,6-24.43s4-15.83,5.81-23.74,3.5-15.86,5.12-23.91S84.81,752.29,86.9,743.87Z"/><path class="cls-26" d="M93.16,781a275.91,275.91,0,0,1,5,36.54q1.38,18.3,1.22,36.65t-1.75,36.63a272.18,272.18,0,0,1-5.51,36.45,351,351,0,0,1-3.29-36.65q-.82-18.28-.65-36.52c.1-12.16.48-24.32,1.21-36.5A356.83,356.83,0,0,1,93.16,781Z"/><path class="cls-26" d="M104.79,806.57c.4,12.06,1.08,23.66,2.08,35.36s2,23.44,2.22,35.47-.65,24.32-3.6,36.23a89.89,89.89,0,0,1-15.26,32.92c1.49-5.86,2.93-11.58,4-17.31s2-11.42,2.55-17.13a293.86,293.86,0,0,0,1.08-34.55c-.15-11.65-.5-23.54.2-35.54S100.55,817.9,104.79,806.57Z"/><path class="cls-26" d="M121.79,857.81a125.24,125.24,0,0,1,1.08,23.2,213,213,0,0,1-2.06,22.74,212.54,212.54,0,0,1-4.45,22.39,124.15,124.15,0,0,1-7.62,21.94,123.56,123.56,0,0,1-1.1-23.2,212.56,212.56,0,0,1,2.08-22.73,215.35,215.35,0,0,1,4.46-22.4A126,126,0,0,1,121.79,857.81Z"/><path class="cls-26" d="M114.7,825.31A164.12,164.12,0,0,1,122,860.19a220.68,220.68,0,0,1,.82,35.62,218.56,218.56,0,0,1-4.9,35.3,162.49,162.49,0,0,1-11.27,33.8c.56-11.93,1.68-23.53,2.56-35.12s1.75-23.09,2.43-34.62,1.18-23.06,1.59-34.67S113.9,837.23,114.7,825.31Z"/><path class="cls-26" d="M125.32,885.49a145.43,145.43,0,0,1,3.89,23.28c.73,7.72,1.1,15.43,1.17,23.14s-.17,15.41-.78,23.15a143.26,143.26,0,0,1-3.53,23.34,116.87,116.87,0,0,1-5.27-23.09A185.94,185.94,0,0,1,119.18,932a189.77,189.77,0,0,1,1.25-23.33A117.66,117.66,0,0,1,125.32,885.49Z"/><path class="cls-26" d="M131,883.24a242,242,0,0,1,7.14,31.55c1.74,10.57,3,21.18,4,31.82s1.47,21.31,1.58,32a238.81,238.81,0,0,1-1.63,32.3,237.45,237.45,0,0,1-7.15-31.54q-2.61-15.85-4-31.83c-.92-10.64-1.46-21.31-1.56-32A242.23,242.23,0,0,1,131,883.24Z"/><path class="cls-26" d="M148.35,927.34c1.33,8.25,2.12,16.13,3.18,23.93s2.13,15.47,3.43,23.12,2.78,15.26,4.4,23,3.43,15.41,4.9,23.63A75.62,75.62,0,0,1,151,1000.05a102.9,102.9,0,0,1-8.22-48.57A76.36,76.36,0,0,1,148.35,927.34Z"/><path class="cls-26" d="M150.37,949c3.42,3.06,6.64,6.15,9.74,9.48,1.53,1.68,3,3.42,4.45,5.27a69,69,0,0,1,3.92,5.83A75.53,75.53,0,0,1,177.76,996a109.68,109.68,0,0,1,.68,27.42,122.55,122.55,0,0,1-5.52,26.56c-1.79-9-2.47-17.88-3.29-26.6s-1.62-17.25-2.93-25.6l-.53-3.12-.27-1.56-.33-1.53-.62-3.09c-.24-1-.52-2-.75-3-.42-2.06-1.11-4-1.63-6.06-.27-1-.67-2-1-3s-.59-2-1-3c-.78-2-1.46-4-2.33-5.91s-1.76-4-2.69-6A108.31,108.31,0,0,1,150.37,949Z"/><path class="cls-26" d="M156.83,945.84a62.91,62.91,0,0,1,4.39,15.67,100.74,100.74,0,0,1,1.21,15.66,97.21,97.21,0,0,1-1.2,15.67,62.1,62.1,0,0,1-4.4,15.67,62.13,62.13,0,0,1-4.41-15.67,102.85,102.85,0,0,1,0-31.33A62.91,62.91,0,0,1,156.83,945.84Z"/><path class="cls-26" d="M151.94,876.16a199.34,199.34,0,0,1,1.38,29.51c-.17,9.77-.79,19.5-1.78,29.18s-2.36,19.34-4.17,28.94A199.08,199.08,0,0,1,140,992.4a199.29,199.29,0,0,1-1.39-29.51q.27-14.65,1.79-29.18t4.19-28.94A202.35,202.35,0,0,1,151.94,876.16Z"/><path class="cls-26" d="M140.73,866.94a108.7,108.7,0,0,1,5.39,29.71,144.25,144.25,0,0,1-1.7,30.22,143.54,143.54,0,0,1-7.92,29.21A108.48,108.48,0,0,1,122,982.56c1.9-10,4.17-19.47,6.11-29s3.75-19,5.31-28.48,2.85-19.05,4-28.7S139.39,877,140.73,866.94Z"/><path class="cls-26" d="M169.32,897.24a178,178,0,0,1,7.19,38.42,231.61,231.61,0,0,1-.17,39.15,228.9,228.9,0,0,1-6.74,38.58,175.89,175.89,0,0,1-13.89,36.54c1.64-13,3.62-25.61,5.25-38.26s3.09-25.23,4.22-37.85,2-25.27,2.55-38S168.65,910.3,169.32,897.24Z"/><path class="cls-26" d="M168.93,913.45a195.91,195.91,0,0,1,.87,27.1c-.25,8.93-.85,17.81-1.72,26.66s-2.06,17.67-3.58,26.48a194.63,194.63,0,0,1-6.24,26.38A149.12,149.12,0,0,1,155.72,993a239,239,0,0,1,1.21-26.9,242.62,242.62,0,0,1,4.16-26.6A150.74,150.74,0,0,1,168.93,913.45Z"/><path class="cls-26" d="M186.32,941.19a147.14,147.14,0,0,1,4.53,31.21,205.21,205.21,0,0,1-1,31.45,204.31,204.31,0,0,1-5.8,30.93,146.13,146.13,0,0,1-11.22,29.47c.4-10.61,1.53-20.86,2.56-31.1l3.32-30.52,3.4-30.52C183.29,961.89,184.42,951.64,186.32,941.19Z"/><path class="cls-26" d="M201.64,962.13a146.51,146.51,0,0,1,5.93,30.19,209.11,209.11,0,0,1,.71,30.65,206.15,206.15,0,0,1-3.73,30.43,145.59,145.59,0,0,1-8.9,29.45c-.47-10.36-.14-20.43.15-30.47s.79-20,1.3-30,1-19.93,1.69-29.95S200.16,972.39,201.64,962.13Z"/><path class="cls-26" d="M201.75,943.51a153.83,153.83,0,0,1,2.79,32.35,214.27,214.27,0,0,1-2.84,32.29,213.2,213.2,0,0,1-7.62,31.5,153.19,153.19,0,0,1-13,29.75c1.06-10.87,2.81-21.36,4.46-31.83l5.13-31.24,5.15-31.23C197.59,964.65,199.29,954.15,201.75,943.51Z"/><path class="cls-26" d="M446.7,813.09c2.12,7.2,1.46,15-.76,22.23A53.6,53.6,0,0,1,416.09,868c-7,2.88-14.63,4.29-22,3a174.58,174.58,0,0,0,17-11.64,121.28,121.28,0,0,0,14.06-13,116,116,0,0,0,11.7-15.15A150.88,150.88,0,0,0,446.7,813.09Z"/><path class="cls-26" d="M441.18,810.42a85.63,85.63,0,0,1-17.7,14,129.1,129.1,0,0,1-19.85,9.85,127.47,127.47,0,0,1-21.22,6.38A85.35,85.35,0,0,1,360,842.48a129.34,129.34,0,0,1,19.21-11.36q9.78-4.83,19.8-8.74c6.69-2.64,13.48-5,20.44-7.12A132.2,132.2,0,0,1,441.18,810.42Z"/><path class="cls-26" d="M448.36,812.33a76.8,76.8,0,0,1-14.86,19.43,108.16,108.16,0,0,1-41.43,25,76.8,76.8,0,0,1-24.12,4c6.66-5,13.36-9,20-13.15s13.16-8,19.72-11.94,13.12-7.88,19.79-11.83S440.85,815.92,448.36,812.33Z"/><path class="cls-26" d="M436.54,826.64a43.49,43.49,0,0,1-7.29,12.89,63,63,0,0,1-10,9.94A62.05,62.05,0,0,1,407.38,857a43,43,0,0,1-14.19,4.25A50.07,50.07,0,0,1,401.32,849a76.7,76.7,0,0,1,10-9.51,78,78,0,0,1,11.49-7.64A51,51,0,0,1,436.54,826.64Z"/><path class="cls-26" d="M433.09,801.72a222.94,222.94,0,0,1-32.78,18.34,208.74,208.74,0,0,1-35.54,12.66c-12.37,3.15-24.36,4.53-35.23,8.33a55.39,55.39,0,0,0-15.19,7.85,36.66,36.66,0,0,0-11.46,13.56c0-6.39,2.91-12.82,7.06-18a49.18,49.18,0,0,1,15.55-12.55,91.8,91.8,0,0,1,18.22-7c6.12-1.74,12.13-3,17.94-4.54,11.71-2.94,23.38-6.31,35.2-9.67S420.63,804,433.09,801.72Z"/><path class="cls-26" d="M414.5,812.1a59.67,59.67,0,0,1-11.8,11.25,106.57,106.57,0,0,1-13.85,8.54c-9.57,5-19.43,8.8-28.9,12.71a188.8,188.8,0,0,0-27,13.24A78.43,78.43,0,0,0,310.26,878a39.58,39.58,0,0,1,5.79-15.43,59.19,59.19,0,0,1,10.86-12.76c8.36-7.47,18.16-12.9,28.19-17s20.06-7.06,29.93-10.15A278,278,0,0,0,414.5,812.1Z"/><path class="cls-26" d="M412.24,830.87c-5.9,4.14-12.67,7-19.41,9.42s-13.57,4.34-20.07,6.53c-12.95,4.37-25.36,9.84-36.27,17.25-1.39.89-2.7,1.88-4,2.84s-2.59,2-3.84,3.05a88.61,88.61,0,0,0-7.18,6.64,76.47,76.47,0,0,0-11.58,15.64,66.67,66.67,0,0,0-8.52,39.06,42.3,42.3,0,0,1-3.68-10.23c-.1-.45-.23-.9-.31-1.35l-.21-1.36c-.13-.91-.3-1.83-.4-2.75-.12-1.84-.32-3.71-.27-5.57a57.68,57.68,0,0,1,1.12-11.18c.4-1.83.79-3.69,1.37-5.48.28-.9.51-1.83.84-2.71l1-2.66c.31-.9.72-1.75,1.1-2.62s.74-1.74,1.18-2.58c.88-1.68,1.73-3.39,2.75-5a68.14,68.14,0,0,1,6.65-9.3c1.24-1.43,2.49-2.86,3.85-4.18.67-.67,1.32-1.36,2-2l2.09-1.92a94.19,94.19,0,0,1,8.94-6.9c12.46-8.43,26.62-13.57,40.9-16.36S398.29,834.12,412.24,830.87Z"/><path class="cls-26" d="M365,831.26c-7.2,5.53-14.22,10.39-21,15.52s-13.27,10.27-19.62,15.66-12.5,11-18.58,16.87-12,12-18.62,18.25a73.38,73.38,0,0,1,10.92-24.65,98,98,0,0,1,18-20.17,99,99,0,0,1,22.8-14.56A74.72,74.72,0,0,1,365,831.26Z"/><path class="cls-26" d="M418.75,832.43a63.46,63.46,0,0,1-8.8,14.93,98.72,98.72,0,0,1-11.26,12.27,97.3,97.3,0,0,1-13.11,10.27A63,63,0,0,1,370,877.48a62.83,62.83,0,0,1,8.79-15A102,102,0,0,1,403.17,840,63.7,63.7,0,0,1,418.75,832.43Z"/><path class="cls-26" d="M407,833.87c-5.65,3.14-10.81,5.61-15.75,8.31s-9.67,5.32-14.3,8.16-9.15,5.84-13.74,9-9.16,6.65-14.51,10.3c.78-6.46,3.69-12.3,7.46-17.43a50.59,50.59,0,0,1,14.14-12.77,51.1,51.1,0,0,1,17.79-6.78C394.39,831.67,400.89,831.7,407,833.87Z"/><path class="cls-26" d="M421.91,819.71A194.7,194.7,0,0,1,399.36,841q-11.88,9.74-24.56,18.3c-4.23,2.86-8.51,5.64-12.86,8.3-2.19,1.32-4.35,2.67-6.57,3.94s-4.5,2.58-6.84,3.8a64.94,64.94,0,0,1-15.07,5.81,30.61,30.61,0,0,1-16.07-.2,46.73,46.73,0,0,0,13.81-5.63,115.91,115.91,0,0,0,11.95-8.43c3.87-3.06,7.92-6.25,12-9.29s8.26-6,12.49-8.85q12.66-8.57,26.11-16A196,196,0,0,1,421.91,819.71Z"/><path class="cls-26" d="M293.23,929.22c1.45,7.7.62,15.62-1.44,23.16a67.84,67.84,0,0,1-10.21,21.12,66.79,66.79,0,0,1-16.77,16.43c-6.5,4.36-13.79,7.64-21.58,8.59,5.54-5.51,10.68-10.5,15.4-15.79a186.74,186.74,0,0,0,13.15-16.27A189.56,189.56,0,0,0,283,948.81C286.56,942.64,289.69,936.18,293.23,929.22Z"/><path class="cls-26" d="M294.44,937.07c-4.24,4.51-8.44,8.16-12.5,11.86l-12,10.76-12,10.8c-4.12,3.63-8.23,7.39-13.21,11.07a42.05,42.05,0,0,1,5.82-17A58.28,58.28,0,0,1,276.87,941,41.74,41.74,0,0,1,294.44,937.07Z"/><path class="cls-26" d="M274.43,931.67a35.93,35.93,0,0,1,1.63,16.2,49,49,0,0,1-4.44,15.5,48.43,48.43,0,0,1-9.16,13.29,35.35,35.35,0,0,1-13.6,9,150.67,150.67,0,0,1,5.8-14.4c2-4.45,4-8.73,6-13s4.06-8.56,6.24-12.94A148.69,148.69,0,0,1,274.43,931.67Z"/><path class="cls-26" d="M252.59,934.15a126.2,126.2,0,0,1-1.05,22c-.89,7.13-2.12,14.15-3.63,21.1s-3.31,13.85-5.47,20.71a124.84,124.84,0,0,1-8.21,20.4,90.78,90.78,0,0,1-1.13-22.12,139.17,139.17,0,0,1,3-21.56,142.35,142.35,0,0,1,6.25-20.86A91.21,91.21,0,0,1,252.59,934.15Z"/><path class="cls-26" d="M239.51,945.86c-1.2,8.24-2.79,15.9-4.08,23.56s-2.54,15.18-3.54,22.75-1.84,15.16-2.54,22.88-1.24,15.54-2.28,23.81a69.7,69.7,0,0,1-7.21-23.58,93.35,93.35,0,0,1,.07-24.71,94.29,94.29,0,0,1,6.43-23.85A69.63,69.63,0,0,1,239.51,945.86Z"/><path class="cls-26" d="M216.05,947.59a247.7,247.7,0,0,1,4.12,33.72c.68,11.23.89,22.45.69,33.67s-.81,22.42-1.89,33.61a244.76,244.76,0,0,1-5.36,33.56,243.22,243.22,0,0,1-4.13-33.73c-.69-11.23-.89-22.45-.68-33.66s.82-22.42,1.91-33.62A246.34,246.34,0,0,1,216.05,947.59Z"/><path class="cls-26" d="M193.9,949.87a146.33,146.33,0,0,1,4.73,25.66,250.4,250.4,0,0,1,1.31,25.66,250.32,250.32,0,0,1-1.29,25.65,144.4,144.4,0,0,1-4.75,25.66,145.28,145.28,0,0,1-4.74-25.66,244.77,244.77,0,0,1-1.29-25.65,253.26,253.26,0,0,1,1.3-25.66A147.26,147.26,0,0,1,193.9,949.87Z"/><path class="cls-26" d="M297.56,954.35a164.26,164.26,0,0,1,.92,34,232.23,232.23,0,0,1-4.82,33.6,231,231,0,0,1-9.61,32.55A162.42,162.42,0,0,1,269,1085.06c1.48-11.37,3.74-22.29,5.93-33.19s4.58-21.68,6.94-32.47,4.76-21.58,7.25-32.4S294.18,965.3,297.56,954.35Z"/><path class="cls-26" d="M296.31,990.92a190.14,190.14,0,0,1,4.73,29.43c.89,9.81,1.3,19.62,1.31,29.43s-.41,19.62-1.29,29.43a187.83,187.83,0,0,1-4.75,29.43,189,189,0,0,1-4.74-29.43c-.89-9.81-1.3-19.62-1.29-29.43s.42-19.62,1.3-29.43A191.34,191.34,0,0,1,296.31,990.92Z"/><path class="cls-26" d="M286.8,977.83a133.67,133.67,0,0,1-3.59,24.64A228.36,228.36,0,0,1,276.4,1026a225.19,225.19,0,0,1-9.27,22.65,133,133,0,0,1-12.53,21.52,131.86,131.86,0,0,1,3.57-24.64A222.17,222.17,0,0,1,265,1022a227.63,227.63,0,0,1,9.28-22.65A134.38,134.38,0,0,1,286.8,977.83Z"/><path class="cls-26" d="M271.92,975a199.49,199.49,0,0,1-2.05,28.89c-1.28,9.46-2.95,18.82-4.93,28.11s-4.32,18.51-7,27.67a198.61,198.61,0,0,1-10,27.17,162.12,162.12,0,0,1,.69-29,262.22,262.22,0,0,1,4.54-28.35,268.33,268.33,0,0,1,7.51-27.72A165.46,165.46,0,0,1,271.92,975Z"/><path class="cls-26" d="M250.53,1011.58a113.27,113.27,0,0,1,1.95,22.75,193.06,193.06,0,0,1-1.46,22.33,188.66,188.66,0,0,1-4,22,112,112,0,0,1-7.46,21.58,111.9,111.9,0,0,1-2-22.75,186.62,186.62,0,0,1,1.47-22.33,190.84,190.84,0,0,1,4.05-22A114,114,0,0,1,250.53,1011.58Z"/><path class="cls-26" d="M263.21,999a72.82,72.82,0,0,0-13.12,8.77,77.08,77.08,0,0,0-10.51,11,99.3,99.3,0,0,0-14.5,26.18q-1.31,3.51-2.39,7.1l-1.06,3.7c-.36,1.26-.72,2.5-1.06,3.75-1.42,5-2.73,9.87-3.68,14.75-2,9.67-2.06,20.59-4.52,31.39a118.76,118.76,0,0,1-4.24-15.81,72.24,72.24,0,0,1-1.53-16.69,86.16,86.16,0,0,1,2.41-16.62c.32-1.34.64-2.67,1-4s.7-2.62,1.13-4q1.24-4.08,2.88-8a77.83,77.83,0,0,1,19.23-27.76,58.18,58.18,0,0,1,14-9.46A44.41,44.41,0,0,1,263.21,999Z"/><path class="cls-26" d="M266.58,989.12a136.69,136.69,0,0,1-6.38,30.36A189,189,0,0,1,248.3,1048,186.21,186.21,0,0,1,232,1074.3c-1.54,2.07-3.12,4.11-4.77,6.1s-3.31,4-5.06,5.88A89.45,89.45,0,0,1,210.76,1097c2.1-4.81,4.3-9.4,6.47-14l3.31-6.86,3.37-6.79c4.53-9,9.08-17.91,13.66-26.81s9.22-17.77,13.91-26.69S261,998,266.58,989.12Z"/><path class="cls-26" d="M241,1013.74a112,112,0,0,1,3.09,26.75,154.69,154.69,0,0,1-2.23,26.67,166.39,166.39,0,0,1-6.59,25.88,127.8,127.8,0,0,1-11.12,24.45,190.19,190.19,0,0,1,1.87-26.61c1.12-8.68,2.48-17.23,3.95-25.75s3-17,4.71-25.55A250.27,250.27,0,0,1,241,1013.74Z"/><path class="cls-26" d="M260,1025.2a164.29,164.29,0,0,1,6.48,32.23,221.5,221.5,0,0,1,1,32.78,223.74,223.74,0,0,1-3.83,32.55,169,169,0,0,1-9.11,31.58c-.79-11.06-.56-21.87-.33-32.62s.73-21.39,1.21-32,1-21.3,1.59-32S258.31,1036.16,260,1025.2Z"/><path class="cls-26" d="M247.38,1011.56a34.07,34.07,0,0,0-4.28,9.67c-1,3.3-1.82,6.74-3,10.33-.29.88-.66,1.8-1,2.71s-.77,1.82-1.26,2.74a30.22,30.22,0,0,1-3.44,5.43c-2.87,3.51-6,5.76-8.28,7.83a23.29,23.29,0,0,0-2.85,3c-.43.52-.77,1.11-1.19,1.64l-1,1.81a36,36,0,0,0-3,8.59c-.72,3.18-1.19,6.59-1.63,10.12s-.79,7.2-1.49,11a50.81,50.81,0,0,1-4.42-10.43,45.11,45.11,0,0,1-1.91-11.45,32.39,32.39,0,0,1,1.91-12.34c.37-1,.87-2,1.34-3s1.11-2,1.75-2.88,1.34-1.84,2.11-2.67,1.53-1.6,2.3-2.29c3.09-2.75,5.92-4.61,7.85-6.49a42.19,42.19,0,0,0,5.71-7.38,91.68,91.68,0,0,1,6.4-9.09C240.42,1015.38,243.69,1012.64,247.38,1011.56Z"/><path class="cls-26" d="M236.46,1020.64a166.75,166.75,0,0,1,.49,21.55c-.22,7-.61,13.91-1.15,20.8s-1.21,13.78-2.08,20.73a163.55,163.55,0,0,1-3.86,21.21,74.08,74.08,0,0,1-5.63-21.19,106.31,106.31,0,0,1-.47-21.69,107.62,107.62,0,0,1,3.85-21.35A74.93,74.93,0,0,1,236.46,1020.64Z"/><path class="cls-26" d="M272.64,987a96.79,96.79,0,0,1-10,21.22,147.46,147.46,0,0,1-13.62,18.7,145.17,145.17,0,0,1-16.36,16.35,95.83,95.83,0,0,1-19.44,13.09,149.94,149.94,0,0,1,12.51-19.58q6.76-9.16,14.12-17.71c4.9-5.72,10-11.28,15.34-16.68A152.75,152.75,0,0,1,272.64,987Z"/><path class="cls-26" d="M274.05,1018.29a138.79,138.79,0,0,1,4.73,24.87,238.11,238.11,0,0,1,1.3,24.87,230.17,230.17,0,0,1-1.29,24.87,137.08,137.08,0,0,1-4.74,24.87,137.11,137.11,0,0,1-4.75-24.87,238.54,238.54,0,0,1,0-49.74A138.79,138.79,0,0,1,274.05,1018.29Z"/><path class="cls-26" d="M286.09,997.84c1.53,13.42,2.08,26.67,2.66,39.88s.93,26.36,1.31,39.51.72,26.3.93,39.52.31,26.49-.54,40a248.56,248.56,0,0,1-8.92-39.2,331.79,331.79,0,0,1-2.23-80.07A244.59,244.59,0,0,1,286.09,997.84Z"/><path class="cls-26" d="M298.63,1054.78a183.32,183.32,0,0,1,4.63,28.71c.85,9.57,1.22,19.14,1.2,28.7,0,4.79-.16,9.57-.36,14.35l-.4,7.06a60.94,60.94,0,0,0-.07,6.45c.08,1,.17,2,.33,3,.09.51.18.92.31,1.47s.32,1.24.46,1.83l1.58,6.94a68.59,68.59,0,0,0,1.86,6.69,18,18,0,0,0,1.36,3.1,4.6,4.6,0,0,0,2.44,2.29,5,5,0,0,1-3.74-1,16,16,0,0,1-2.93-2.62,41.57,41.57,0,0,1-4.46-6.17c-1.29-2.14-2.46-4.34-3.55-6.47l-.81-1.52c-.29-.57-.62-1.27-.88-1.92a27,27,0,0,1-1.32-4,45.83,45.83,0,0,1-1.22-7.85c-.23-2.54-.28-4.89-.41-7.28-.17-4.79-.3-9.57-.26-14.35,0-9.57.49-19.13,1.41-28.7A181.25,181.25,0,0,1,298.63,1054.78Z"/><path class="cls-26" d="M258.17,970.25a205.13,205.13,0,0,1-3.59,21.26c-1.45,6.84-3,13.56-4.58,20.26s-3.26,13.4-5.05,20.15a200.43,200.43,0,0,1-6.45,20.59,69.45,69.45,0,0,1-3-21.84,99.39,99.39,0,0,1,10.12-42.28A69.74,69.74,0,0,1,258.17,970.25Z"/><path class="cls-26" d="M303,952.14a87.23,87.23,0,0,1-12.52,24,112.52,112.52,0,0,1-8.61,10.5c-1.54,1.67-3.15,3.26-4.77,4.85s-3.31,3.11-5.23,4.65a36.29,36.29,0,0,1-6.49,4.22,28,28,0,0,1-7.84,2.47,39.22,39.22,0,0,1-7.47.38c-2.36-.06-4.57-.29-6.7-.47s-4.18-.37-6-.38a27.36,27.36,0,0,0-5.77.58,18.93,18.93,0,0,0-5.5,2,13.27,13.27,0,0,0-4.5,4.4,11.58,11.58,0,0,1,2.15-6.8,18.61,18.61,0,0,1,5.52-5.08,26.58,26.58,0,0,1,6.88-3,46.31,46.31,0,0,1,7.1-1.27l6.48-.67a44.22,44.22,0,0,0,5.62-1,18.9,18.9,0,0,0,4.58-1.83,34.15,34.15,0,0,0,4.46-3.08c1.52-1.2,3.1-2.58,4.71-4s3.19-2.82,4.8-4.22c3.2-2.83,6.35-5.71,9.53-8.62C289.8,964.08,296,958.05,303,952.14Z"/><path class="cls-26" d="M407.84,936.21A26.57,26.57,0,0,1,412,944.4a30.19,30.19,0,0,1,1.32,7.65,29.3,29.3,0,0,1-.7,7.72,26.61,26.61,0,0,1-3.51,8.5,18.25,18.25,0,0,1-5.93-7.42,22,22,0,0,1-1.92-8.33,22.41,22.41,0,0,1,1.28-8.45A18.42,18.42,0,0,1,407.84,936.21Z"/><path class="cls-26" d="M418.76,943a32.58,32.58,0,0,1,4.73,10.83,46.15,46.15,0,0,1,0,21.67,32.24,32.24,0,0,1-4.75,10.83A32.24,32.24,0,0,1,414,975.53a44.53,44.53,0,0,1-1.29-10.83,45.57,45.57,0,0,1,1.3-10.84A32.81,32.81,0,0,1,418.76,943Z"/><path class="cls-26" d="M432.12,936.19a92,92,0,0,1,4.73,19.95,152,152,0,0,1,1.3,20,148.76,148.76,0,0,1-1.29,20,90.88,90.88,0,0,1-4.74,20,90.34,90.34,0,0,1-4.75-20,148.76,148.76,0,0,1-1.29-20,150.35,150.35,0,0,1,1.31-20A91.42,91.42,0,0,1,432.12,936.19Z"/><path class="cls-26" d="M443.25,949.87A30.05,30.05,0,0,1,448,960.13a40.68,40.68,0,0,1,1.3,10.27A40.07,40.07,0,0,1,448,980.66a29.75,29.75,0,0,1-4.75,10.26,29.75,29.75,0,0,1-4.75-10.26,40.08,40.08,0,0,1-1.29-10.26,41.14,41.14,0,0,1,1.3-10.27A30.09,30.09,0,0,1,443.25,949.87Z"/><path class="cls-26" d="M452.15,945.31a77.61,77.61,0,0,1,4.73,18.25,128.68,128.68,0,0,1,0,36.49,76.75,76.75,0,0,1-4.75,18.24,77.2,77.2,0,0,1-4.74-18.24,129.17,129.17,0,0,1,0-36.49A78.1,78.1,0,0,1,452.15,945.31Z"/><path class="cls-26" d="M467.74,943a27.67,27.67,0,0,1,4.73,9.69,36.28,36.28,0,0,1,1.3,9.69,35.88,35.88,0,0,1-1.28,9.7,27.39,27.39,0,0,1-4.75,9.69,27.39,27.39,0,0,1-4.75-9.69,35.89,35.89,0,0,1-1.29-9.7,36.28,36.28,0,0,1,1.3-9.69A27.71,27.71,0,0,1,467.74,943Z"/><path class="cls-26" d="M485.55,940.75a13.28,13.28,0,0,1,4.73,4.56,8.9,8.9,0,0,1,1.3,4.56,8.78,8.78,0,0,1-1.28,4.56,13.2,13.2,0,0,1-4.75,4.56,13.2,13.2,0,0,1-4.75-4.56,8.79,8.79,0,0,1-1.29-4.56,9,9,0,0,1,1.3-4.56A13.41,13.41,0,0,1,485.55,940.75Z"/><path class="cls-26" d="M476.64,936.19A32.61,32.61,0,0,1,481.38,947a45.55,45.55,0,0,1,1.3,10.83,44.61,44.61,0,0,1-1.29,10.84,32.24,32.24,0,0,1-4.75,10.83,32.24,32.24,0,0,1-4.75-10.83,46.15,46.15,0,0,1,0-21.67A32.58,32.58,0,0,1,476.64,936.19Z"/><path class="cls-26" d="M461.06,947.59a44.08,44.08,0,0,1,4.73,13.11,67.31,67.31,0,0,1,0,26.23,43.65,43.65,0,0,1-4.75,13.12,43.65,43.65,0,0,1-4.75-13.12A64.75,64.75,0,0,1,455,973.82a66.4,66.4,0,0,1,1.3-13.12A44.12,44.12,0,0,1,461.06,947.59Z"/><path class="cls-26" d="M425.17,947.61a45.93,45.93,0,0,1,5.5,15.42,66.84,66.84,0,0,1-2.12,31.61,45.45,45.45,0,0,1-7.54,14.53,80.94,80.94,0,0,1-1.87-15.91c-.16-5.11,0-10.11.33-15.11s.88-10,1.73-15A81.65,81.65,0,0,1,425.17,947.61Z"/><path class="cls-26" d="M256.85,1050.24a62.72,62.72,0,0,1,3,21.13,80.29,80.29,0,0,1-3.33,21A88.91,88.91,0,0,1,248,1111.8a75.54,75.54,0,0,1-13,16.74,130.73,130.73,0,0,1,4.28-20.45c1.81-6.52,3.74-12.84,5.63-19.13s3.69-12.56,5.54-19S254.14,1057,256.85,1050.24Z"/><path class="cls-26" d="M240.65,1036.54a103.85,103.85,0,0,1,4.73,21.45,177.53,177.53,0,0,1,0,42.89,103.27,103.27,0,0,1-4.75,21.45,103.89,103.89,0,0,1-4.74-21.45,177.53,177.53,0,0,1,0-42.89A104.48,104.48,0,0,1,240.65,1036.54Z"/><path class="cls-26" d="M261.21,1056.91a65.38,65.38,0,0,1,9.19,17.93,79.05,79.05,0,0,1,4,19.67,76.25,76.25,0,0,1-1.17,20.07,61.68,61.68,0,0,1-6.81,19,147.22,147.22,0,0,1-2.67-19.53c-.52-6.32-.95-12.49-1.39-18.67s-.91-12.36-1.26-18.71A131.92,131.92,0,0,1,261.21,1056.91Z"/><path class="cls-26" d="M300.49,997.78a149.58,149.58,0,0,1,5.69,28.84,215.49,215.49,0,0,1,1,29.18,214.36,214.36,0,0,1-2.94,29,152.28,152.28,0,0,1-7.47,28.42,226,226,0,0,1-2-29.16c-.14-9.62,0-19.16.34-28.7s.82-19.07,1.58-28.65A241.72,241.72,0,0,1,300.49,997.78Z"/><path class="cls-26" d="M283.52,979.55a63.21,63.21,0,0,1,3.11,19.64,90.63,90.63,0,0,1-1.9,19.52,89.06,89.06,0,0,1-6,18.67,62.41,62.41,0,0,1-10.66,16.8,129.25,129.25,0,0,1,1.55-19.46c.9-6.25,2-12.37,3.26-18.45s2.68-12.14,4.33-18.24A131.33,131.33,0,0,1,283.52,979.55Z"/><path class="cls-26" d="M283,943a132.72,132.72,0,0,1,4.56,36.19,171.52,171.52,0,0,1-4.11,36.39,169.43,169.43,0,0,1-11.72,34.7,131.11,131.11,0,0,1-19.54,30.81c3.61-11.67,7.39-22.87,10.67-34.17s6.26-22.57,8.81-34,4.68-22.87,6.46-34.49S281.35,955.11,283,943Z"/><path class="cls-26" d="M266.73,956.1a24.85,24.85,0,0,1-.82,13.23,41.55,41.55,0,0,1-6.36,11.94c-5.41,7.18-12.16,12.76-18.75,17.78-6.3,4.81-12.37,9.72-17.46,15.34s-9.21,11.95-10.28,20.63a22.14,22.14,0,0,1-2-13.17,36.06,36.06,0,0,1,4.57-13c4.58-7.93,11-14.23,17.92-19.47,6.62-5,13.2-9.48,19.06-14.55S263.57,964.22,266.73,956.1Z"/><path class="cls-26" d="M298.68,988.65a244.94,244.94,0,0,1,4.59,33.46c.84,11.15,1.21,22.3,1.17,33.45s-.5,22.31-1.42,33.42c-.46,5.5-.92,10.86-.86,16.21a48.61,48.61,0,0,0,2.63,16.1c-4.19-4-6.86-9.55-8.49-15.18a86.94,86.94,0,0,1-2.77-17.14c-.85-11.18-1.21-22.31-1.16-33.46s.51-22.29,1.44-33.44A243.46,243.46,0,0,1,298.68,988.65Z"/><path class="cls-26" d="M312,1066.19a180.16,180.16,0,0,1,4.17,28.72c.7,9.56.93,19.11.75,28.66s-.77,19.09-1.84,28.62a178.49,178.49,0,0,1-5.31,28.56,178.1,178.1,0,0,1-4.18-28.72q-1.05-14.34-.74-28.66c.2-9.55.79-19.09,1.86-28.62A181.81,181.81,0,0,1,312,1066.19Z"/><path class="cls-26" d="M309.75,1036.54a160.57,160.57,0,0,1,4.88,29.28,228.44,228.44,0,0,1,.44,29.48,239.54,239.54,0,0,1-3.26,29.27,170.91,170.91,0,0,1-7.35,28.73,203.8,203.8,0,0,1-2.11-29.51c-.09-9.75.18-19.43.67-29.08s1.17-19.3,2.15-29A228.09,228.09,0,0,1,309.75,1036.54Z"/><path class="cls-26" d="M327.48,1059.35a117.85,117.85,0,0,1,4.73,22.8,198.21,198.21,0,0,1,1.3,22.81,193.9,193.9,0,0,1-1.28,22.81,116.43,116.43,0,0,1-4.75,22.8,116.43,116.43,0,0,1-4.75-22.8,196.08,196.08,0,0,1-1.28-22.81,198.21,198.21,0,0,1,1.3-22.81A117.85,117.85,0,0,1,327.48,1059.35Z"/><path class="cls-26" d="M320.8,1063.91a154.81,154.81,0,0,1,4.73,26.36c.89,8.78,1.3,17.57,1.31,26.36s-.41,17.57-1.29,26.36a152.32,152.32,0,0,1-4.75,26.36,153.25,153.25,0,0,1-4.74-26.36,258.59,258.59,0,0,1-1.29-26.36c0-8.79.42-17.58,1.3-26.36A154.81,154.81,0,0,1,320.8,1063.91Z"/><path class="cls-26" d="M345.07,1086.71a94.93,94.93,0,0,1,4.19,20.79,157.84,157.84,0,0,1,.67,20.72,164.54,164.54,0,0,1-1.93,20.6,99.79,99.79,0,0,1-5.28,20.52,94,94,0,0,1-4.21-20.8,156,156,0,0,1-.65-20.71,166.13,166.13,0,0,1,1.95-20.6A100.2,100.2,0,0,1,345.07,1086.71Z"/><path class="cls-26" d="M345.93,1068.59a145.86,145.86,0,0,1,1.31,22.66c-.07,7.42-.43,14.76-1,22.08s-1.46,14.62-2.61,22a143.5,143.5,0,0,1-5.05,22.14,91.26,91.26,0,0,1-4.43-22.49,136.43,136.43,0,0,1,.06-22.6,138.69,138.69,0,0,1,3.68-22.3A91.73,91.73,0,0,1,345.93,1068.59Z"/><path class="cls-26" d="M367.76,1075.31a177.54,177.54,0,0,1,4.3,27.56c.79,9.16,1.17,18.3,1.23,27.43s-.2,18.28-.89,27.45a173.89,173.89,0,0,1-4,27.6,157.64,157.64,0,0,1-5.45-27.4,250.26,250.26,0,0,1-.31-55.17A157.9,157.9,0,0,1,367.76,1075.31Z"/><path class="cls-26" d="M383.14,1100.4a98,98,0,0,1,4.73,20.66,162.65,162.65,0,0,1,1.3,20.65,157.33,157.33,0,0,1-1.29,20.66,96.92,96.92,0,0,1-4.74,20.66,96.34,96.34,0,0,1-4.75-20.66,164.74,164.74,0,0,1,0-41.31A97.36,97.36,0,0,1,383.14,1100.4Z"/><path class="cls-26" d="M354.2,1086.71a126.12,126.12,0,0,1,4.73,23.64,212.81,212.81,0,0,1,1.3,23.64,210.71,210.71,0,0,1-1.29,23.65,124.58,124.58,0,0,1-4.74,23.64,123.83,123.83,0,0,1-4.75-23.64,215.68,215.68,0,0,1,0-47.29A124.55,124.55,0,0,1,354.2,1086.71Z"/><path class="cls-26" d="M110,835.85a193,193,0,0,1,4,29.76c.64,9.91.8,19.8.57,29.68s-.9,19.75-2,29.61a191.73,191.73,0,0,1-5.48,29.53,190.49,190.49,0,0,1-4-29.76q-1-14.85-.56-29.68c.26-9.88.91-19.75,2-29.61A194.09,194.09,0,0,1,110,835.85Z"/><path class="cls-26" d="M73.93,749.17a165.37,165.37,0,0,1,4.21,27.45c.72,9.14,1,18.26.79,27.38s-.75,18.23-1.8,27.34a164.6,164.6,0,0,1-5.27,27.27,164.36,164.36,0,0,1-4.22-27.45c-.72-9.14-1-18.26-.78-27.38s.77-18.24,1.83-27.34A165.54,165.54,0,0,1,73.93,749.17Z"/><path class="cls-26" d="M83.17,762.89c1.82,11.74,2.64,23.33,3.38,34.89s1.13,23.08,1.41,34.61.39,23.05.27,34.63-.45,23.2-1.73,35a199.87,199.87,0,0,1-7.75-34.4,304.55,304.55,0,0,1-1.66-70A200.91,200.91,0,0,1,83.17,762.89Z"/><path class="cls-26" d="M381.27,1093.56a104.82,104.82,0,0,1,4.16,22.08,170.61,170.61,0,0,1,.51,22,195.63,195.63,0,0,1-2.09,21.83,112.75,112.75,0,0,1-5.3,21.78,102.91,102.91,0,0,1-4.18-22.07,167.16,167.16,0,0,1-.49-22,197.82,197.82,0,0,1,2.1-21.83A114.47,114.47,0,0,1,381.27,1093.56Z"/><path class="cls-26" d="M354.2,1102.68a66.41,66.41,0,0,1,4.73,16.67,107.88,107.88,0,0,1,0,33.33,65.84,65.84,0,0,1-4.74,16.67,65.47,65.47,0,0,1-4.75-16.67,102.88,102.88,0,0,1-1.29-16.67,103.92,103.92,0,0,1,1.31-16.66A65.58,65.58,0,0,1,354.2,1102.68Z"/><path class="cls-26" d="M337.75,1100.54a52.12,52.12,0,0,1,6.42,18.45,52.73,52.73,0,0,1-.67,19.89A61.76,61.76,0,0,1,336,1157a74.18,74.18,0,0,1-5.53,7.87,56.19,56.19,0,0,1-6.74,7.1,101.62,101.62,0,0,1,3.55-18.72c1.55-5.91,3.2-11.51,4.49-17.06s2.16-11.14,3-17.06S336.16,1107.05,337.75,1100.54Z"/><path class="cls-26" d="M276.82,1082.21a93.69,93.69,0,0,1,3.51,17.71c.68,5.78,1,11.46,1.26,17.14s.31,11.39.05,17.21a87,87,0,0,1-2.31,17.94,61.38,61.38,0,0,1-7.12-16.87,80.56,80.56,0,0,1-2.68-17.81,79.24,79.24,0,0,1,1.35-18A59.68,59.68,0,0,1,276.82,1082.21Z"/><path class="cls-26" d="M396.5,1105a83.61,83.61,0,0,1,4.73,19,137,137,0,0,1,1.3,18.94,134,134,0,0,1-1.29,19,82.73,82.73,0,0,1-4.74,19,82.25,82.25,0,0,1-4.75-19,134,134,0,0,1-1.29-19,135.48,135.48,0,0,1,1.31-18.94A82.57,82.57,0,0,1,396.5,1105Z"/><path class="cls-26" d="M407.63,1114.08a38.76,38.76,0,0,1,4.73,12.11,56,56,0,0,1,1.3,12.1,55.39,55.39,0,0,1-1.28,12.11,38.53,38.53,0,0,1-4.75,12.1,38.29,38.29,0,0,1-4.75-12.1,57.22,57.22,0,0,1,0-24.21A38.79,38.79,0,0,1,407.63,1114.08Z"/><path class="cls-26" d="M416.59,1111.81a51.25,51.25,0,0,1,4.68,14.3,78.59,78.59,0,0,1,1.25,14.3,76.8,76.8,0,0,1-1.34,14.29c-.48,2.31-1,4.34-1.28,6.42s-.48,4.1.89,6.49a6.26,6.26,0,0,1-3.93-1.63,12,12,0,0,1-2.74-3.51,26.9,26.9,0,0,1-2.44-7.79,76.82,76.82,0,0,1-1.23-14.3,77.67,77.67,0,0,1,1.35-14.29A50.73,50.73,0,0,1,416.59,1111.81Z"/><path class="cls-26" d="M444,1079.89a119.91,119.91,0,0,1,4.11,23.79,197.86,197.86,0,0,1,.45,23.72,229.73,229.73,0,0,1-2.14,23.54,130.68,130.68,0,0,1-5.37,23.49,118.41,118.41,0,0,1-4.12-23.78,194,194,0,0,1-.43-23.73,227.5,227.5,0,0,1,2.16-23.54A132.31,132.31,0,0,1,444,1079.89Z"/><path class="cls-26" d="M432.58,1093.56a139.4,139.4,0,0,1,4.29,27.32,171.16,171.16,0,0,1-.49,27.54,237.15,237.15,0,0,1-4.44,26.94,176.5,176.5,0,0,1-7.75,26.43,149.11,149.11,0,0,1-1.67-27.56c.19-9.11.94-18.14,1.85-27s1.86-17.71,3.05-26.66A198.73,198.73,0,0,1,432.58,1093.56Z"/><path class="cls-26" d="M426.93,1091.47a122.8,122.8,0,0,1,.57,27.48,176.42,176.42,0,0,1-4.55,26.86c-2.11,8.72-4.49,17.19-7,25.75s-5.07,17.17-8.75,25.75a122.21,122.21,0,0,1-.58-27.48,175.41,175.41,0,0,1,4.56-26.86c2.13-8.71,4.51-17.18,7-25.74S423.27,1100.06,426.93,1091.47Z"/><path class="cls-26" d="M408,1089a127.85,127.85,0,0,1,2.35,13c.59,4.32,1,8.64,1.33,13,.64,8.64.83,17.26.74,25.84q-.07,6.45-.35,12.87c-.08,2.15-.23,4.29-.34,6.43s-.27,4.28-.52,6.48a57.54,57.54,0,0,1-1.22,6.9,16.16,16.16,0,0,1-1.67,4.28,9.28,9.28,0,0,1-1.68,2.09,12.32,12.32,0,0,1-1.65,1.26c-1,.64-1.85,1.09-2.72,1.65s-1.75,1.1-2.64,1.69l-5.51,3.77a30.59,30.59,0,0,1,3.89-9.64c.63-1,1.35-2,1.93-2.81a4.83,4.83,0,0,0,.6-1,1.6,1.6,0,0,0,.07-.61l-.05-1.94c-.08-1.76-.21-3.88-.34-6-.34-8.52-.14-17.21.32-25.79s1.29-17.17,2.46-25.72q.86-6.42,2.06-12.83C405.86,1097.56,406.77,1093.28,408,1089Z"/><path class="cls-26" d="M392.11,1125.49a68.47,68.47,0,0,1,4.26,17.56,99.41,99.41,0,0,1,.49,17.57,130.54,130.54,0,0,1-2.09,17.22,74.36,74.36,0,0,1-5.21,17.24,67.85,67.85,0,0,1-4.27-17.57,98.41,98.41,0,0,1-.48-17.57,134.07,134.07,0,0,1,2.1-17.21A75,75,0,0,1,392.11,1125.49Z"/><path class="cls-26" d="M373.74,1091.27a95.5,95.5,0,0,1,4.43,21.55,130.22,130.22,0,0,1,.26,21.72,160.1,160.1,0,0,1-3.05,21.31,109.36,109.36,0,0,1-6.38,21,98.33,98.33,0,0,1-3.08-21.76,185.38,185.38,0,0,1,.47-21.39c.51-7,1.26-14,2.32-21.1A115.49,115.49,0,0,1,373.74,1091.27Z"/><path class="cls-26" d="M219.35,904.33a158,158,0,0,1,4.73,26.8c.89,8.93,1.3,17.87,1.31,26.8a267,267,0,0,1-1.29,26.8,157.14,157.14,0,0,1-4.75,26.81,158.09,158.09,0,0,1-4.74-26.81,267,267,0,0,1-1.29-26.8c0-8.93.42-17.87,1.31-26.8A158.91,158.91,0,0,1,219.35,904.33Z"/><path class="cls-26" d="M205.85,916a96,96,0,0,1,3.47,20.68,157.13,157.13,0,0,1,.06,20.47,155.65,155.65,0,0,1-2.53,20.31,94.82,94.82,0,0,1-6,20.09,95.31,95.31,0,0,1-3.49-20.67,155.38,155.38,0,0,1,0-20.47,158.76,158.76,0,0,1,2.55-20.31A96.19,96.19,0,0,1,205.85,916Z"/><path class="cls-26" d="M189.78,901a114.07,114.07,0,0,1,4.73,22.39,190.89,190.89,0,0,1,1.3,22.39,186.6,186.6,0,0,1-1.29,22.38,112.37,112.37,0,0,1-4.74,22.39A111.7,111.7,0,0,1,185,968.17a188.69,188.69,0,0,1-1.29-22.38,193.09,193.09,0,0,1,1.31-22.39A113.35,113.35,0,0,1,189.78,901Z"/><path class="cls-26" d="M176.48,904.35a67.8,67.8,0,0,1,3.36,17.26,108.12,108.12,0,0,1-.05,17,106.88,106.88,0,0,1-2.65,16.78,67.33,67.33,0,0,1-6.08,16.5,67.42,67.42,0,0,1-3.38-17.26,105.74,105.74,0,0,1,.08-17,107.06,107.06,0,0,1,2.65-16.78A68.7,68.7,0,0,1,176.48,904.35Z"/><path class="cls-26" d="M165.43,881.13A161.65,161.65,0,0,1,167,904.21c.05,7.56-.16,15-.57,22.51s-1.05,14.93-1.94,22.43a160.27,160.27,0,0,1-4.17,22.76A91.14,91.14,0,0,1,155,949.13a138.7,138.7,0,0,1,2.6-46A92.21,92.21,0,0,1,165.43,881.13Z"/><path class="cls-26" d="M148.83,883.34a90.3,90.3,0,0,1,4.72,19.82A148,148,0,0,1,154.86,923a146.44,146.44,0,0,1-1.29,19.81,89.71,89.71,0,0,1-4.74,19.81,89.18,89.18,0,0,1-4.75-19.81A146.44,146.44,0,0,1,142.79,923a148,148,0,0,1,1.31-19.81A89.76,89.76,0,0,1,148.83,883.34Z"/><path class="cls-26" d="M176.39,925.32a131.41,131.41,0,0,1,4,20.49c.83,6.73,1.4,13.42,1.73,20.12s.46,13.41.3,20.2a129.42,129.42,0,0,1-1.94,20.78,75.75,75.75,0,0,1-7.5-19.77,114.2,114.2,0,0,1-2.05-41.41A75.93,75.93,0,0,1,176.39,925.32Z"/><path class="cls-26" d="M216,946.49a230.32,230.32,0,0,1,.53,29q-.52,14.29-1.88,28.42t-3.5,28.28a225.58,225.58,0,0,1-6,28.33,148.45,148.45,0,0,1-3.49-28.91,232.19,232.19,0,0,1,5.47-57.34A149,149,0,0,1,216,946.49Z"/><path class="cls-26" d="M199.46,920.69A57,57,0,0,1,203,936.2a88.3,88.3,0,0,1,.09,15.25,86.13,86.13,0,0,1-2.48,15,55.91,55.91,0,0,1-5.94,14.77,56,56,0,0,1-3.53-15.52A86.23,86.23,0,0,1,191,950.5a87.12,87.12,0,0,1,2.5-15A56.17,56.17,0,0,1,199.46,920.69Z"/><path class="cls-26" d="M183,932.29a26.32,26.32,0,0,1,4.74,9.32,34.1,34.1,0,0,1,1.3,9.33,33.31,33.31,0,0,1-1.29,9.32,26,26,0,0,1-4.75,9.32,26,26,0,0,1-4.75-9.32,33.3,33.3,0,0,1-1.28-9.32,33.72,33.72,0,0,1,1.3-9.33A26.29,26.29,0,0,1,183,932.29Z"/><path class="cls-26" d="M449.15,1104.77a110.82,110.82,0,0,1,4.72,22.14,189.18,189.18,0,0,1,0,44.28,110.43,110.43,0,0,1-4.74,22.15,109.77,109.77,0,0,1-4.75-22.15,189.18,189.18,0,0,1,0-44.28A110.16,110.16,0,0,1,449.15,1104.77Z"/><path class="cls-26" d="M437.77,1132.74a56.28,56.28,0,0,1,4.73,15.15,86.12,86.12,0,0,1,1.3,15.15,85.14,85.14,0,0,1-1.28,15.15,55.64,55.64,0,0,1-4.75,15.15,55.64,55.64,0,0,1-4.75-15.15,85.14,85.14,0,0,1-1.28-15.15,86.12,86.12,0,0,1,1.3-15.15A56.28,56.28,0,0,1,437.77,1132.74Z"/><path class="cls-26" d="M360.46,1104.78a136.22,136.22,0,0,1,4.69,24.72,235.22,235.22,0,0,1,1.27,24.72,229.84,229.84,0,0,1-1.33,24.71c-.46,4.12-1,8.24-1.8,12.35l-.3,1.55-.15.77a5.11,5.11,0,0,1-.14.61,10,10,0,0,0-.13,2.59,7,7,0,0,0,.64,2.53,2.06,2.06,0,0,0,.79.91,2.15,2.15,0,0,0,1.41.15,2.32,2.32,0,0,1-1.56.78,3.37,3.37,0,0,1-1.89-.51,8.07,8.07,0,0,1-2.54-2.7,11.62,11.62,0,0,1-1.43-3.43l-.63-3.25c-.75-4.12-1.31-8.24-1.76-12.36a229.91,229.91,0,0,1-1.25-24.72,232.32,232.32,0,0,1,1.34-24.71A137.06,137.06,0,0,1,360.46,1104.78Z"/><path class="cls-26" d="M346,1128.21a54.93,54.93,0,0,1,6.65,18.56,76.47,76.47,0,0,1,.92,19.52,75.47,75.47,0,0,1-4,19.13,54,54,0,0,1-9.54,17.25,175.4,175.4,0,0,1,.24-19.15c.35-6.14.78-12.17,1.28-18.19s1-12,1.65-18.17A176.63,176.63,0,0,1,346,1128.21Z"/><path class="cls-26" d="M337.1,1128.17a39.66,39.66,0,0,1,6.21,15.4,55.75,55.75,0,0,1-3.62,32.19,39.38,39.38,0,0,1-9.52,13.61,122.49,122.49,0,0,1,.31-16c.36-5.05.86-9.94,1.42-14.83s1.17-9.78,1.94-14.77A123.87,123.87,0,0,1,337.1,1128.17Z"/><path class="cls-26" d="M384.18,1151.6a59.4,59.4,0,0,1,1.87,15.23,98.33,98.33,0,0,1-4.21,28.72,58.92,58.92,0,0,1-6.2,14,47.72,47.72,0,0,1-3.24-15.14,70.15,70.15,0,0,1,.67-14.86,71.45,71.45,0,0,1,3.66-14.42A48.49,48.49,0,0,1,384.18,1151.6Z"/><path class="cls-26" d="M372.18,1144.44a112.58,112.58,0,0,1,3.55,16c.83,5.14,1.44,10.18,2,15.23s.95,10.11,1.19,15.31a110,110,0,0,1-.24,16.35,42.86,42.86,0,0,1-9-14.27,59.8,59.8,0,0,1-3.93-16.15,60.45,60.45,0,0,1,.57-16.61A43.09,43.09,0,0,1,372.18,1144.44Z"/><path class="cls-26" d="M448.78,814.05c2.33,5.77,4.17,10.84,6.31,15.69s4.28,9.4,6.71,13.82a131.7,131.7,0,0,0,8.05,12.91,137.91,137.91,0,0,0,10.48,13c-6.28.3-12.36-2.19-17.46-5.77a41.51,41.51,0,0,1-12.25-14,43.7,43.7,0,0,1-5.27-17.7C445,825.83,445.78,819.54,448.78,814.05Z"/><path class="cls-26" d="M455.14,802.61A69.86,69.86,0,0,1,472,801.12a110.9,110.9,0,0,1,16.81,1.77,242.82,242.82,0,0,1,32,8.54l7.71,2.55,3.83,1.27,3.7,1.19c5,1.51,10.12,2.78,15.4,4.16s10.68,2.85,16,4.8a63.36,63.36,0,0,1,15.07,7.68c-5.6-.71-11-1.23-16.39-1.56s-10.82-.6-16.33-1A130.34,130.34,0,0,1,533,828.13c-1.4-.29-2.83-.67-4.21-1l-4-1.13c-2.66-.78-5.31-1.59-7.92-2.45-10.48-3.42-20.56-7.35-30.65-11S466,805.55,455.14,802.61Z"/><path class="cls-26" d="M454.78,812.75a65,65,0,0,0,3,8.34,57.77,57.77,0,0,0,3.75,7.08,68.08,68.08,0,0,0,4.38,6.32c1.53,2,3.26,3.93,5,5.85,3.55,3.84,7.55,7.64,11.55,11.93a70.1,70.1,0,0,1,10.82,14.67,69.12,69.12,0,0,1-17-6.74A57.5,57.5,0,0,1,461.54,849a41.71,41.71,0,0,1-5.79-7.94,35.06,35.06,0,0,1-3.58-9.28,30.45,30.45,0,0,1-.6-9.88A20.62,20.62,0,0,1,454.78,812.75Z"/><path class="cls-26" d="M456.15,804.5a141.46,141.46,0,0,1,16.27,13.77c5,4.77,9.73,9.68,14.36,14.67s9.14,10.09,13.5,15.44a148.56,148.56,0,0,1,12.51,17.25,69.7,69.7,0,0,1-19.31-9.9,100.6,100.6,0,0,1-16.05-14.15,102.26,102.26,0,0,1-12.83-17.12A72.11,72.11,0,0,1,456.15,804.5Z"/><path class="cls-26" d="M470,810.57a93.21,93.21,0,0,1,20.77,8.62,145.53,145.53,0,0,1,18.45,12.06,143.72,143.72,0,0,1,16.47,14.65,93,93,0,0,1,13.73,17.81,114.67,114.67,0,0,1-20-10,207,207,0,0,1-17.93-12.35,210.43,210.43,0,0,1-16.58-14.1A118.22,118.22,0,0,1,470,810.57Z"/><path class="cls-26" d="M481.75,818.53a19,19,0,0,1,13.35-2.61,32.79,32.79,0,0,1,6.83,1.76,47.59,47.59,0,0,1,6.25,2.93,75.68,75.68,0,0,1,10.94,7.56c3.34,2.7,6.46,5.43,9.59,8.27a226.51,226.51,0,0,1,17.72,18,133.77,133.77,0,0,1,15.27,20.71,133.7,133.7,0,0,1-22-13.31,224.81,224.81,0,0,1-19.55-16c-3.09-2.82-6.17-5.78-9.07-8.72l-4.29-4.29c-1.45-1.36-2.86-2.77-4.32-4.06a52,52,0,0,0-9.21-6.92A24.48,24.48,0,0,0,481.75,818.53Z"/><path class="cls-26" d="M525.9,836.29c3.13-2.69,7.79-3.85,12.24-3.49a33.54,33.54,0,0,1,12.46,3.91c.95.5,1.85,1,2.78,1.56s1.76,1.14,2.63,1.72c1.71,1.18,3.37,2.42,4.94,3.72a110.36,110.36,0,0,1,8.83,8.16,67.47,67.47,0,0,1,14.09,20.33,39.53,39.53,0,0,1,3.06,12.39,27.43,27.43,0,0,1-1.78,12.34,60.54,60.54,0,0,0-10-19.86,179.68,179.68,0,0,0-14.48-16.34l-7.84-8.13c-2.58-2.66-5.13-5.27-7.79-7.62C539.65,840.33,534.23,836.12,525.9,836.29Z"/><path class="cls-26" d="M445.18,810.85a30.44,30.44,0,0,1-9,9.5,42.36,42.36,0,0,1-23.46,7.46,30,30,0,0,1-12.86-2.6,47,47,0,0,1,10.57-7.16,68.61,68.61,0,0,1,10.73-4.36,70,70,0,0,1,11.29-2.61A47.25,47.25,0,0,1,445.18,810.85Z"/><path class="cls-26" d="M409.33,812a113.58,113.58,0,0,1,23-5,191.07,191.07,0,0,1,23-1.42q5.75,0,11.51.31c1.93.1,3.81.23,5.78.42,1,.09,2,.19,3,.31s2,.28,3.05.46a35.51,35.51,0,0,1,12.06,4.17,21.42,21.42,0,0,1,5,4.13,15.76,15.76,0,0,1,3.1,5.43,28.12,28.12,0,0,0-5.15-2.53,26.21,26.21,0,0,0-5.16-1.16,38.89,38.89,0,0,0-5.19-.28l-2.62.07-2.67.17c-1.79.13-3.61.3-5.47.46s-3.82.33-5.73.44c-3.84.22-7.67.34-11.51.34a191.24,191.24,0,0,1-23-1.34A114.4,114.4,0,0,1,409.33,812Z"/><path class="cls-26" d="M446.69,806.42a76.92,76.92,0,0,1,14.85,10.11A134.47,134.47,0,0,1,484.61,842a77.29,77.29,0,0,1,8.59,15.78,60.92,60.92,0,0,1-15.82-8.83,91.59,91.59,0,0,1-12.93-11.86,93.06,93.06,0,0,1-10.52-14A61.7,61.7,0,0,1,446.69,806.42Z"/><path class="cls-26" d="M440.19,810.59a141.23,141.23,0,0,0-19.27,13.13c-6,4.69-12,9.63-18.51,14.22s-13.69,8.9-21.84,11.58a42.28,42.28,0,0,1-12.7,2.19,27.23,27.23,0,0,1-12.37-2.66,61.57,61.57,0,0,0,20.95-8.66c6.25-3.86,12.25-8.42,18.65-12.88a130,130,0,0,1,20.7-12.35,59.24,59.24,0,0,1,11.87-4A34.3,34.3,0,0,1,440.19,810.59Z"/><path class="cls-26" d="M433.92,821.25a73.31,73.31,0,0,1-16.75,8.15A117.53,117.53,0,0,1,399.76,834a114.61,114.61,0,0,1-17.9,1.9,72.41,72.41,0,0,1-18.56-1.69A72,72,0,0,1,380.05,826a118.92,118.92,0,0,1,35.31-6.46A72.8,72.8,0,0,1,433.92,821.25Z"/><path class="cls-26" d="M471.06,819.29a57.51,57.51,0,0,1,18.7,7.46A81.69,81.69,0,0,1,505.41,839a82.68,82.68,0,0,1,12.35,15.53,59.06,59.06,0,0,1,7.71,18.58,132.73,132.73,0,0,1-15.42-12.19c-4.73-4.2-9.21-8.51-13.61-12.89s-8.73-8.82-13-13.5A146.27,146.27,0,0,1,471.06,819.29Z"/><path class="cls-26" d="M508.64,826.06a148.63,148.63,0,0,1,32.86,3.67c5.38,1.16,10.68,2.55,16,4.15a76.43,76.43,0,0,1,16.08,6.67,50.17,50.17,0,0,1,7.52,5.34l1.71,1.64a20.11,20.11,0,0,1,1.65,1.68,37.1,37.1,0,0,1,2.93,3.62,48.57,48.57,0,0,1,7.69,16.33,50.41,50.41,0,0,1,1.34,17.46,40,40,0,0,1-5.09,16.18,70.51,70.51,0,0,0-1.17-16,64.32,64.32,0,0,0-4.54-14.4,51.76,51.76,0,0,0-7.71-12.13c-.73-.91-1.58-1.69-2.38-2.52s-1.7-1.51-2.54-2.28a47.21,47.21,0,0,0-5.8-3.94,105.56,105.56,0,0,0-13.68-6.32l-7.45-3c-2.49-1-5-2-7.47-3C528.61,835.16,518.6,831.09,508.64,826.06Z"/><path class="cls-26" d="M531.23,830.63a41.15,41.15,0,0,1,14.51,1.92A53.9,53.9,0,0,1,559.23,839a62.55,62.55,0,0,1,20.26,22.18,68.67,68.67,0,0,1,8.2,28.67,64.69,64.69,0,0,1-.78,14.73,50.42,50.42,0,0,1-4.38,13.89,171.83,171.83,0,0,0-4.73-27.07,110,110,0,0,0-9.48-24.11A89.24,89.24,0,0,0,553,846.77,95,95,0,0,0,531.23,830.63Z"/><path class="cls-26" d="M518.38,824.66a104.14,104.14,0,0,1,20.55,8.81c1.61.89,3.2,1.78,4.76,2.72s3.13,1.87,4.67,2.87a90.48,90.48,0,0,1,9.16,6.6,55.61,55.61,0,0,1,8.33,8.46,40.48,40.48,0,0,1,6.07,10.62,36.92,36.92,0,0,1,1.68,5.89,33.34,33.34,0,0,1,.59,6,28.9,28.9,0,0,1-.68,6,21,21,0,0,1-2.14,5.48c-.43-1.92-.88-3.69-1.41-5.39s-1.2-3.3-1.91-4.85a52.48,52.48,0,0,0-5-8.54c-3.75-5.23-8.44-9.53-13.65-13.9l-8.14-6.65c-1.39-1.15-2.78-2.34-4.14-3.56s-2.71-2.45-4.05-3.7A102.87,102.87,0,0,1,518.38,824.66Z"/><path class="cls-26" d="M516.11,814.59a70.27,70.27,0,0,1,23.7,1.22A99.56,99.56,0,0,1,582,836.23a72.22,72.22,0,0,1,15.78,17.69c-7.59-2.77-14.4-6.08-21.2-9.27l-20-9.69-20-9.7C529.89,821.93,523.06,818.7,516.11,814.59Z"/><path class="cls-26" d="M382.08,1138.37a214.74,214.74,0,0,1,4.7,21.15c1.25,6.91,2.4,13.73,3.49,20.57s2.13,13.67,3.1,20.63a210.65,210.65,0,0,1,2.09,21.56,69,69,0,0,1-11.26-19.09,98.71,98.71,0,0,1-6.86-43.18A69.58,69.58,0,0,1,382.08,1138.37Z"/><path class="cls-26" d="M413.16,1134.45a113.11,113.11,0,0,1,4.42,21.68,201.41,201.41,0,0,1,.24,43.17A112.85,112.85,0,0,1,413.6,1221a99,99,0,0,1-5.27-21.55,158.11,158.11,0,0,1-1.54-21.7,163,163,0,0,1,1.34-21.71A100.35,100.35,0,0,1,413.16,1134.45Z"/><path class="cls-26" d="M399.59,1158.05a45.08,45.08,0,0,1,4.73,13.27,67.17,67.17,0,0,1,1.3,13.28,66.3,66.3,0,0,1-1.28,13.27,44.54,44.54,0,0,1-4.75,13.28,44.54,44.54,0,0,1-4.75-13.28,66.31,66.31,0,0,1-1.29-13.27,67.93,67.93,0,0,1,1.3-13.28A45.11,45.11,0,0,1,399.59,1158.05Z"/><path class="cls-26" d="M457,1114.78a124,124,0,0,1,5.09,18.62c1.25,6.11,2.26,12.18,3.09,18.26s1.49,12.2,1.93,18.43a122.88,122.88,0,0,1,.06,19.3,62,62,0,0,1-9.34-17.3,91.89,91.89,0,0,1-5.18-38.14A62.82,62.82,0,0,1,457,1114.78Z"/><path class="cls-26" d="M439.9,1110.85a186.13,186.13,0,0,1,4.73,29c.89,9.67,1.3,19.34,1.31,29s-.41,19.33-1.29,29a183.86,183.86,0,0,1-4.75,29,183.86,183.86,0,0,1-4.75-29q-1.32-14.5-1.28-29t1.3-29A186.13,186.13,0,0,1,439.9,1110.85Z"/><path class="cls-26" d="M435.8,1150.21a45.42,45.42,0,0,1,5.75,15.8,65.11,65.11,0,0,1-2.63,32.56,44.8,44.8,0,0,1-8.25,14.65,95.94,95.94,0,0,1-1.11-16.33c0-5.22.3-10.32.72-15.41s1-10.17,1.8-15.33A97.52,97.52,0,0,1,435.8,1150.21Z"/><path class="cls-26" d="M792.14,750.87a48.17,48.17,0,0,1,4.74,13.77,72.77,72.77,0,0,1,1.3,13.76,71.32,71.32,0,0,1-1.29,13.77,47.14,47.14,0,0,1-4.75,13.76,47.14,47.14,0,0,1-4.75-13.76,74.08,74.08,0,0,1,0-27.53A47.83,47.83,0,0,1,792.14,750.87Z"/><path class="cls-26" d="M783.81,751a101.63,101.63,0,0,1,3.9,21.84,166.28,166.28,0,0,1,.26,21.75,164.24,164.24,0,0,1-2.56,21.59,100.65,100.65,0,0,1-6.22,21.3,110.44,110.44,0,0,1-3.25-21.9,190.53,190.53,0,0,1,0-21.64,193.42,193.42,0,0,1,2.34-21.51A112.36,112.36,0,0,1,783.81,751Z"/><path class="cls-26" d="M779.68,782.44A156.83,156.83,0,0,1,784.41,809q1.32,13.28,1.3,26.55a265.1,265.1,0,0,1-1.28,26.55,155.21,155.21,0,0,1-4.75,26.55,155.21,155.21,0,0,1-4.75-26.55,273.86,273.86,0,0,1,0-53.1A156.83,156.83,0,0,1,779.68,782.44Z"/><path class="cls-26" d="M769.93,790.31a153.44,153.44,0,0,1,5.34,29,236,236,0,0,1,.92,29.24,233.57,233.57,0,0,1-2.65,29.13,151.64,151.64,0,0,1-7.08,28.65,232,232,0,0,1-2.39-29.25c-.27-9.67-.23-19.28.06-28.89s.83-19.21,1.68-28.84A237.63,237.63,0,0,1,769.93,790.31Z"/><path class="cls-26" d="M762.31,825.7A138,138,0,0,1,767,853.93a211,211,0,0,1-3.73,56.52,137.76,137.76,0,0,1-8.39,27.37,234.65,234.65,0,0,1-1-28.4c.13-9.35.53-18.63,1.16-27.9s1.45-18.52,2.55-27.8A238.17,238.17,0,0,1,762.31,825.7Z"/><path class="cls-26" d="M798.65,721.5a48.49,48.49,0,0,1,5.6,16.93,67.93,67.93,0,0,1,.3,17.56,66.72,66.72,0,0,1-4.13,17.07,48,48,0,0,1-9.19,15.29,117,117,0,0,1-.08-17.34c.3-5.55.81-11,1.41-16.35s1.3-10.79,2.23-16.26A119.11,119.11,0,0,1,798.65,721.5Z"/><path class="cls-26" d="M749.84,851.29c4.25,9.68,5.69,20.41,5.91,30.88a188.16,188.16,0,0,1-2.47,31c-1.52,10.12-3.47,20-5.19,29.89s-3.17,19.74-4.28,30.2c-.91-2.46-1.74-5-2.47-7.51s-1.09-5.14-1.57-7.75c-.32-2.6-.62-5.23-.86-7.86s-.23-5.24-.27-7.87a204.59,204.59,0,0,1,2.71-30.91c1.53-10.09,3.4-20,5-29.84S749.09,861.77,749.84,851.29Z"/><path class="cls-26" d="M743.18,882.73a131.63,131.63,0,0,1,5,25.58,210.19,210.19,0,0,1,1,25.69,206,206,0,0,1-2.1,25.63A129.73,129.73,0,0,1,741,985a161.85,161.85,0,0,1-3.41-25.74c-.53-8.52-.67-17-.48-25.49s.7-17,1.6-25.44A163.48,163.48,0,0,1,743.18,882.73Z"/><path class="cls-26" d="M722.09,904.36a168.56,168.56,0,0,1,4.73,27.53c.89,9.18,1.3,18.36,1.3,27.54s-.4,18.35-1.28,27.53a166.32,166.32,0,0,1-4.75,27.53A166.32,166.32,0,0,1,717.34,987c-.88-9.18-1.29-18.36-1.28-27.53s.42-18.36,1.3-27.54A168.56,168.56,0,0,1,722.09,904.36Z"/><path class="cls-26" d="M735.77,880.77a257.77,257.77,0,0,1,4.14,32c.79,10.63,1.2,21.25,1.31,31.86s-.09,21.24-.67,31.89a253.74,253.74,0,0,1-3.53,32.08,195.91,195.91,0,0,1-6-31.81,315,315,0,0,1-1.91-32c-.09-10.69.32-21.39,1.3-32.07A197.47,197.47,0,0,1,735.77,880.77Z"/><path class="cls-26" d="M716.43,902.4a347.37,347.37,0,0,1,4.41,41.36q1.11,20.68.72,41.36t-2.13,41.32a345.3,345.3,0,0,1-5.86,41.18,384.53,384.53,0,0,1-3.63-41.41q-.84-20.67-.44-41.3t1.89-41.25A390,390,0,0,1,716.43,902.4Z"/><path class="cls-26" d="M699.05,935.83a214.85,214.85,0,0,1,4.73,31.46c.89,10.49,1.3,21,1.31,31.47s-.41,21-1.29,31.46a213.71,213.71,0,0,1-4.75,31.47,215,215,0,0,1-4.74-31.47c-.89-10.49-1.3-21-1.29-31.46s.42-21,1.3-31.47A217.58,217.58,0,0,1,699.05,935.83Z"/><path class="cls-26" d="M726,926a137.22,137.22,0,0,1,4.28,23.15q1.25,11.51,1.44,23t-.58,23a136.77,136.77,0,0,1-3.44,23.29,105.81,105.81,0,0,1-6-22.88,166,166,0,0,1-2-23.2,169.37,169.37,0,0,1,1.17-23.27A107.29,107.29,0,0,1,726,926Z"/><path class="cls-26" d="M706.73,933.86a150.69,150.69,0,0,1,4.73,26.06A258.24,258.24,0,0,1,712.77,986a255.26,255.26,0,0,1-1.29,26,148.88,148.88,0,0,1-4.75,26.06A149.78,149.78,0,0,1,702,1012a252.43,252.43,0,0,1-1.29-26c0-8.69.42-17.38,1.3-26.06A151.65,151.65,0,0,1,706.73,933.86Z"/><path class="cls-26" d="M685.43,955.5a228.66,228.66,0,0,1,5.16,33.32q1.45,16.7,1.34,33.43t-1.72,33.4a227.11,227.11,0,0,1-5.51,33.26,252,252,0,0,1-4-33.43c-.67-11.12-.93-22.22-.86-33.31s.47-22.17,1.27-33.28A260.53,260.53,0,0,1,685.43,955.5Z"/><path class="cls-26" d="M684.14,959.58A169.62,169.62,0,0,1,691.6,985q2.83,12.75,4.49,25.67a231.52,231.52,0,0,1,1.93,26.1,135,135,0,0,1-1.95,26.49,168.55,168.55,0,0,1-7.48-25.39q-2.82-12.75-4.47-25.67a236.28,236.28,0,0,1-1.91-26.11A136.4,136.4,0,0,1,684.14,959.58Z"/><path class="cls-26" d="M666.42,992.86a93,93,0,0,1,4.73,20.07,156.85,156.85,0,0,1,0,40.15,91.91,91.91,0,0,1-4.75,20.07,91.91,91.91,0,0,1-4.75-20.07,156.85,156.85,0,0,1,0-40.15A93,93,0,0,1,666.42,992.86Z"/><path class="cls-26" d="M676,971.23a222.89,222.89,0,0,1,4.73,31.87c.88,10.62,1.29,21.25,1.3,31.87s-.4,21.25-1.29,31.88a220.53,220.53,0,0,1-4.74,31.87,219.19,219.19,0,0,1-4.75-31.87c-.88-10.63-1.29-21.25-1.29-31.88s.42-21.25,1.31-31.87A222.89,222.89,0,0,1,676,971.23Z"/><path class="cls-26" d="M651.06,979.09a236.32,236.32,0,0,1,4.73,32.94c.89,11,1.3,22,1.31,32.94s-.41,22-1.29,32.94a233.43,233.43,0,0,1-4.75,32.94,234.86,234.86,0,0,1-4.74-32.94c-.89-11-1.3-22-1.29-32.94s.42-22,1.3-32.94A237.82,237.82,0,0,1,651.06,979.09Z"/><path class="cls-26" d="M662.53,1000.71a15.24,15.24,0,0,0,1.32,3.78c.57,1.19,1.21,2.36,1.84,3.57a65.67,65.67,0,0,1,3.46,7.6,68.4,68.4,0,0,1,3.84,16.49,101.81,101.81,0,0,1,.38,16.73,138.18,138.18,0,0,1-1.92,16.43c-1.88,10.86-4.77,21.09-6.73,31.3a109.25,109.25,0,0,0-2,15.38,65.68,65.68,0,0,0,1.15,15.82,42,42,0,0,1-6.46-15.33,71.25,71.25,0,0,1-1.44-16.76c.24-11.18,2.25-21.91,3.64-32.26s2.75-20.71,3.26-31a128.14,128.14,0,0,0,0-15.43c-.17-2.6-.44-5.22-.73-7.95-.13-1.37-.26-2.76-.26-4.2A12.27,12.27,0,0,1,662.53,1000.71Z"/><path class="cls-26" d="M637.63,1006.62a342.05,342.05,0,0,1,4.72,39.83c.89,13.27,1.3,26.55,1.31,39.82s-.4,26.55-1.29,39.82a340,340,0,0,1-4.74,39.83,337.88,337.88,0,0,1-4.75-39.83q-1.32-19.9-1.29-39.82c0-13.27.42-26.55,1.31-39.82A339.94,339.94,0,0,1,637.63,1006.62Z"/><path class="cls-26" d="M658.37,1042.33c.4,4.86.38,9.62.33,14.35s-.26,9.41-.52,14.07c-.52,9.33-1.27,18.58-2.21,27.82s-2.07,18.46-3.52,27.7-3.08,18.51-5.86,27.83c-.59-2.35-1.08-4.71-1.49-7.08-.22-1.18-.39-2.36-.58-3.54l-.45-3.55c-.27-2.37-.53-4.74-.7-7.11s-.3-4.74-.39-7.11a210,210,0,0,1,1-28.38,203.73,203.73,0,0,1,4.87-28A140.2,140.2,0,0,1,658.37,1042.33Z"/><path class="cls-26" d="M646.4,1030c2.05,9.43,1.93,19.07,1.24,28.45s-2.22,18.58-3.75,27.6-3.17,17.88-4.36,26.79a241.76,241.76,0,0,0-2.13,27.49c-4.73-8.43-6.76-18.2-7.35-27.8A125.84,125.84,0,0,1,632,1084c1.6-9.29,3.87-18.3,6.33-27.2S643.41,1039.11,646.4,1030Z"/><path class="cls-26" d="M666.67,1022.35a78.25,78.25,0,0,1,4,25.5,105.93,105.93,0,0,1-12.57,49.72,77.44,77.44,0,0,1-15.67,20.52c2.14-8.45,4.65-16.29,6.9-24.16s4.43-15.6,6.41-23.41,3.8-15.66,5.52-23.65S664.52,1030.79,666.67,1022.35Z"/><path class="cls-26" d="M654.9,1016.46a60.11,60.11,0,0,1,4.74,15.73,94.85,94.85,0,0,1,1.3,15.73,92.85,92.85,0,0,1-1.29,15.74,59.5,59.5,0,0,1-4.75,15.73,59.5,59.5,0,0,1-4.75-15.73,92.84,92.84,0,0,1-1.28-15.74,93.79,93.79,0,0,1,1.3-15.73A60.07,60.07,0,0,1,654.9,1016.46Z"/><path class="cls-26" d="M630.62,1026.32a250.54,250.54,0,0,1,3.3,33.1c.45,11,.47,22,.13,32.93s-1.06,21.91-2.21,32.85a249.19,249.19,0,0,1-5.41,32.82,222.17,222.17,0,0,1-4.08-33c-.62-11-.72-22-.36-33s1.16-22,2.48-32.91A225.71,225.71,0,0,1,630.62,1026.32Z"/><path class="cls-26" d="M620.19,1020.39a265.44,265.44,0,0,1,5.22,36.86c1,12.31,1.35,24.64,1.25,37s-.71,24.64-1.89,36.94a262.13,262.13,0,0,1-5.88,36.75,330,330,0,0,1-3.61-37q-.88-18.42-.69-36.82c.12-12.26.55-24.52,1.36-36.8A333,333,0,0,1,620.19,1020.39Z"/><path class="cls-26" d="M607.24,1046c2,12.57,2.84,25,3.68,37.42s1.35,24.76,1.8,37.13.77,24.73.86,37.17,0,24.92-1.15,37.59a237.35,237.35,0,0,1-8.31-36.85,333.77,333.77,0,0,1-3.46-37.48,328.31,328.31,0,0,1,.81-37.64A233.24,233.24,0,0,1,607.24,1046Z"/><path class="cls-26" d="M606.91,1053.82a151.65,151.65,0,0,1,4.73,26.06,261.75,261.75,0,0,1,0,52.11,149.81,149.81,0,0,1-4.75,26.06,148.85,148.85,0,0,1-4.74-26.06,252.43,252.43,0,0,1-1.29-26,258.22,258.22,0,0,1,1.3-26.06A151.65,151.65,0,0,1,606.91,1053.82Z"/><path class="cls-26" d="M583.87,1063.66a195.73,195.73,0,0,1,4.73,30c.89,10,1.3,20,1.31,30s-.4,20-1.29,30a195,195,0,0,1-4.75,30,196.14,196.14,0,0,1-4.74-30c-.89-10-1.3-20-1.29-30s.42-20,1.31-30A196.93,196.93,0,0,1,583.87,1063.66Z"/><path class="cls-26" d="M583.87,1061.69a227.91,227.91,0,0,1,4.73,32.45c.89,10.81,1.3,21.63,1.31,32.45s-.4,21.63-1.29,32.44a226.55,226.55,0,0,1-4.75,32.45,227.94,227.94,0,0,1-4.74-32.45c-.89-10.81-1.3-21.63-1.29-32.44s.42-21.64,1.31-32.45A229.32,229.32,0,0,1,583.87,1061.69Z"/><path class="cls-26" d="M601.27,1059.73a262.19,262.19,0,0,1,3.64,34.79c.52,11.57.56,23.13.21,34.68s-1.13,23.08-2.38,34.6a259.21,259.21,0,0,1-5.83,34.5,258.94,258.94,0,0,1-3.66-34.79q-.78-17.35-.19-34.68c.37-11.55,1.14-23.09,2.39-34.61A262.58,262.58,0,0,1,601.27,1059.73Z"/><path class="cls-26" d="M578.12,1071.52a120.87,120.87,0,0,1,4.73,23.11,203.3,203.3,0,0,1,1.3,23.11,201,201,0,0,1-1.29,23.1,119.23,119.23,0,0,1-4.74,23.11,118.52,118.52,0,0,1-4.75-23.11,206,206,0,0,1,0-46.21A119.35,119.35,0,0,1,578.12,1071.52Z"/><path class="cls-26" d="M566.6,1077.42a174.15,174.15,0,0,1,4.73,28c.88,9.35,1.29,18.69,1.3,28s-.4,18.68-1.29,28a172.3,172.3,0,0,1-4.74,28,171.25,171.25,0,0,1-4.75-28c-.88-9.34-1.29-18.68-1.29-28s.42-18.68,1.31-28A173.05,173.05,0,0,1,566.6,1077.42Z"/><path class="cls-26" d="M558.92,1085.29a125.56,125.56,0,0,1,4.73,23.6,211.92,211.92,0,0,1,1.3,23.59,207.25,207.25,0,0,1-1.29,23.6,123.25,123.25,0,0,1-4.74,23.6,124.05,124.05,0,0,1-4.75-23.6,209.57,209.57,0,0,1-1.29-23.6,214.36,214.36,0,0,1,1.31-23.59A125.56,125.56,0,0,1,558.92,1085.29Z"/><path class="cls-26" d="M541.64,1093.15a167.43,167.43,0,0,1,4.73,27.54c.89,9.17,1.3,18.35,1.31,27.53s-.41,18.35-1.29,27.53a165.29,165.29,0,0,1-4.75,27.53,166.29,166.29,0,0,1-4.74-27.53c-.89-9.18-1.3-18.36-1.29-27.53s.42-18.36,1.3-27.53A168.49,168.49,0,0,1,541.64,1093.15Z"/><path class="cls-26" d="M470.42,1228.86a228.62,228.62,0,0,1-4.38-31.62c-.81-10.52-1.21-21-1.35-31.48-.09-5.24,0-10.48,0-15.72s.24-10.49.36-15.61c.18-10.27,0-20.23-3.33-30.53a38.84,38.84,0,0,1,8.76,13.9,75.76,75.76,0,0,1,4,16c.4,2.68.73,5.36,1,8s.46,5.28.65,7.93c.33,5.29.57,10.58.61,15.87a307.59,307.59,0,0,1-1.25,31.69A209.64,209.64,0,0,1,470.42,1228.86Z"/><path class="cls-26" d="M462.94,1209.18a167.31,167.31,0,0,1-4.73-27.53c-.89-9.18-1.3-18.36-1.31-27.53s.41-18.36,1.29-27.53a165.4,165.4,0,0,1,4.75-27.54,166.41,166.41,0,0,1,4.74,27.54c.89,9.17,1.3,18.35,1.29,27.53s-.42,18.35-1.3,27.53A168.37,168.37,0,0,1,462.94,1209.18Z"/><path class="cls-26" d="M480,1203.27a156,156,0,0,1-4-22.24c-.86-7.32-1.47-14.59-1.87-21.88s-.6-14.58-.53-22a153.19,153.19,0,0,1,1.6-22.54,86.72,86.72,0,0,1,7.83,21.48,131.57,131.57,0,0,1,2.43,44.93A87.43,87.43,0,0,1,480,1203.27Z"/><path class="cls-26" d="M453.17,1211.14a99.64,99.64,0,0,1-4.24-19.23,179,179,0,0,1-1.44-19,173.54,173.54,0,0,1,.52-19.05,97.63,97.63,0,0,1,3.34-19.4,74.08,74.08,0,0,1,6.14,18.87,113.12,113.12,0,0,1,2.06,19.3,114.39,114.39,0,0,1-1.16,19.37A75,75,0,0,1,453.17,1211.14Z"/><path class="cls-26" d="M490.47,1199.26a83,83,0,0,1-6-25.51,111.19,111.19,0,0,1,.94-26.22,108.47,108.47,0,0,1,2.77-12.85c.6-2.13,1.2-4.18,1.86-6.16l1.88-5.9a72.75,72.75,0,0,0,2.83-11.59,32.36,32.36,0,0,0,.27-5.93,28.54,28.54,0,0,0-1.19-6.2,17.83,17.83,0,0,1,4.4,5.2,25.72,25.72,0,0,1,2.45,6.59,45.79,45.79,0,0,1,.56,13.73c-.38,4.46-1.23,8.75-1.9,12.79s-1.37,8.11-2,12.17c-1.28,8.12-2.38,16.27-3.41,24.53l-1.57,12.5C491.78,1190.63,491.27,1194.88,490.47,1199.26Z"/><path class="cls-26" d="M489.2,1191.4c-1.43-8.88-2.28-17.36-3.42-25.75s-2.33-16.63-3.77-24.84-3.23-16.43-4.57-25.08a121.6,121.6,0,0,1-1.35-13.17,61.51,61.51,0,0,1,.75-13.4c3.5,8.28,6.72,16.08,9.79,24.18a140.28,140.28,0,0,1,7.26,25.38,107.67,107.67,0,0,1,1.34,26.7A81.85,81.85,0,0,1,489.2,1191.4Z"/><path class="cls-26" d="M504.59,1195.37a286.09,286.09,0,0,1-3.33-29.68c-.67-9.81-1.11-19.57-1.39-29.34s-.38-19.53-.26-29.36a280,280,0,0,1,1.7-29.82,145.16,145.16,0,0,1,7.76,29.08,214,214,0,0,1,2.87,29.77,219.37,219.37,0,0,1-1.22,29.88A146.3,146.3,0,0,1,504.59,1195.37Z"/><path class="cls-26" d="M501.33,1211.15A120.87,120.87,0,0,1,496.6,1188a203.3,203.3,0,0,1-1.3-23.11,198.71,198.71,0,0,1,1.28-23.1,119.26,119.26,0,0,1,4.75-23.11,119.26,119.26,0,0,1,4.75,23.11,200.94,200.94,0,0,1,1.28,23.1,203.3,203.3,0,0,1-1.3,23.11A120.87,120.87,0,0,1,501.33,1211.15Z"/><path class="cls-26" d="M519.71,1207.14c-1.64-9.74-2.32-19.25-3-28.73s-1-18.9-1.28-28.32-.43-18.84-.4-28.33a285.47,285.47,0,0,1,1.3-28.86,130.93,130.93,0,0,1,8.16,28,193.1,193.1,0,0,1,1.67,57.79A131.26,131.26,0,0,1,519.71,1207.14Z"/><path class="cls-26" d="M510.93,1199.35a191,191,0,0,1-4.73-29.5c-.89-9.83-1.3-19.67-1.31-29.5s.41-19.66,1.29-29.5a188.88,188.88,0,0,1,4.75-29.5,190,190,0,0,1,4.74,29.5c.89,9.84,1.3,19.67,1.29,29.5s-.42,19.67-1.3,29.5A192.22,192.22,0,0,1,510.93,1199.35Z"/><path class="cls-26" d="M533.86,1197.37a183.19,183.19,0,0,1-4.63-28.89c-.86-9.63-1.24-19.26-1.21-28.88s.46-19.25,1.38-28.88c.46-4.88,1.15-9.46,1.31-14s-.21-9-2.46-13.54a16.93,16.93,0,0,1,5.28,5.55,28.24,28.24,0,0,1,3.06,7.21,82.91,82.91,0,0,1,2.3,14.82q1.27,14.45,1.19,28.89c0,9.62-.48,19.25-1.39,28.87A183.24,183.24,0,0,1,533.86,1197.37Z"/><path class="cls-26" d="M554.92,1181.64c-1.84-9-2.86-17.62-3.95-26.24l-3-25.69c-1-8.54-1.92-17.08-2.82-25.71s-1.78-17.33-2-26.46a98.88,98.88,0,0,1,11.25,24.52,141.27,141.27,0,0,1,6,53.17A100.08,100.08,0,0,1,554.92,1181.64Z"/><path class="cls-26" d="M522.45,1181.65a88.52,88.52,0,0,1-4.73-19.67,145.89,145.89,0,0,1-1.31-19.66,144.39,144.39,0,0,1,1.29-19.67,88,88,0,0,1,4.75-19.66,88.47,88.47,0,0,1,4.74,19.66,144.39,144.39,0,0,1,1.29,19.67,147.53,147.53,0,0,1-1.3,19.66A89.64,89.64,0,0,1,522.45,1181.65Z"/><path class="cls-26" d="M282.75,947.79A35,35,0,0,1,281.8,959a49.31,49.31,0,0,1-8.63,18.18,35,35,0,0,1-8.12,7.77,26.6,26.6,0,0,1-.66-11.43,36.57,36.57,0,0,1,9.08-19A26.68,26.68,0,0,1,282.75,947.79Z"/><path class="cls-26" d="M280.58,965.33A44,44,0,0,1,284.82,982a62.68,62.68,0,0,1-6.86,32.85,43.74,43.74,0,0,1-10.59,13.54,115,115,0,0,1,1.6-16.57c.8-5.25,1.79-10.33,2.85-15.4s2.21-10.12,3.58-15.25A117.35,117.35,0,0,1,280.58,965.33Z"/><path class="cls-26" d="M554.52,1197a91.72,91.72,0,0,1-7.59-19,154,154,0,0,1-5.84-39.42c0-1.67,0-3.35,0-5,0-.84,0-1.68.1-2.53l.08-1.42c.05-.5.09-1,.18-1.48a14.22,14.22,0,0,1,2.07-5.59,6.54,6.54,0,0,1,2.3-2.16,3.56,3.56,0,0,1,2.87-.21,3,3,0,0,0-1.65,1.57,5.22,5.22,0,0,0-.37,2,11.76,11.76,0,0,0,.2,2.11,15,15,0,0,0,.51,2.1c.1.35.22.68.33,1s.25.61.41,1c.29.79.55,1.59.82,2.39q.81,2.4,1.5,4.82a148.21,148.21,0,0,1,4.19,19.52,149.86,149.86,0,0,1,1.62,19.9A91.37,91.37,0,0,1,554.52,1197Z"/><path class="cls-26" d="M577.5,1199.48a63,63,0,0,1-5.15-17,98.89,98.89,0,0,1,.29-34.26,62.55,62.55,0,0,1,5.47-16.86,74.59,74.59,0,0,1,4,17.16,121.77,121.77,0,0,1,1,16.92,125.22,125.22,0,0,1-1.27,16.91A75.73,75.73,0,0,1,577.5,1199.48Z"/><path class="cls-26" d="M533.3,1210.81a70.8,70.8,0,0,1-5.77-15.53,120.09,120.09,0,0,1-2.87-15.56,118.43,118.43,0,0,1-.84-15.8,70.19,70.19,0,0,1,2-16.45,54.52,54.52,0,0,1,7.38,15,83.78,83.78,0,0,1,3.75,32A54.94,54.94,0,0,1,533.3,1210.81Z"/><path class="cls-26" d="M491,1217.62a145.52,145.52,0,0,1-4.73-25.5,250.27,250.27,0,0,1-1.3-25.5,241.93,241.93,0,0,1,1.29-25.5,143.73,143.73,0,0,1,4.74-25.5,142.87,142.87,0,0,1,4.75,25.5,250.75,250.75,0,0,1,0,51A144.61,144.61,0,0,1,491,1217.62Z"/><path class="cls-26" d="M590.61,1154.16a152.68,152.68,0,0,1-4.75-26.06c-.89-8.68-1.31-17.37-1.33-26.06a255.23,255.23,0,0,1,1.27-26c.46-4.35,1-8.69,1.77-13l.6-3.25a17.49,17.49,0,0,1,1-3.66,4.93,4.93,0,0,1,1.37-1.9,3.11,3.11,0,0,1,.51-.36,4.14,4.14,0,0,1,.62-.28,2.23,2.23,0,0,1,1.4,0,2.74,2.74,0,0,1,1.61,1.45,1.73,1.73,0,0,1,.15,1,1,1,0,0,1-.59.71.83.83,0,0,0-.32-1.18,1.27,1.27,0,0,0-1.11-.2c-.14,0-.19.13-.18.21s0,.08-.06.15-.06.14-.08.21a3.08,3.08,0,0,0-.06,1,25.42,25.42,0,0,0,.51,2.82l.6,3.26c.76,4.34,1.33,8.68,1.79,13a255.29,255.29,0,0,1,1.31,26,258.2,258.2,0,0,1-1.28,26.06A150.74,150.74,0,0,1,590.61,1154.16Z"/><path class="cls-26" d="M788.07,737.16c1.55,8.62,2.28,16.93,3.08,25.2s1.41,16.42,2.06,24.6,1.28,16.35,1.84,24.61,1.09,16.61.9,25.37a91.75,91.75,0,0,1-10.24-23.71,130.88,130.88,0,0,1-4-51A92.73,92.73,0,0,1,788.07,737.16Z"/><path class="cls-26" d="M595.73,941.22a159.56,159.56,0,0,1,0,28.08A268.87,268.87,0,0,1,592,996.79a262.5,262.5,0,0,1-6.49,27,157.87,157.87,0,0,1-10.12,26.2,177.5,177.5,0,0,1,.81-28c.91-9.2,2.24-18.31,3.93-27.35s3.75-18,6.23-26.93A179.4,179.4,0,0,1,595.73,941.22Z"/><path class="cls-26" d="M584,950.16a443.7,443.7,0,0,1,4.73,45.33q1.32,22.66,1.3,45.33t-1.28,45.34a438.19,438.19,0,0,1-4.75,45.33,438.19,438.19,0,0,1-4.75-45.33q-1.32-22.67-1.28-45.34t1.3-45.33A443.7,443.7,0,0,1,584,950.16Z"/><path class="cls-26" d="M583.94,1013.62a91.84,91.84,0,0,1,3.57,26.77,62.36,62.36,0,0,1-6.46,27.32,68.74,68.74,0,0,1-7.82,11.64c-2.83,3.49-5.69,6.72-8.43,9.9a73.18,73.18,0,0,0-7.34,9.85,29.88,29.88,0,0,0-4.11,11.91c-2.09-4.09-2.39-9.18-1.47-13.91a46,46,0,0,1,5.08-13.19c4.43-8.05,9.85-14.88,13.37-21.74s5.91-14.68,7.79-22.9S581.41,1022.37,583.94,1013.62Z"/><path class="cls-26" d="M561.93,1054.43a239.44,239.44,0,0,1,4,28.41c.83,9.4,1.38,18.76,1.72,28.14s.46,18.75.31,28.19a238.52,238.52,0,0,1-1.95,28.62,141,141,0,0,1-7.52-27.89,213,213,0,0,1-2.9-28.49,215.58,215.58,0,0,1,.88-28.63A141.45,141.45,0,0,1,561.93,1054.43Z"/><path class="cls-26" d="M572.72,1052.16A161.82,161.82,0,0,1,578,1081a256.36,256.36,0,0,1,1.24,29,253.78,253.78,0,0,1-2,29,160.72,160.72,0,0,1-6.11,28.72,212.42,212.42,0,0,1-3.38-29.06c-.54-9.63-.71-19.23-.58-28.82s.58-19.18,1.38-28.79A214.16,214.16,0,0,1,572.72,1052.16Z"/><path class="cls-26" d="M387,1093a171.07,171.07,0,0,1,4.73,27.76c.89,9.26,1.3,18.51,1.31,27.77s-.41,18.51-1.29,27.77A167.93,167.93,0,0,1,387,1204a169,169,0,0,1-4.74-27.76c-.89-9.26-1.3-18.52-1.29-27.77s.42-18.51,1.3-27.77A171.07,171.07,0,0,1,387,1093Z"/><path class="cls-26" d="M491,1093a95.24,95.24,0,0,1,4.73,20.4,160.71,160.71,0,0,1,0,40.8,94.12,94.12,0,0,1-4.75,20.4,94.68,94.68,0,0,1-4.74-20.4,153.52,153.52,0,0,1-1.29-20.4,158.76,158.76,0,0,1,1.3-20.4A95.85,95.85,0,0,1,491,1093Z"/><path class="cls-26" d="M455.62,1102a151.76,151.76,0,0,1,4.73,26.07,262,262,0,0,1,0,52.13,149.92,149.92,0,0,1-4.75,26.07,149.89,149.89,0,0,1-4.74-26.07,252.62,252.62,0,0,1-1.29-26.06c0-8.69.42-17.38,1.3-26.07A151.76,151.76,0,0,1,455.62,1102Z"/><path class="cls-26" d="M522,1086.16a86.26,86.26,0,0,1,4.73,19.26,141.89,141.89,0,0,1,1.3,19.27,137.2,137.2,0,0,1-1.29,19.27,85.21,85.21,0,0,1-4.74,19.26,84.71,84.71,0,0,1-4.75-19.26,143.47,143.47,0,0,1,0-38.54A85.72,85.72,0,0,1,522,1086.16Z"/><path class="cls-26" d="M606.2,961.49a462.22,462.22,0,0,1,4.71,55.16q.84,27.63-.63,55.27t-5.12,55a457.73,457.73,0,0,1-10.46,54.37c-.29-18.53.35-36.87,1-55.19s1.56-36.58,2.53-54.84,2-36.53,3.22-54.81S604,979.89,606.2,961.49Z"/><path class="cls-26" d="M597.23,995.49a243.36,243.36,0,0,1,4.72,33.43c.89,11.15,1.3,22.29,1.31,33.44s-.4,22.29-1.29,33.43a241.68,241.68,0,0,1-4.74,33.43,240.2,240.2,0,0,1-4.75-33.43q-1.32-16.71-1.29-33.43c0-11.15.42-22.29,1.31-33.44A241.86,241.86,0,0,1,597.23,995.49Z"/><path class="cls-26" d="M625,970.75c.52,14.25-.08,28.3-.86,42.32s-2,28-3.47,41.89-3.2,27.81-5.29,41.69-4.49,27.75-8,41.58a323.51,323.51,0,0,1-1.48-42.39q.49-21.13,2.74-42.14c1.48-14,3.48-27.94,6.09-41.79A326.5,326.5,0,0,1,625,970.75Z"/><path class="cls-26" d="M619.34,972.82a164.57,164.57,0,0,1,4.17,27.3c.7,9.08.93,18.16.75,27.23s-.77,18.12-1.84,27.17a162.34,162.34,0,0,1-5.29,27.1,161.45,161.45,0,0,1-4.2-27.29c-.7-9.09-.92-18.16-.73-27.23s.79-18.12,1.86-27.17A163.64,163.64,0,0,1,619.34,972.82Z"/><path class="cls-26" d="M630.41,988.69a218.63,218.63,0,0,1,4.73,31.73c.89,10.58,1.3,21.16,1.31,31.74s-.41,21.15-1.29,31.73a216.93,216.93,0,0,1-4.75,31.73,218.26,218.26,0,0,1-4.74-31.73c-.89-10.58-1.3-21.16-1.29-31.73s.42-21.16,1.3-31.74A221.41,221.41,0,0,1,630.41,988.69Z"/><path class="cls-26" d="M645.9,986.42a40.75,40.75,0,0,1,4.74,12.47,60,60,0,0,1,1.3,12.47,58.59,58.59,0,0,1-1.29,12.46,40.09,40.09,0,0,1-4.75,12.47,40.09,40.09,0,0,1-4.75-12.47,58.58,58.58,0,0,1-1.28-12.46,59.36,59.36,0,0,1,1.3-12.47A40.72,40.72,0,0,1,645.9,986.42Z"/><path class="cls-26" d="M661.39,970.56a114.25,114.25,0,0,1,5,23.82,184.57,184.57,0,0,1-1.09,47.81,113.52,113.52,0,0,1-6.07,23.57,141.58,141.58,0,0,1-3.41-24q-.79-11.91-.49-23.73c.2-7.89.71-15.77,1.6-23.68A144,144,0,0,1,661.39,970.56Z"/><path class="cls-26" d="M639.26,1004.56a85.18,85.18,0,0,1,4.73,19.26,140.31,140.31,0,0,1,1.31,19.27,138.73,138.73,0,0,1-1.29,19.27,84.71,84.71,0,0,1-4.75,19.26,85.21,85.21,0,0,1-4.74-19.26,138.73,138.73,0,0,1-1.29-19.27,140.31,140.31,0,0,1,1.31-19.27A85.68,85.68,0,0,1,639.26,1004.56Z"/><path class="cls-26" d="M596.4,970.85c.16,11.84-.58,23.38-1.33,34.88s-1.76,22.91-2.82,34.33-2.22,22.81-3.55,34.25-2.8,22.92-5.17,34.52a186.69,186.69,0,0,1-4.32-34.89,267.41,267.41,0,0,1,1-35,271.59,271.59,0,0,1,5.48-34.58A187.23,187.23,0,0,1,596.4,970.85Z"/><path class="cls-26" d="M601.65,970.56a151.83,151.83,0,0,1,4.73,26.06,262.05,262.05,0,0,1,0,52.14,149.81,149.81,0,0,1-4.75,26.06,148.85,148.85,0,0,1-4.74-26.06,252.81,252.81,0,0,1-1.29-26.07,258.57,258.57,0,0,1,1.3-26.07A151.83,151.83,0,0,1,601.65,970.56Z"/><path class="cls-26" d="M679.37,966.05c1.81,8.66,2.63,17.09,3.63,25.38s1.9,16.42,3.07,24.53,2.54,16.25,3.8,24.57,2.4,16.78,2.48,25.63a114.69,114.69,0,0,1-11.67-23.24,122.93,122.93,0,0,1-6.56-25.24,110.4,110.4,0,0,1-.58-26.19A96.36,96.36,0,0,1,679.37,966.05Z"/><path class="cls-26" d="M643.69,988.69a100.85,100.85,0,0,1,4.73,21,171,171,0,0,1,0,41.93,99.65,99.65,0,0,1-4.75,21,99.65,99.65,0,0,1-4.75-21,171,171,0,0,1,0-41.93A100.85,100.85,0,0,1,643.69,988.69Z"/><path class="cls-26" d="M756.53,814.16a139.42,139.42,0,0,1,4.73,24.93,239.79,239.79,0,0,1,0,49.87,137.74,137.74,0,0,1-4.75,24.93A136.85,136.85,0,0,1,751.79,889,231.28,231.28,0,0,1,750.5,864a239.31,239.31,0,0,1,1.3-24.94A139.42,139.42,0,0,1,756.53,814.16Z"/><path class="cls-26" d="M743.26,859.49a68.54,68.54,0,0,1,4.72,17,111.8,111.8,0,0,1,0,34,68.05,68.05,0,0,1-4.74,17,67.66,67.66,0,0,1-4.75-17,106.86,106.86,0,0,1-1.29-17,108.25,108.25,0,0,1,1.31-17A68.14,68.14,0,0,1,743.26,859.49Z"/><path class="cls-26" d="M727.77,875.36a164.54,164.54,0,0,1,4.73,27.2c.88,9.07,1.29,18.13,1.3,27.2s-.4,18.13-1.29,27.2a162.68,162.68,0,0,1-4.74,27.2A161.7,161.7,0,0,1,723,957c-.88-9.07-1.29-18.14-1.29-27.2s.42-18.13,1.31-27.2A163.5,163.5,0,0,1,727.77,875.36Z"/><path class="cls-26" d="M701.22,909.36a145.52,145.52,0,0,1,4.73,25.5,250.27,250.27,0,0,1,1.3,25.5,241.93,241.93,0,0,1-1.29,25.5,143.73,143.73,0,0,1-4.74,25.5,142.87,142.87,0,0,1-4.75-25.5,244.64,244.64,0,0,1-1.29-25.5,247.45,247.45,0,0,1,1.31-25.5A144.61,144.61,0,0,1,701.22,909.36Z"/><path class="cls-26" d="M685.73,932a178,178,0,0,1,4.73,28.34c.88,9.44,1.29,18.89,1.3,28.33s-.4,18.89-1.29,28.33a175.78,175.78,0,0,1-4.74,28.34A174.71,174.71,0,0,1,681,1017c-.88-9.44-1.29-18.88-1.29-28.33s.42-18.89,1.31-28.33A176.86,176.86,0,0,1,685.73,932Z"/><path class="cls-26" d="M663.6,954.69a227.51,227.51,0,0,1,4.73,32.3c.89,10.77,1.3,21.53,1.31,32.3s-.41,21.53-1.29,32.3a224.73,224.73,0,0,1-4.75,32.3,226.11,226.11,0,0,1-4.74-32.3c-.89-10.77-1.3-21.53-1.29-32.3s.42-21.53,1.3-32.3A229,229,0,0,1,663.6,954.69Z"/><path class="cls-26" d="M640.17,948.71A188.27,188.27,0,0,1,644,974.84c.73,8.65,1.13,17.26,1.28,25.88s0,17.24-.43,25.91a184.87,184.87,0,0,1-3,26.24,125.61,125.61,0,0,1-6.49-25.77,193.24,193.24,0,0,1-2.15-26.19,195.21,195.21,0,0,1,1.32-26.24A127.08,127.08,0,0,1,640.17,948.71Z"/><path class="cls-26" d="M651.09,941a183.62,183.62,0,0,1,4.73,28.9c.89,9.63,1.3,19.26,1.31,28.89s-.41,19.27-1.29,28.9a181.39,181.39,0,0,1-4.75,28.9,182.5,182.5,0,0,1-4.74-28.9c-.89-9.63-1.3-19.26-1.29-28.9s.42-19.26,1.3-28.89A184.78,184.78,0,0,1,651.09,941Z"/><path class="cls-26" d="M677.42,929.42a55.84,55.84,0,0,1,4.76,17.66,82.48,82.48,0,0,1-3.82,35.47,55.44,55.44,0,0,1-8.46,16.22,101,101,0,0,1-.88-17.93c.13-5.79.58-11.46,1.19-17.12s1.41-11.28,2.52-17A102.83,102.83,0,0,1,677.42,929.42Z"/><path class="cls-26" d="M625.92,956.9a259.44,259.44,0,0,1-5.63,27.72c-2.27,9-4.73,17.92-7.34,26.78s-5.39,17.66-8.4,26.46a255.53,255.53,0,0,1-10.39,26.32,129.26,129.26,0,0,1,1.16-28.53,190.81,190.81,0,0,1,6.06-27.68,193.31,193.31,0,0,1,10-26.51A130.58,130.58,0,0,1,625.92,956.9Z"/></g></g></g></svg>